<svg version="1.1" xmlns="http://www.w3.org/2000/svg" viewBox="0 0 1111.825396996428 411.125" width="1111.825396996428" height="411.125">
  <!-- svg-source:excalidraw -->
  
  <defs>
    <style class="style-fonts">
      @font-face {
        font-family: "Virgil";
        src: url("https://unpkg.com/@excalidraw/excalidraw@0.15.3/dist/excalidraw-assets/Virgil.woff2");
      }
      @font-face {
        font-family: "Cascadia";
        src: url("https://unpkg.com/@excalidraw/excalidraw@0.15.3/dist/excalidraw-assets/Cascadia.woff2");
      }
    </style>
  </defs>
  <rect x="0" y="0" width="1111.825396996428" height="411.125" fill="#ffffff"></rect><g stroke-linecap="round" transform="translate(10 15.990677839455373) rotate(0 62 23.5)"><path d="M11.75 0 M11.75 0 C40.96 1.14, 70.18 0.6, 112.25 0 M11.75 0 C43.38 -0.04, 74.97 -1.39, 112.25 0 M112.25 0 C121.52 1.87, 125.71 2.51, 124 11.75 M112.25 0 C121.82 1.31, 121.82 3.08, 124 11.75 M124 11.75 C123.97 17.26, 123.33 25.98, 124 35.25 M124 11.75 C123.1 17.23, 123.68 22.53, 124 35.25 M124 35.25 C125.66 44.2, 119.52 46.47, 112.25 47 M124 35.25 C123.97 42.79, 118.05 46.16, 112.25 47 M112.25 47 C73.72 47.53, 32.72 45.82, 11.75 47 M112.25 47 C85.9 45.72, 58.71 47.53, 11.75 47 M11.75 47 C3.94 45.39, -0.01 42.21, 0 35.25 M11.75 47 C2.97 45.19, -1.44 43.8, 0 35.25 M0 35.25 C-1.09 27.8, 1.87 16.75, 0 11.75 M0 35.25 C0.94 26.83, 0.28 20.8, 0 11.75 M0 11.75 C-1.6 3.88, 2.22 -1.98, 11.75 0 M0 11.75 C0.73 1.94, 5.36 -0.43, 11.75 0" stroke="#000000" stroke-width="1" fill="none"></path></g><g transform="translate(51.70001220703125 26.990677839455373) rotate(0 20.29998779296875 12.5)"><text x="20.29998779296875" y="0" font-family="Virgil, Segoe UI Emoji" font-size="20px" fill="#000000" text-anchor="middle" style="white-space: pre;" direction="ltr" dominant-baseline="text-before-edge">juan</text></g><g stroke-linecap="round"><g transform="translate(125.08418240993748 64.99067783945537) rotate(0 11.801694093081593 5.0938194000859625)"><path d="M-1.06 -0.44 C3.05 1.39, 20.63 8.77, 24.66 10.85 M0.58 -1.72 C4.63 0.25, 20.68 9.37, 24.27 11.9" stroke="#000000" stroke-width="1" fill="none"></path></g><g transform="translate(125.08418240993748 64.99067783945537) rotate(0 11.801694093081593 5.0938194000859625)"><path d="M10.88 10.35 C14.21 9.61, 19.38 11.53, 23.25 11.38 M11.6 8.66 C14.72 10.63, 18.25 10.16, 24.27 11.62" stroke="#000000" stroke-width="1" fill="none"></path></g><g transform="translate(125.08418240993748 64.99067783945537) rotate(0 11.801694093081593 5.0938194000859625)"><path d="M15.64 2.69 C17.54 4.19, 21.28 8.41, 23.25 11.38 M16.36 0.99 C18.26 4.98, 20.52 6.55, 24.27 11.62" stroke="#000000" stroke-width="1" fill="none"></path></g></g><mask></mask><g stroke-linecap="round" transform="translate(145.58471915697248 63) rotate(0 40 31.5)"><path d="M25.72 3.02 C32.22 0.64, 42.11 -0.23, 49.52 1.05 C56.94 2.32, 65.1 6.02, 70.22 10.67 C75.34 15.32, 79.6 22.67, 80.26 28.97 C80.92 35.26, 78.54 43.04, 74.19 48.45 C69.84 53.87, 61.65 59.09, 54.17 61.46 C46.69 63.82, 36.82 64.47, 29.32 62.65 C21.82 60.82, 14.01 55.41, 9.16 50.53 C4.32 45.66, 0.89 39.57, 0.28 33.39 C-0.34 27.22, 1.1 18.78, 5.5 13.47 C9.89 8.17, 22.57 3.61, 26.66 1.58 C30.75 -0.45, 29.61 0.67, 30.03 1.29 M42.68 -0.55 C50.02 -1.05, 59.51 1.7, 65.5 5.69 C71.49 9.69, 76.51 17.16, 78.63 23.44 C80.74 29.72, 81.1 37.79, 78.21 43.37 C75.32 48.95, 68.11 53.73, 61.26 56.93 C54.42 60.12, 44.7 62.66, 37.11 62.54 C29.52 62.42, 21.77 60.19, 15.73 56.18 C9.7 52.18, 3.29 44.51, 0.92 38.51 C-1.45 32.52, -1.18 25.8, 1.51 20.21 C4.21 14.62, 10.55 8.5, 17.09 4.99 C23.63 1.47, 36.78 -0.1, 40.75 -0.88 C44.71 -1.67, 40.48 -0.33, 40.87 0.26" stroke="#000000" stroke-width="1" fill="none"></path></g><g transform="translate(170.11045309749886 82.22613639262374) rotate(0 15.689994812011719 12.5)"><text x="15.689994812011719" y="0" font-family="Virgil, Segoe UI Emoji" font-size="20px" fill="#000000" text-anchor="middle" style="white-space: pre;" direction="ltr" dominant-baseline="text-before-edge">{ }</text></g><g mask="url(#mask-wq29Cct16bTsPghB1tP7a)" stroke-linecap="round"><g transform="translate(227.10289359066837 95.73792790145376) rotate(0 79.16151639165409 -26.12986468816713)"><path d="M-0.08 -0.07 C26.13 -8.41, 131.41 -42.05, 157.66 -50.31 M-1.58 -1.15 C24.97 -9.83, 133.03 -43.82, 159.91 -52.19" stroke="#000000" stroke-width="1" fill="none"></path></g><g transform="translate(227.10289359066837 95.73792790145376) rotate(0 79.16151639165409 -26.12986468816713)"><path d="M135.96 -35.44 C144.82 -41.91, 153.86 -47.4, 160.41 -53.72 M136.26 -33.58 C143.68 -39.32, 150.99 -44.49, 159.27 -52.16" stroke="#000000" stroke-width="1" fill="none"></path></g><g transform="translate(227.10289359066837 95.73792790145376) rotate(0 79.16151639165409 -26.12986468816713)"><path d="M129.82 -55.02 C140.68 -54.97, 151.77 -53.95, 160.41 -53.72 M130.12 -53.16 C139.52 -52.97, 148.68 -52.25, 159.27 -52.16" stroke="#000000" stroke-width="1" fill="none"></path></g></g><mask id="mask-wq29Cct16bTsPghB1tP7a"><rect x="0" y="0" fill="#fff" width="485.64146544074947" height="246.5140182410637"></rect><rect x="274.9822106436386" y="57.84988273164879" fill="#000" width="62.779937744140625" height="25" opacity="1"></rect></mask><g transform="translate(274.9822106436386 57.84988273164879) rotate(0 31.282199338683853 11.758180481637837)"><text x="31.389968872070312" y="0" font-family="Virgil, Segoe UI Emoji" font-size="20px" fill="#000000" text-anchor="middle" style="white-space: pre;" direction="ltr" dominant-baseline="text-before-edge">nombre</text></g><g stroke-linecap="round" transform="translate(378.5847191569725 10) rotate(0 95 24.5)"><path d="M125.47 2.16 C138.29 2.65, 151.27 4.33, 160.99 6.54 C170.71 8.75, 178.97 12.17, 183.79 15.41 C188.61 18.66, 191.17 22.28, 189.9 26.02 C188.62 29.76, 183.35 34.73, 176.13 37.86 C168.91 41, 158.22 42.91, 146.58 44.83 C134.95 46.75, 120 48.76, 106.32 49.4 C92.64 50.05, 77.38 49.87, 64.5 48.68 C51.63 47.5, 38.93 45.06, 29.06 42.29 C19.18 39.53, 10 35.52, 5.27 32.09 C0.54 28.65, -0.85 25.06, 0.65 21.69 C2.15 18.31, 7.24 14.83, 14.25 11.85 C21.26 8.88, 31.25 5.69, 42.72 3.83 C54.2 1.96, 68.4 1.12, 83.09 0.67 C97.79 0.23, 122.62 0.79, 130.91 1.16 C139.2 1.52, 133.71 2.44, 132.84 2.86 M51.18 3.23 C62.34 1.17, 80.73 0.23, 94.6 0.16 C108.47 0.09, 122.32 1.51, 134.37 2.8 C146.43 4.08, 158.1 5.44, 166.92 7.85 C175.75 10.25, 183.94 13.59, 187.33 17.24 C190.73 20.89, 190.1 26.16, 187.29 29.74 C184.48 33.33, 178.82 36.19, 170.46 38.73 C162.11 41.28, 149.69 43.37, 137.14 44.99 C124.59 46.61, 108.81 48.31, 95.18 48.46 C81.54 48.61, 67.81 47.25, 55.32 45.9 C42.83 44.55, 28.87 43.11, 20.24 40.37 C11.61 37.64, 6.73 32.8, 3.53 29.51 C0.32 26.23, -1.67 23.93, 1.01 20.65 C3.7 17.36, 10.96 12.8, 19.63 9.79 C28.29 6.79, 47.34 3.84, 53.01 2.6 C58.68 1.37, 53.05 2.22, 53.64 2.38" stroke="#000000" stroke-width="1" fill="none"></path></g><g transform="translate(443.48959203409424 22.17588386092956) rotate(0 29.91998291015625 12.5)"><text x="29.91998291015625" y="0" font-family="Virgil, Segoe UI Emoji" font-size="20px" fill="#000000" text-anchor="middle" style="white-space: pre;" direction="ltr" dominant-baseline="text-before-edge">"Juan"</text></g><g mask="url(#mask-14_CrP-IXhrhaslqXkuDp)" stroke-linecap="round"><g transform="translate(229.13557057287187 93.86288539574531) rotate(0 72.8917186253299 14.287317470361288)"><path d="M-0.08 -0.07 C24.04 4.93, 120.96 24.65, 145.12 29.73 M-1.58 -1.15 C22.88 3.51, 122.58 22.88, 147.37 27.85" stroke="#000000" stroke-width="1" fill="none"></path></g><g transform="translate(229.13557057287187 93.86288539574531) rotate(0 72.8917186253299 14.287317470361288)"><path d="M117.61 31 C128.37 29.06, 139.35 28.09, 147.87 26.32 M117.91 32.86 C127.17 31.25, 136.23 30.17, 146.73 27.88" stroke="#000000" stroke-width="1" fill="none"></path></g><g transform="translate(229.13557057287187 93.86288539574531) rotate(0 72.8917186253299 14.287317470361288)"><path d="M121.57 10.87 C130.97 15.62, 140.63 21.35, 147.87 26.32 M121.87 12.73 C130.07 17.14, 137.95 22.11, 146.73 27.88" stroke="#000000" stroke-width="1" fill="none"></path></g></g><mask id="mask-14_CrP-IXhrhaslqXkuDp"><rect x="0" y="0" fill="#fff" width="475.1345468903046" height="223.1254938232583"></rect><rect x="278.61507734731094" y="95.9941896095018" fill="#000" width="47.03996276855469" height="25" opacity="1"></rect></mask><g transform="translate(278.6150773473109 95.9941896095018) rotate(0 23.412211850890884 12.156013256604794)"><text x="23.519981384277344" y="0" font-family="Virgil, Segoe UI Emoji" font-size="20px" fill="#000000" text-anchor="middle" style="white-space: pre;" direction="ltr" dominant-baseline="text-before-edge">edad</text></g><g stroke-linecap="round" transform="translate(373.6175659504318 98.125) rotate(0 95.00000000000003 24.5)"><path d="M125.47 2.16 C138.29 2.65, 151.27 4.33, 160.99 6.54 C170.71 8.75, 178.97 12.17, 183.79 15.41 C188.61 18.66, 191.17 22.28, 189.9 26.02 C188.62 29.76, 183.35 34.73, 176.13 37.86 C168.91 41, 158.22 42.91, 146.58 44.83 C134.95 46.75, 120 48.76, 106.32 49.4 C92.64 50.05, 77.38 49.87, 64.5 48.68 C51.63 47.5, 38.93 45.06, 29.06 42.29 C19.18 39.53, 10 35.52, 5.27 32.09 C0.54 28.65, -0.85 25.06, 0.65 21.69 C2.15 18.31, 7.24 14.83, 14.25 11.85 C21.26 8.88, 31.25 5.69, 42.72 3.83 C54.2 1.96, 68.4 1.12, 83.09 0.67 C97.79 0.23, 122.62 0.79, 130.91 1.16 C139.2 1.52, 133.71 2.44, 132.84 2.86 M51.18 3.23 C62.34 1.17, 80.73 0.23, 94.6 0.16 C108.47 0.09, 122.32 1.51, 134.37 2.8 C146.43 4.08, 158.1 5.44, 166.92 7.85 C175.75 10.25, 183.94 13.59, 187.33 17.24 C190.73 20.89, 190.1 26.16, 187.29 29.74 C184.48 33.33, 178.82 36.19, 170.46 38.73 C162.11 41.28, 149.69 43.37, 137.14 44.99 C124.59 46.61, 108.81 48.31, 95.18 48.46 C81.54 48.61, 67.81 47.25, 55.32 45.9 C42.83 44.55, 28.87 43.11, 20.24 40.37 C11.61 37.64, 6.73 32.8, 3.53 29.51 C0.32 26.23, -1.67 23.93, 1.01 20.65 C3.7 17.36, 10.96 12.8, 19.63 9.79 C28.29 6.79, 47.34 3.84, 53.01 2.6 C58.68 1.37, 53.05 2.22, 53.64 2.38" stroke="#000000" stroke-width="1" fill="none"></path></g><g transform="translate(455.142433944741 110.30088386092956) rotate(0 13.29998779296875 12.5)"><text x="13.29998779296875" y="0" font-family="Virgil, Segoe UI Emoji" font-size="20px" fill="#000000" text-anchor="middle" style="white-space: pre;" direction="ltr" dominant-baseline="text-before-edge">25</text></g><g mask="url(#mask-_1zgSgf-zJwY9ctbWhbb2)" stroke-linecap="round"><g transform="translate(182.507926413608 126.8799583438817) rotate(0 -0.2437374420059939 34.52550826658839)"><path d="M-1.06 -0.44 C-1.16 11.2, -0.43 57.82, -0.61 69.71 M0.58 -1.72 C0.42 10.07, -0.38 58.42, -1 70.77" stroke="#000000" stroke-width="1" fill="none"></path></g><g transform="translate(182.507926413608 126.8799583438817) rotate(0 -0.2437374420059939 34.52550826658839)"><path d="M-11.12 44.03 C-9.14 50.1, -4.36 60.3, -2.56 69.98 M-10.03 41.46 C-7.86 50.89, -5.23 56.66, -1.01 70.33" stroke="#000000" stroke-width="1" fill="none"></path></g><g transform="translate(182.507926413608 126.8799583438817) rotate(0 -0.2437374420059939 34.52550826658839)"><path d="M9.39 44.67 C5.24 50.36, 3.89 60.38, -2.56 69.98 M10.48 42.09 C7.19 51.26, 4.38 56.86, -1.01 70.33" stroke="#000000" stroke-width="1" fill="none"></path></g></g><mask id="mask-_1zgSgf-zJwY9ctbWhbb2"><rect x="0" y="0" fill="#fff" width="284.1733300776474" height="297.5057371999798"></rect><rect x="134.57527188383438" y="149.69284777193076" fill="#000" width="94.19990539550781" height="25" opacity="1"></rect></mask><g transform="translate(134.57527188383438 149.69284777193076) rotate(0 47.688917087767635 11.712618838539328)"><text x="47.099952697753906" y="0" font-family="Virgil, Segoe UI Emoji" font-size="20px" fill="#000000" text-anchor="middle" style="white-space: pre;" direction="ltr" dominant-baseline="text-before-edge">residencia</text></g><g stroke-linecap="round" transform="translate(141.1152037066737 199.25) rotate(0 40 31.5)"><path d="M25.72 3.02 C32.22 0.64, 42.11 -0.23, 49.52 1.05 C56.94 2.32, 65.1 6.02, 70.22 10.67 C75.34 15.32, 79.6 22.67, 80.26 28.97 C80.92 35.26, 78.54 43.04, 74.19 48.45 C69.84 53.87, 61.65 59.09, 54.17 61.46 C46.69 63.82, 36.82 64.47, 29.32 62.65 C21.82 60.82, 14.01 55.41, 9.16 50.53 C4.32 45.66, 0.89 39.57, 0.28 33.39 C-0.34 27.22, 1.1 18.78, 5.5 13.47 C9.89 8.17, 22.57 3.61, 26.66 1.58 C30.75 -0.45, 29.61 0.67, 30.03 1.29 M42.68 -0.55 C50.02 -1.05, 59.51 1.7, 65.5 5.69 C71.49 9.69, 76.51 17.16, 78.63 23.44 C80.74 29.72, 81.1 37.79, 78.21 43.37 C75.32 48.95, 68.11 53.73, 61.26 56.93 C54.42 60.12, 44.7 62.66, 37.11 62.54 C29.52 62.42, 21.77 60.19, 15.73 56.18 C9.7 52.18, 3.29 44.51, 0.92 38.51 C-1.45 32.52, -1.18 25.8, 1.51 20.21 C4.21 14.62, 10.55 8.5, 17.09 4.99 C23.63 1.47, 36.78 -0.1, 40.75 -0.88 C44.71 -1.67, 40.48 -0.33, 40.87 0.26" stroke="#000000" stroke-width="1" fill="none"></path></g><g transform="translate(165.64093764720008 218.47613639262374) rotate(0 15.689994812011719 12.5)"><text x="15.689994812011719" y="0" font-family="Virgil, Segoe UI Emoji" font-size="20px" fill="#000000" text-anchor="middle" style="white-space: pre;" direction="ltr" dominant-baseline="text-before-edge">{ }</text></g><g mask="url(#mask-KTZnf9v6R25phTEOo2wg7)" stroke-linecap="round"><g transform="translate(224.25664093900326 232.28843233675912) rotate(0 74.73773764645955 -1.0817214528529178)"><path d="M-1.06 -0.44 C24.03 -0.68, 125.52 -1.59, 150.54 -1.58 M0.58 -1.72 C25.61 -1.82, 125.57 -0.99, 150.14 -0.52" stroke="#000000" stroke-width="1" fill="none"></path></g><g transform="translate(224.25664093900326 232.28843233675912) rotate(0 74.73773764645955 -1.0817214528529178)"><path d="M121.09 11.14 C128.78 5.9, 139.22 4.63, 148.59 -1.31 M122.18 8.57 C129.17 7.88, 136.83 3.45, 150.14 -0.96" stroke="#000000" stroke-width="1" fill="none"></path></g><g transform="translate(224.25664093900326 232.28843233675912) rotate(0 74.73773764645955 -1.0817214528529178)"><path d="M121.35 -9.38 C128.93 -8.49, 139.3 -3.63, 148.59 -1.31 M122.44 -11.95 C129.47 -7.19, 137.07 -6.17, 150.14 -0.96" stroke="#000000" stroke-width="1" fill="none"></path></g></g><mask id="mask-KTZnf9v6R25phTEOo2wg7"><rect x="0" y="0" fill="#fff" width="473.73796146274015" height="332.95073733184114"></rect><rect x="258.90734300995376" y="219.45727983921813" fill="#000" width="80.17991638183594" height="25" opacity="1"></rect></mask><g transform="translate(258.9073430099537 219.45727983921813) rotate(0 40.087035575509105 11.749431044688066)"><text x="40.08995819091797" y="0" font-family="Virgil, Segoe UI Emoji" font-size="20px" fill="#000000" text-anchor="middle" style="white-space: pre;" direction="ltr" dominant-baseline="text-before-edge">direccion</text></g><g stroke-linecap="round" transform="translate(377.0847191569725 203.25) rotate(0 151.5 32)"><path d="M199.91 2.55 C217.08 3.01, 234.07 4.78, 247.98 6.97 C261.89 9.17, 274.4 12.45, 283.39 15.74 C292.37 19.02, 299.3 22.65, 301.9 26.68 C304.5 30.71, 303.24 36.06, 299 39.93 C294.77 43.79, 286.88 46.66, 276.47 49.84 C266.06 53.02, 251.66 56.62, 236.57 58.99 C221.47 61.37, 203.5 63.28, 185.89 64.1 C168.29 64.92, 149.02 64.76, 130.93 63.93 C112.83 63.1, 93.28 61.13, 77.32 59.15 C61.36 57.17, 46.67 54.86, 35.15 52.05 C23.64 49.24, 14.17 45.89, 8.23 42.28 C2.28 38.68, -1.27 34.21, -0.5 30.42 C0.28 26.64, 5.25 23.16, 12.89 19.56 C20.53 15.96, 32.6 11.59, 45.34 8.82 C58.08 6.04, 72.94 4.43, 89.34 2.92 C105.73 1.4, 124.43 -0.18, 143.69 -0.27 C162.96 -0.36, 193.58 1.92, 204.93 2.38 C216.28 2.84, 212.46 1.88, 211.78 2.47 M158.17 -1.01 C175.68 -1.64, 196.95 -0.38, 213.7 1.4 C230.45 3.19, 245.84 6.86, 258.67 9.72 C271.5 12.58, 283.42 15.28, 290.7 18.55 C297.98 21.82, 301.92 25.45, 302.37 29.33 C302.82 33.21, 299.21 38.1, 293.4 41.83 C287.58 45.57, 279.25 48.67, 267.49 51.76 C255.73 54.84, 238.72 58.48, 222.84 60.34 C206.96 62.19, 190.21 62.22, 172.2 62.88 C154.2 63.54, 132.68 65.02, 114.8 64.3 C96.92 63.57, 79.63 60.92, 64.93 58.52 C50.24 56.12, 36.72 53.24, 26.61 49.9 C16.49 46.55, 8.41 42.42, 4.23 38.45 C0.06 34.49, -1.22 29.71, 1.54 26.12 C4.3 22.53, 11.65 19.92, 20.78 16.92 C29.92 13.92, 42.53 10.55, 56.35 8.13 C70.17 5.71, 86.49 3.93, 103.7 2.43 C120.92 0.93, 150.33 -0.68, 159.65 -0.86 C168.97 -1.04, 159.89 0.77, 159.61 1.36" stroke="#000000" stroke-width="1" fill="none"></path></g><g transform="translate(427.71811260799177 222.62258300203052) rotate(0 100.73992919921875 12.5)"><text x="100.73992919921875" y="0" font-family="Virgil, Segoe UI Emoji" font-size="20px" fill="#000000" text-anchor="middle" style="white-space: pre;" direction="ltr" dominant-baseline="text-before-edge">"Loma Hermosa 240"</text></g><g mask="url(#mask-2LqQMiTZRX-5IpBdEzrQR)" stroke-linecap="round"><g transform="translate(219.97151730705298 251.0208032501942) rotate(0 68.23693662596682 29.74617170103565)"><path d="M-0.08 -0.07 C22.49 10.08, 113.2 50.41, 135.81 60.65 M-1.58 -1.15 C21.33 8.66, 114.82 48.65, 138.06 58.77" stroke="#000000" stroke-width="1" fill="none"></path></g><g transform="translate(219.97151730705298 251.0208032501942) rotate(0 68.23693662596682 29.74617170103565)"><path d="M107.99 55.56 C118.84 55.74, 129.92 56.88, 138.57 57.24 M108.29 57.42 C117.68 57.72, 126.84 58.55, 137.42 58.8" stroke="#000000" stroke-width="1" fill="none"></path></g><g transform="translate(219.97151730705298 251.0208032501942) rotate(0 68.23693662596682 29.74617170103565)"><path d="M116.11 36.72 C124.22 43.15, 132.6 50.57, 138.57 57.24 M116.41 38.58 C123.49 44.48, 130.21 50.97, 137.42 58.8" stroke="#000000" stroke-width="1" fill="none"></path></g></g><mask id="mask-2LqQMiTZRX-5IpBdEzrQR"><rect x="0" y="0" fill="#fff" width="456.66092962575954" height="411.20112013905594"></rect><rect x="257.3762515425781" y="268.610961694625" fill="#000" width="61.87994384765625" height="25" opacity="1"></rect></mask><g transform="translate(257.37625154257813 268.6109616946251) rotate(0 30.832202390441665 12.15601325660478)"><text x="30.939971923828125" y="0" font-family="Virgil, Segoe UI Emoji" font-size="20px" fill="#000000" text-anchor="middle" style="white-space: pre;" direction="ltr" dominant-baseline="text-before-edge">ciudad</text></g><g stroke-linecap="round" transform="translate(357.61756595043187 294.125) rotate(0 95 24.5)"><path d="M125.47 2.16 C138.29 2.65, 151.27 4.33, 160.99 6.54 C170.71 8.75, 178.97 12.17, 183.79 15.41 C188.61 18.66, 191.17 22.28, 189.9 26.02 C188.62 29.76, 183.35 34.73, 176.13 37.86 C168.91 41, 158.22 42.91, 146.58 44.83 C134.95 46.75, 120 48.76, 106.32 49.4 C92.64 50.05, 77.38 49.87, 64.5 48.68 C51.63 47.5, 38.93 45.06, 29.06 42.29 C19.18 39.53, 10 35.52, 5.27 32.09 C0.54 28.65, -0.85 25.06, 0.65 21.69 C2.15 18.31, 7.24 14.83, 14.25 11.85 C21.26 8.88, 31.25 5.69, 42.72 3.83 C54.2 1.96, 68.4 1.12, 83.09 0.67 C97.79 0.23, 122.62 0.79, 130.91 1.16 C139.2 1.52, 133.71 2.44, 132.84 2.86 M51.18 3.23 C62.34 1.17, 80.73 0.23, 94.6 0.16 C108.47 0.09, 122.32 1.51, 134.37 2.8 C146.43 4.08, 158.1 5.44, 166.92 7.85 C175.75 10.25, 183.94 13.59, 187.33 17.24 C190.73 20.89, 190.1 26.16, 187.29 29.74 C184.48 33.33, 178.82 36.19, 170.46 38.73 C162.11 41.28, 149.69 43.37, 137.14 44.99 C124.59 46.61, 108.81 48.31, 95.18 48.46 C81.54 48.61, 67.81 47.25, 55.32 45.9 C42.83 44.55, 28.87 43.11, 20.24 40.37 C11.61 37.64, 6.73 32.8, 3.53 29.51 C0.32 26.23, -1.67 23.93, 1.01 20.65 C3.7 17.36, 10.96 12.8, 19.63 9.79 C28.29 6.79, 47.34 3.84, 53.01 2.6 C58.68 1.37, 53.05 2.22, 53.64 2.38" stroke="#000000" stroke-width="1" fill="none"></path></g><g transform="translate(424.7024391327294 306.3008838609296) rotate(0 27.73998260498047 12.5)"><text x="27.73998260498047" y="0" font-family="Virgil, Segoe UI Emoji" font-size="20px" fill="#000000" text-anchor="middle" style="white-space: pre;" direction="ltr" dominant-baseline="text-before-edge">"Lima"</text></g><g mask="url(#mask-WjcEte1pZ-e0TFfNvrClf)" stroke-linecap="round"><g transform="translate(208.9953154287897 258.9230234825126) rotate(0 37.370122202614 47.840216500492005)"><path d="M-0.08 -0.07 C12.2 16.11, 61.76 80.57, 74.07 96.83 M-1.58 -1.15 C11.04 14.69, 63.37 78.8, 76.32 94.96" stroke="#000000" stroke-width="1" fill="none"></path></g><g transform="translate(208.9953154287897 258.9230234825126) rotate(0 37.370122202614 47.840216500492005)"><path d="M50.49 78.04 C59.9 82.77, 69.57 88.48, 76.83 93.43 M50.79 79.89 C59.01 84.29, 66.89 89.24, 75.69 94.98" stroke="#000000" stroke-width="1" fill="none"></path></g><g transform="translate(208.9953154287897 258.9230234825126) rotate(0 37.370122202614 47.840216500492005)"><path d="M66.44 65.12 C70.52 74.14, 74.88 84.15, 76.83 93.43 M66.74 66.98 C70.25 75.13, 73.34 83.96, 75.69 94.98" stroke="#000000" stroke-width="1" fill="none"></path></g></g><mask id="mask-WjcEte1pZ-e0TFfNvrClf"><rect x="0" y="0" fill="#fff" width="383.9510989007906" height="455.291429970287"></rect><rect x="227.25322883227062" y="294.60722672639974" fill="#000" width="38.43995666503906" height="25" opacity="1"></rect></mask><g transform="translate(227.25322883227062 294.6072267263998) rotate(0 19.11220879913307 12.15601325660478)"><text x="19.21997833251953" y="0" font-family="Virgil, Segoe UI Emoji" font-size="20px" fill="#000000" text-anchor="middle" style="white-space: pre;" direction="ltr" dominant-baseline="text-before-edge">pais</text></g><g stroke-linecap="round" transform="translate(248.61756595043187 352.125) rotate(0 95 24.5)"><path d="M125.47 2.16 C138.29 2.65, 151.27 4.33, 160.99 6.54 C170.71 8.75, 178.97 12.17, 183.79 15.41 C188.61 18.66, 191.17 22.28, 189.9 26.02 C188.62 29.76, 183.35 34.73, 176.13 37.86 C168.91 41, 158.22 42.91, 146.58 44.83 C134.95 46.75, 120 48.76, 106.32 49.4 C92.64 50.05, 77.38 49.87, 64.5 48.68 C51.63 47.5, 38.93 45.06, 29.06 42.29 C19.18 39.53, 10 35.52, 5.27 32.09 C0.54 28.65, -0.85 25.06, 0.65 21.69 C2.15 18.31, 7.24 14.83, 14.25 11.85 C21.26 8.88, 31.25 5.69, 42.72 3.83 C54.2 1.96, 68.4 1.12, 83.09 0.67 C97.79 0.23, 122.62 0.79, 130.91 1.16 C139.2 1.52, 133.71 2.44, 132.84 2.86 M51.18 3.23 C62.34 1.17, 80.73 0.23, 94.6 0.16 C108.47 0.09, 122.32 1.51, 134.37 2.8 C146.43 4.08, 158.1 5.44, 166.92 7.85 C175.75 10.25, 183.94 13.59, 187.33 17.24 C190.73 20.89, 190.1 26.16, 187.29 29.74 C184.48 33.33, 178.82 36.19, 170.46 38.73 C162.11 41.28, 149.69 43.37, 137.14 44.99 C124.59 46.61, 108.81 48.31, 95.18 48.46 C81.54 48.61, 67.81 47.25, 55.32 45.9 C42.83 44.55, 28.87 43.11, 20.24 40.37 C11.61 37.64, 6.73 32.8, 3.53 29.51 C0.32 26.23, -1.67 23.93, 1.01 20.65 C3.7 17.36, 10.96 12.8, 19.63 9.79 C28.29 6.79, 47.34 3.84, 53.01 2.6 C58.68 1.37, 53.05 2.22, 53.64 2.38" stroke="#000000" stroke-width="1" fill="none"></path></g><g transform="translate(314.822449508706 364.3008838609296) rotate(0 28.619972229003906 12.5)"><text x="28.619972229003906" y="0" font-family="Virgil, Segoe UI Emoji" font-size="20px" fill="#000000" text-anchor="middle" style="white-space: pre;" direction="ltr" dominant-baseline="text-before-edge">"Peru"</text></g><g stroke-linecap="round" transform="translate(977.8253969964279 38.47111252107976) rotate(0 62 23.5)"><path d="M11.75 0 M11.75 0 C40.96 1.14, 70.18 0.6, 112.25 0 M11.75 0 C43.38 -0.04, 74.97 -1.39, 112.25 0 M112.25 0 C121.52 1.87, 125.71 2.51, 124 11.75 M112.25 0 C121.82 1.31, 121.82 3.08, 124 11.75 M124 11.75 C123.97 17.26, 123.33 25.98, 124 35.25 M124 11.75 C123.1 17.23, 123.68 22.53, 124 35.25 M124 35.25 C125.66 44.2, 119.52 46.47, 112.25 47 M124 35.25 C123.97 42.79, 118.05 46.16, 112.25 47 M112.25 47 C73.72 47.53, 32.72 45.82, 11.75 47 M112.25 47 C85.9 45.72, 58.71 47.53, 11.75 47 M11.75 47 C3.94 45.39, -0.01 42.21, 0 35.25 M11.75 47 C2.97 45.19, -1.44 43.8, 0 35.25 M0 35.25 C-1.09 27.8, 1.87 16.75, 0 11.75 M0 35.25 C0.94 26.83, 0.28 20.8, 0 11.75 M0 11.75 C-1.6 3.88, 2.22 -1.98, 11.75 0 M0 11.75 C0.73 1.94, 5.36 -0.43, 11.75 0" stroke="#000000" stroke-width="1" fill="none"></path></g><g transform="translate(1006.3954195794357 49.47111252107976) rotate(0 33.42997741699219 12.5)"><text x="33.42997741699219" y="0" font-family="Virgil, Segoe UI Emoji" font-size="20px" fill="#000000" text-anchor="middle" style="white-space: pre;" direction="ltr" dominant-baseline="text-before-edge">sandra</text></g><g stroke-linecap="round"><g transform="translate(990.3292749970557 87.47111252107976) rotate(0 -14.459654198983912 6.620497442328102)"><path d="M-1.06 -0.44 C-5.91 1.9, -24.18 11.31, -29.11 13.9 M0.58 -1.72 C-4.33 0.76, -24.13 11.91, -29.5 14.96" stroke="#000000" stroke-width="1" fill="none"></path></g><g transform="translate(990.3292749970557 87.47111252107976) rotate(0 -14.459654198983912 6.620497442328102)"><path d="M-19.19 3.67 C-23.14 5.26, -24.74 10.5, -30.81 14.29 M-18.27 1.51 C-21.51 6.38, -24.3 8.25, -29.51 14.59" stroke="#000000" stroke-width="1" fill="none"></path></g><g transform="translate(990.3292749970557 87.47111252107976) rotate(0 -14.459654198983912 6.620497442328102)"><path d="M-13.54 13.69 C-19.17 12.23, -22.45 14.47, -30.81 14.29 M-12.63 11.52 C-17.42 13.7, -21.71 12.92, -29.51 14.59" stroke="#000000" stroke-width="1" fill="none"></path></g></g><mask></mask><g stroke-linecap="round" transform="translate(883.8347191569725 89.26255863417555) rotate(0 40 31.5)"><path d="M25.72 3.02 C32.22 0.64, 42.11 -0.23, 49.52 1.05 C56.94 2.32, 65.1 6.02, 70.22 10.67 C75.34 15.32, 79.6 22.67, 80.26 28.97 C80.92 35.26, 78.54 43.04, 74.19 48.45 C69.84 53.87, 61.65 59.09, 54.17 61.46 C46.69 63.82, 36.82 64.47, 29.32 62.65 C21.82 60.82, 14.01 55.41, 9.16 50.53 C4.32 45.66, 0.89 39.57, 0.28 33.39 C-0.34 27.22, 1.1 18.78, 5.5 13.47 C9.89 8.17, 22.57 3.61, 26.66 1.58 C30.75 -0.45, 29.61 0.67, 30.03 1.29 M42.68 -0.55 C50.02 -1.05, 59.51 1.7, 65.5 5.69 C71.49 9.69, 76.51 17.16, 78.63 23.44 C80.74 29.72, 81.1 37.79, 78.21 43.37 C75.32 48.95, 68.11 53.73, 61.26 56.93 C54.42 60.12, 44.7 62.66, 37.11 62.54 C29.52 62.42, 21.77 60.19, 15.73 56.18 C9.7 52.18, 3.29 44.51, 0.92 38.51 C-1.45 32.52, -1.18 25.8, 1.51 20.21 C4.21 14.62, 10.55 8.5, 17.09 4.99 C23.63 1.47, 36.78 -0.1, 40.75 -0.88 C44.71 -1.67, 40.48 -0.33, 40.87 0.26" stroke="#000000" stroke-width="1" fill="none"></path></g><g transform="translate(908.3604530974989 108.48869502679929) rotate(0 15.689994812011719 12.5)"><text x="15.689994812011719" y="0" font-family="Virgil, Segoe UI Emoji" font-size="20px" fill="#000000" text-anchor="middle" style="white-space: pre;" direction="ltr" dominant-baseline="text-before-edge">{ }</text></g><g mask="url(#mask-98lcarKpR4mMNgTWejPPo)" stroke-linecap="round"><g transform="translate(887.3954495530112 105.86515948020042) rotate(0 -69.15489908967294 -24.868155697910865)"><path d="M-0.08 -0.07 C-23.19 -7.99, -115.16 -39.95, -138.23 -47.79 M-1.58 -1.15 C-24.35 -9.41, -113.54 -41.71, -135.98 -49.67" stroke="#000000" stroke-width="1" fill="none"></path></g><g transform="translate(887.3954495530112 105.86515948020042) rotate(0 -69.15489908967294 -24.868155697910865)"><path d="M-106.1 -51.27 C-115.18 -51.67, -124.05 -51.06, -135.47 -51.19 M-105.8 -49.41 C-114.43 -50.07, -123.3 -49.72, -136.61 -49.64" stroke="#000000" stroke-width="1" fill="none"></path></g><g transform="translate(887.3954495530112 105.86515948020042) rotate(0 -69.15489908967294 -24.868155697910865)"><path d="M-113.03 -31.95 C-119.77 -38.78, -126.32 -44.59, -135.47 -51.19 M-112.73 -30.1 C-119.41 -36.5, -126.19 -41.96, -136.61 -49.64" stroke="#000000" stroke-width="1" fill="none"></path></g></g><mask id="mask-98lcarKpR4mMNgTWejPPo"><rect x="0" y="0" fill="#fff" width="1124.7423920774022" height="254.11783183929782"></rect><rect x="787.3320094187454" y="69.23882330065169" fill="#000" width="62.779937744140625" height="25" opacity="1"></rect></mask><g transform="translate(787.3320094187454 69.23882330065175) rotate(0 30.908541044592823 11.758180481637837)"><text x="31.389968872070312" y="0" font-family="Virgil, Segoe UI Emoji" font-size="20px" fill="#000000" text-anchor="middle" style="white-space: pre;" direction="ltr" dominant-baseline="text-before-edge">nombre</text></g><g stroke-linecap="round" transform="translate(592.8347191569725 10.262558634175548) rotate(0 95 24.5)"><path d="M125.47 2.16 C138.29 2.65, 151.27 4.33, 160.99 6.54 C170.71 8.75, 178.97 12.17, 183.79 15.41 C188.61 18.66, 191.17 22.28, 189.9 26.02 C188.62 29.76, 183.35 34.73, 176.13 37.86 C168.91 41, 158.22 42.91, 146.58 44.83 C134.95 46.75, 120 48.76, 106.32 49.4 C92.64 50.05, 77.38 49.87, 64.5 48.68 C51.63 47.5, 38.93 45.06, 29.06 42.29 C19.18 39.53, 10 35.52, 5.27 32.09 C0.54 28.65, -0.85 25.06, 0.65 21.69 C2.15 18.31, 7.24 14.83, 14.25 11.85 C21.26 8.88, 31.25 5.69, 42.72 3.83 C54.2 1.96, 68.4 1.12, 83.09 0.67 C97.79 0.23, 122.62 0.79, 130.91 1.16 C139.2 1.52, 133.71 2.44, 132.84 2.86 M51.18 3.23 C62.34 1.17, 80.73 0.23, 94.6 0.16 C108.47 0.09, 122.32 1.51, 134.37 2.8 C146.43 4.08, 158.1 5.44, 166.92 7.85 C175.75 10.25, 183.94 13.59, 187.33 17.24 C190.73 20.89, 190.1 26.16, 187.29 29.74 C184.48 33.33, 178.82 36.19, 170.46 38.73 C162.11 41.28, 149.69 43.37, 137.14 44.99 C124.59 46.61, 108.81 48.31, 95.18 48.46 C81.54 48.61, 67.81 47.25, 55.32 45.9 C42.83 44.55, 28.87 43.11, 20.24 40.37 C11.61 37.64, 6.73 32.8, 3.53 29.51 C0.32 26.23, -1.67 23.93, 1.01 20.65 C3.7 17.36, 10.96 12.8, 19.63 9.79 C28.29 6.79, 47.34 3.84, 53.01 2.6 C58.68 1.37, 53.05 2.22, 53.64 2.38" stroke="#000000" stroke-width="1" fill="none"></path></g><g transform="translate(647.0195984427857 22.438442495105164) rotate(0 40.639976501464844 12.5)"><text x="40.639976501464844" y="0" font-family="Virgil, Segoe UI Emoji" font-size="20px" fill="#000000" text-anchor="middle" style="white-space: pre;" direction="ltr" dominant-baseline="text-before-edge">"Sandra"</text></g><g mask="url(#mask-vcmx0seLwkeBu7gpWD4QO)" stroke-linecap="round"><g transform="translate(880.2448620007002 124.24534522239793) rotate(0 -157.48624927108898 0.7140762636920783)"><path d="M-0.08 -0.07 C-52.63 0.41, -262.38 2.03, -314.89 2.58 M-1.58 -1.15 C-53.79 -1.02, -260.76 0.26, -312.64 0.7" stroke="#000000" stroke-width="1" fill="none"></path></g><g transform="translate(880.2448620007002 124.24534522239793) rotate(0 -157.48624927108898 0.7140762636920783)"><path d="M-284.64 -11.23 C-293.13 -8.19, -301.36 -4.14, -312.13 -0.83 M-284.34 -9.37 C-292.34 -6.91, -300.64 -3.45, -313.28 0.73" stroke="#000000" stroke-width="1" fill="none"></path></g><g transform="translate(880.2448620007002 124.24534522239793) rotate(0 -157.48624927108898 0.7140762636920783)"><path d="M-284.5 9.29 C-292.98 5.5, -301.27 2.73, -312.13 -0.83 M-284.2 11.15 C-292.38 7.44, -300.72 4.73, -313.28 0.73" stroke="#000000" stroke-width="1" fill="none"></path></g></g><mask id="mask-vcmx0seLwkeBu7gpWD4QO"><rect x="0" y="0" fill="#fff" width="1294.2545048879233" height="226.36147123657253"></rect><rect x="699.7200591728113" y="112.80340822948523" fill="#000" width="47.03996276855469" height="25" opacity="1"></rect></mask><g transform="translate(699.7200591728115 112.80340822948523) rotate(0 23.038553556799855 12.15601325660478)"><text x="23.519981384277344" y="0" font-family="Virgil, Segoe UI Emoji" font-size="20px" fill="#000000" text-anchor="middle" style="white-space: pre;" direction="ltr" dominant-baseline="text-before-edge">edad</text></g><g mask="url(#mask-x0HXxbIXpwRqkO95QOvUZ)" stroke-linecap="round"><g transform="translate(922.0553666326699 156.84266439988875) rotate(0 -0.2390617781015294 63.82804967158967)"><path d="M-1.06 -0.44 C-1.07 20.97, 0.03 106.66, -0.06 128.32 M0.58 -1.72 C0.51 19.83, 0.08 107.26, -0.45 129.37" stroke="#000000" stroke-width="1" fill="none"></path></g><g transform="translate(922.0553666326699 156.84266439988875) rotate(0 -0.2390617781015294 63.82804967158967)"><path d="M-11.08 102.81 C-8.95 108.83, -4.01 118.98, -2.01 128.58 M-9.99 100.23 C-7.69 109.62, -4.92 115.35, -0.46 128.94" stroke="#000000" stroke-width="1" fill="none"></path></g><g transform="translate(922.0553666326699 156.84266439988875) rotate(0 -0.2390617781015294 63.82804967158967)"><path d="M9.44 103.08 C5.44 108.84, 4.24 118.91, -2.01 128.58 M10.53 100.5 C7.38 109.72, 4.69 115.37, -0.46 128.94" stroke="#000000" stroke-width="1" fill="none"></path></g></g><mask id="mask-x0HXxbIXpwRqkO95QOvUZ"><rect x="0" y="0" fill="#fff" width="1023.168450981149" height="386.0735260659894"></rect><rect x="874.3988717606765" y="208.958095232939" fill="#000" width="94.19990539550781" height="25" opacity="1"></rect></mask><g transform="translate(874.3988717606765 208.95809523293906) rotate(0 47.41743309389193 11.712618838539356)"><text x="47.099952697753906" y="0" font-family="Virgil, Segoe UI Emoji" font-size="20px" fill="#000000" text-anchor="middle" style="white-space: pre;" direction="ltr" dominant-baseline="text-before-edge">residencia</text></g><g stroke-linecap="round" transform="translate(884.3652037066737 291.9185173166585) rotate(0 40 31.5)"><path d="M25.72 3.02 C32.22 0.64, 42.11 -0.23, 49.52 1.05 C56.94 2.32, 65.1 6.02, 70.22 10.67 C75.34 15.32, 79.6 22.67, 80.26 28.97 C80.92 35.26, 78.54 43.04, 74.19 48.45 C69.84 53.87, 61.65 59.09, 54.17 61.46 C46.69 63.82, 36.82 64.47, 29.32 62.65 C21.82 60.82, 14.01 55.41, 9.16 50.53 C4.32 45.66, 0.89 39.57, 0.28 33.39 C-0.34 27.22, 1.1 18.78, 5.5 13.47 C9.89 8.17, 22.57 3.61, 26.66 1.58 C30.75 -0.45, 29.61 0.67, 30.03 1.29 M42.68 -0.55 C50.02 -1.05, 59.51 1.7, 65.5 5.69 C71.49 9.69, 76.51 17.16, 78.63 23.44 C80.74 29.72, 81.1 37.79, 78.21 43.37 C75.32 48.95, 68.11 53.73, 61.26 56.93 C54.42 60.12, 44.7 62.66, 37.11 62.54 C29.52 62.42, 21.77 60.19, 15.73 56.18 C9.7 52.18, 3.29 44.51, 0.92 38.51 C-1.45 32.52, -1.18 25.8, 1.51 20.21 C4.21 14.62, 10.55 8.5, 17.09 4.99 C23.63 1.47, 36.78 -0.1, 40.75 -0.88 C44.71 -1.67, 40.48 -0.33, 40.87 0.26" stroke="#000000" stroke-width="1" fill="none"></path></g><g transform="translate(908.8909376472001 311.14465370928224) rotate(0 15.689994812011719 12.5)"><text x="15.689994812011719" y="0" font-family="Virgil, Segoe UI Emoji" font-size="20px" fill="#000000" text-anchor="middle" style="white-space: pre;" direction="ltr" dominant-baseline="text-before-edge">{ }</text></g><g mask="url(#mask-aclRBIDHrEMz6IT36pE1w)" stroke-linecap="round"><g transform="translate(879.9655458242061 309.1790290942164) rotate(0 -110.49414362727589 -26.524695720768847)"><path d="M-1.06 -0.44 C-37.92 -9.18, -184.24 -44.11, -221.18 -52.61 M0.58 -1.72 C-36.34 -10.32, -184.19 -43.51, -221.57 -51.55" stroke="#000000" stroke-width="1" fill="none"></path></g><g transform="translate(879.9655458242061 309.1790290942164) rotate(0 -110.49414362727589 -26.524695720768847)"><path d="M-192.56 -53.74 C-202.25 -55.36, -209.16 -52.49, -223.12 -52.34 M-191.48 -56.32 C-199.84 -53.59, -207.6 -54.34, -221.58 -51.99" stroke="#000000" stroke-width="1" fill="none"></path></g><g transform="translate(879.9655458242061 309.1790290942164) rotate(0 -110.49414362727589 -26.524695720768847)"><path d="M-196.99 -33.7 C-205.33 -41.27, -210.91 -44.39, -223.12 -52.34 M-195.9 -36.28 C-203.2 -38.85, -209.79 -44.93, -221.58 -51.99" stroke="#000000" stroke-width="1" fill="none"></path></g></g><mask id="mask-aclRBIDHrEMz6IT36pE1w"><rect x="0" y="0" fill="#fff" width="1202.197734908794" height="460.8732837299813"></rect><rect x="728.759493090994" y="270.8319017763339" fill="#000" width="80.17991638183594" height="25" opacity="1"></rect></mask><g transform="translate(728.7594930909942 270.83190177633384) rotate(0 40.711909105936 11.822431597113649)"><text x="40.08995819091797" y="0" font-family="Virgil, Segoe UI Emoji" font-size="20px" fill="#000000" text-anchor="middle" style="white-space: pre;" direction="ltr" dominant-baseline="text-before-edge">direccion</text></g><g mask="url(#mask-olQy0DxnYpnFzJRrwHi_m)" stroke-linecap="round"><g transform="translate(880.4240801833772 321.70776680934625) rotate(0 -164.67921106832978 -0.5578887121142486)"><path d="M-0.08 -0.07 C-55.03 0.04, -274.37 0.2, -329.28 0.39 M-1.58 -1.15 C-56.19 -1.38, -272.75 -1.57, -327.03 -1.49" stroke="#000000" stroke-width="1" fill="none"></path></g><g transform="translate(880.4240801833772 321.70776680934625) rotate(0 -164.67921106832978 -0.5578887121142486)"><path d="M-298.95 -13.22 C-307.46 -10.25, -315.73 -6.27, -326.52 -3.02 M-298.66 -11.36 C-306.68 -8.96, -315 -5.57, -327.66 -1.46" stroke="#000000" stroke-width="1" fill="none"></path></g><g transform="translate(880.4240801833772 321.70776680934625) rotate(0 -164.67921106832978 -0.5578887121142486)"><path d="M-298.95 7.3 C-307.42 3.44, -315.68 0.6, -326.52 -3.02 M-298.65 9.16 C-306.82 5.39, -315.14 2.62, -327.66 -1.46" stroke="#000000" stroke-width="1" fill="none"></path></g></g><mask id="mask-olQy0DxnYpnFzJRrwHi_m"><rect x="0" y="0" fill="#fff" width="1308.8196466650818" height="421.7826397188293"></rect><rect x="685.286325018697" y="309.17033035460474" fill="#000" width="61.87994384765625" height="25" opacity="1"></rect></mask><g transform="translate(685.2863250186969 309.17033035460474) rotate(0 30.45854409635058 11.979547742627261)"><text x="30.939971923828125" y="0" font-family="Virgil, Segoe UI Emoji" font-size="20px" fill="#000000" text-anchor="middle" style="white-space: pre;" direction="ltr" dominant-baseline="text-before-edge">ciudad</text></g><g mask="url(#mask-fH824SD0At41I4N_SxxXM)" stroke-linecap="round"><g transform="translate(880.0990490382334 335.9515433948844) rotate(0 -218.09733958371794 20.87864358084005)"><path d="M-0.08 -0.07 C-72.83 7.13, -363.4 35.64, -436.11 42.91 M-1.58 -1.15 C-73.99 5.7, -361.78 33.87, -433.86 41.03" stroke="#000000" stroke-width="1" fill="none"></path></g><g transform="translate(880.0990490382334 335.9515433948844) rotate(0 -218.09733958371794 20.87864358084005)"><path d="M-406.93 26.59 C-415.07 30.46, -422.95 35.35, -433.36 39.5 M-406.63 28.45 C-414.3 31.67, -422.27 35.88, -434.5 41.06" stroke="#000000" stroke-width="1" fill="none"></path></g><g transform="translate(880.0990490382334 335.9515433948844) rotate(0 -218.09733958371794 20.87864358084005)"><path d="M-404.92 47.01 C-413.68 44.09, -422.23 42.18, -433.36 39.5 M-404.62 48.87 C-413.03 45.94, -421.61 44.01, -434.5 41.06" stroke="#000000" stroke-width="1" fill="none"></path></g></g><mask id="mask-fH824SD0At41I4N_SxxXM"><rect x="0" y="0" fill="#fff" width="1415.3308725507143" height="478.396804043355"></rect><rect x="643.2631589494736" y="344.6741737191197" fill="#000" width="38.43995666503906" height="25" opacity="1"></rect></mask><g transform="translate(643.2631589494736 344.6741737191197) rotate(0 18.738550505041985 12.156013256604751)"><text x="19.21997833251953" y="0" font-family="Virgil, Segoe UI Emoji" font-size="20px" fill="#000000" text-anchor="middle" style="white-space: pre;" direction="ltr" dominant-baseline="text-before-edge">pais</text></g></svg>