<svg version="1.1" xmlns="http://www.w3.org/2000/svg" viewBox="0 0 694.7768949003289 328.07142857142844" width="694.7768949003289" height="328.07142857142844">
  <!-- svg-source:excalidraw -->
  
  <defs>
    <style class="style-fonts">
      @font-face {
        font-family: "Virgil";
        src: url("https://unpkg.com/@excalidraw/excalidraw@0.15.3/dist/excalidraw-assets/Virgil.woff2");
      }
      @font-face {
        font-family: "Cascadia";
        src: url("https://unpkg.com/@excalidraw/excalidraw@0.15.3/dist/excalidraw-assets/Cascadia.woff2");
      }
    </style>
  </defs>
  <rect x="0" y="0" width="694.7768949003289" height="328.07142857142844" fill="#ffffff"></rect><g stroke-linecap="round" transform="translate(10 11) rotate(0 62 23.5)"><path d="M11.75 0 M11.75 0 C40.96 1.14, 70.18 0.6, 112.25 0 M11.75 0 C43.38 -0.04, 74.97 -1.39, 112.25 0 M112.25 0 C121.52 1.87, 125.71 2.51, 124 11.75 M112.25 0 C121.82 1.31, 121.82 3.08, 124 11.75 M124 11.75 C123.97 17.26, 123.33 25.98, 124 35.25 M124 11.75 C123.1 17.23, 123.68 22.53, 124 35.25 M124 35.25 C125.66 44.2, 119.52 46.47, 112.25 47 M124 35.25 C123.97 42.79, 118.05 46.16, 112.25 47 M112.25 47 C73.72 47.53, 32.72 45.82, 11.75 47 M112.25 47 C85.9 45.72, 58.71 47.53, 11.75 47 M11.75 47 C3.94 45.39, -0.01 42.21, 0 35.25 M11.75 47 C2.97 45.19, -1.44 43.8, 0 35.25 M0 35.25 C-1.09 27.8, 1.87 16.75, 0 11.75 M0 35.25 C0.94 26.83, 0.28 20.8, 0 11.75 M0 11.75 C-1.6 3.88, 2.22 -1.98, 11.75 0 M0 11.75 C0.73 1.94, 5.36 -0.43, 11.75 0" stroke="#000000" stroke-width="1" fill="none"></path></g><g transform="translate(39.4100341796875 22) rotate(0 32.5899658203125 12.5)"><text x="32.5899658203125" y="0" font-family="Virgil, Segoe UI Emoji" font-size="20px" fill="#000000" text-anchor="middle" style="white-space: pre;" direction="ltr" dominant-baseline="text-before-edge">frutas</text></g><g stroke-linecap="round"><g transform="translate(136 36.49344398801486) rotate(0 54.98338516142721 0.4855949073825059)"><path d="M-1.06 -0.44 C17.45 -0.14, 92.6 1.09, 111.03 1.63 M0.58 -1.72 C19.03 -1.28, 92.65 1.69, 110.63 2.69" stroke="#000000" stroke-width="1" fill="none"></path></g><g transform="translate(136 36.49344398801486) rotate(0 54.98338516142721 0.4855949073825059)"><path d="M81.27 13.39 C89.04 8.44, 99.58 7.45, 109.08 1.9 M82.35 10.81 C89.43 10.39, 97.18 6.21, 110.63 2.25" stroke="#000000" stroke-width="1" fill="none"></path></g><g transform="translate(136 36.49344398801486) rotate(0 54.98338516142721 0.4855949073825059)"><path d="M82.22 -7.11 C89.68 -5.94, 99.94 -0.8, 109.08 1.9 M83.31 -9.69 C90.24 -4.67, 97.74 -3.4, 110.63 2.25" stroke="#000000" stroke-width="1" fill="none"></path></g></g><mask></mask><g stroke-linecap="round" transform="translate(249 10) rotate(0 40 31.5)"><path d="M25.72 3.02 C32.22 0.64, 42.11 -0.23, 49.52 1.05 C56.94 2.32, 65.1 6.02, 70.22 10.67 C75.34 15.32, 79.6 22.67, 80.26 28.97 C80.92 35.26, 78.54 43.04, 74.19 48.45 C69.84 53.87, 61.65 59.09, 54.17 61.46 C46.69 63.82, 36.82 64.47, 29.32 62.65 C21.82 60.82, 14.01 55.41, 9.16 50.53 C4.32 45.66, 0.89 39.57, 0.28 33.39 C-0.34 27.22, 1.1 18.78, 5.5 13.47 C9.89 8.17, 22.57 3.61, 26.66 1.58 C30.75 -0.45, 29.61 0.67, 30.03 1.29 M42.68 -0.55 C50.02 -1.05, 59.51 1.7, 65.5 5.69 C71.49 9.69, 76.51 17.16, 78.63 23.44 C80.74 29.72, 81.1 37.79, 78.21 43.37 C75.32 48.95, 68.11 53.73, 61.26 56.93 C54.42 60.12, 44.7 62.66, 37.11 62.54 C29.52 62.42, 21.77 60.19, 15.73 56.18 C9.7 52.18, 3.29 44.51, 0.92 38.51 C-1.45 32.52, -1.18 25.8, 1.51 20.21 C4.21 14.62, 10.55 8.5, 17.09 4.99 C23.63 1.47, 36.78 -0.1, 40.75 -0.88 C44.71 -1.67, 40.48 -0.33, 40.87 0.26" stroke="#000000" stroke-width="1" fill="none"></path></g><g transform="translate(274.30573271982325 29.226136392623857) rotate(0 14.909996032714844 12.5)"><text x="14.909996032714844" y="0" font-family="Virgil, Segoe UI Emoji" font-size="20px" fill="#000000" text-anchor="middle" style="white-space: pre;" direction="ltr" dominant-baseline="text-before-edge">[ ]</text></g><g stroke-linecap="round" transform="translate(494.7768949003289 93.05500588495056) rotate(0 95 24.5)"><path d="M125.47 2.16 C138.29 2.65, 151.27 4.33, 160.99 6.54 C170.71 8.75, 178.97 12.17, 183.79 15.41 C188.61 18.66, 191.17 22.28, 189.9 26.02 C188.62 29.76, 183.35 34.73, 176.13 37.86 C168.91 41, 158.22 42.91, 146.58 44.83 C134.95 46.75, 120 48.76, 106.32 49.4 C92.64 50.05, 77.38 49.87, 64.5 48.68 C51.63 47.5, 38.93 45.06, 29.06 42.29 C19.18 39.53, 10 35.52, 5.27 32.09 C0.54 28.65, -0.85 25.06, 0.65 21.69 C2.15 18.31, 7.24 14.83, 14.25 11.85 C21.26 8.88, 31.25 5.69, 42.72 3.83 C54.2 1.96, 68.4 1.12, 83.09 0.67 C97.79 0.23, 122.62 0.79, 130.91 1.16 C139.2 1.52, 133.71 2.44, 132.84 2.86 M51.18 3.23 C62.34 1.17, 80.73 0.23, 94.6 0.16 C108.47 0.09, 122.32 1.51, 134.37 2.8 C146.43 4.08, 158.1 5.44, 166.92 7.85 C175.75 10.25, 183.94 13.59, 187.33 17.24 C190.73 20.89, 190.1 26.16, 187.29 29.74 C184.48 33.33, 178.82 36.19, 170.46 38.73 C162.11 41.28, 149.69 43.37, 137.14 44.99 C124.59 46.61, 108.81 48.31, 95.18 48.46 C81.54 48.61, 67.81 47.25, 55.32 45.9 C42.83 44.55, 28.87 43.11, 20.24 40.37 C11.61 37.64, 6.73 32.8, 3.53 29.51 C0.32 26.23, -1.67 23.93, 1.01 20.65 C3.7 17.36, 10.96 12.8, 19.63 9.79 C28.29 6.79, 47.34 3.84, 53.01 2.6 C58.68 1.37, 53.05 2.22, 53.64 2.38" stroke="#000000" stroke-width="1" fill="none"></path></g><g transform="translate(541.6417744913178 105.23088974588018) rotate(0 47.95997619628906 12.5)"><text x="47.95997619628906" y="0" font-family="Virgil, Segoe UI Emoji" font-size="20px" fill="#000000" text-anchor="middle" style="white-space: pre;" direction="ltr" dominant-baseline="text-before-edge">"manzana"</text></g><g mask="url(#mask-8_f9Wld-BeyOmkDTmPf72)" stroke-linecap="round"><g transform="translate(330.9027805124808 34.955850170967096) rotate(0 81.70103689479936 1.6843394117557864)"><path d="M-0.08 -0.07 C26.98 0.73, 135.64 3.64, 162.74 4.52 M-1.58 -1.15 C25.81 -0.69, 137.26 1.88, 164.99 2.64" stroke="#000000" stroke-width="1" fill="none"></path></g><g transform="translate(330.9027805124808 34.955850170967096) rotate(0 81.70103689479936 1.6843394117557864)"><path d="M136.43 10.73 C146.81 7.15, 157.38 4.54, 165.49 1.12 M136.73 12.59 C145.59 9.49, 154.3 6.92, 164.35 2.67" stroke="#000000" stroke-width="1" fill="none"></path></g><g transform="translate(330.9027805124808 34.955850170967096) rotate(0 81.70103689479936 1.6843394117557864)"><path d="M136.94 -9.78 C147.1 -6.54, 157.51 -2.33, 165.49 1.12 M137.24 -7.93 C146.09 -4.87, 154.64 -1.26, 164.35 2.67" stroke="#000000" stroke-width="1" fill="none"></path></g></g><mask id="mask-8_f9Wld-BeyOmkDTmPf72"><rect x="0" y="0" fill="#fff" width="594.5203933688524" height="139.01250248126917"></rect><rect x="405.8315896872486" y="24.48417632611813" fill="#000" width="13.759994506835938" height="25" opacity="1"></rect></mask><g transform="translate(405.83158968724865 24.48417632611813) rotate(0 6.7722277200315375 12.156013256604751)"><text x="6.879997253417969" y="0" font-family="Virgil, Segoe UI Emoji" font-size="20px" fill="#000000" text-anchor="middle" style="white-space: pre;" direction="ltr" dominant-baseline="text-before-edge">0</text></g><g mask="url(#mask-Q4TpU-OYG1Lb0xpiOWeQt)" stroke-linecap="round"><g transform="translate(329.9727580298618 47.716592488442984) rotate(0 87.60767151728143 26.423039913370417)"><path d="M-0.08 -0.07 C28.94 8.97, 145.49 44.88, 174.55 54 M-1.58 -1.15 C27.78 7.55, 147.1 43.11, 176.8 52.12" stroke="#000000" stroke-width="1" fill="none"></path></g><g transform="translate(329.9727580298618 47.716592488442984) rotate(0 87.60767151728143 26.423039913370417)"><path d="M146.73 52.37 C157.59 51.39, 168.67 51.39, 177.31 50.59 M147.03 54.23 C156.4 53.49, 165.56 53.29, 176.16 52.15" stroke="#000000" stroke-width="1" fill="none"></path></g><g transform="translate(329.9727580298618 47.716592488442984) rotate(0 87.60767151728143 26.423039913370417)"><path d="M152.63 32.72 C161.49 38.27, 170.6 44.81, 177.31 50.59 M152.93 34.58 C160.66 39.7, 168.05 45.4, 176.16 52.15" stroke="#000000" stroke-width="1" fill="none"></path></g></g><mask id="mask-Q4TpU-OYG1Lb0xpiOWeQt"><rect x="0" y="0" fill="#fff" width="605.4036401311976" height="201.25064580197431"></rect><rect x="414.978199996057" y="61.98361914520865" fill="#000" width="5.4199981689453125" height="25" opacity="1"></rect></mask><g transform="translate(414.978199996057 61.98361914520865) rotate(0 2.6022295510861966 12.156013256604751)"><text x="2.7099990844726562" y="0" font-family="Virgil, Segoe UI Emoji" font-size="20px" fill="#000000" text-anchor="middle" style="white-space: pre;" direction="ltr" dominant-baseline="text-before-edge">1</text></g><g stroke-linecap="round" transform="translate(494.7768949003289 17.68000588495056) rotate(0 95 24.5)"><path d="M125.47 2.16 C138.29 2.65, 151.27 4.33, 160.99 6.54 C170.71 8.75, 178.97 12.17, 183.79 15.41 C188.61 18.66, 191.17 22.28, 189.9 26.02 C188.62 29.76, 183.35 34.73, 176.13 37.86 C168.91 41, 158.22 42.91, 146.58 44.83 C134.95 46.75, 120 48.76, 106.32 49.4 C92.64 50.05, 77.38 49.87, 64.5 48.68 C51.63 47.5, 38.93 45.06, 29.06 42.29 C19.18 39.53, 10 35.52, 5.27 32.09 C0.54 28.65, -0.85 25.06, 0.65 21.69 C2.15 18.31, 7.24 14.83, 14.25 11.85 C21.26 8.88, 31.25 5.69, 42.72 3.83 C54.2 1.96, 68.4 1.12, 83.09 0.67 C97.79 0.23, 122.62 0.79, 130.91 1.16 C139.2 1.52, 133.71 2.44, 132.84 2.86 M51.18 3.23 C62.34 1.17, 80.73 0.23, 94.6 0.16 C108.47 0.09, 122.32 1.51, 134.37 2.8 C146.43 4.08, 158.1 5.44, 166.92 7.85 C175.75 10.25, 183.94 13.59, 187.33 17.24 C190.73 20.89, 190.1 26.16, 187.29 29.74 C184.48 33.33, 178.82 36.19, 170.46 38.73 C162.11 41.28, 149.69 43.37, 137.14 44.99 C124.59 46.61, 108.81 48.31, 95.18 48.46 C81.54 48.61, 67.81 47.25, 55.32 45.9 C42.83 44.55, 28.87 43.11, 20.24 40.37 C11.61 37.64, 6.73 32.8, 3.53 29.51 C0.32 26.23, -1.67 23.93, 1.01 20.65 C3.7 17.36, 10.96 12.8, 19.63 9.79 C28.29 6.79, 47.34 3.84, 53.01 2.6 C58.68 1.37, 53.05 2.22, 53.64 2.38" stroke="#000000" stroke-width="1" fill="none"></path></g><g transform="translate(561.6717732706147 29.855889745880177) rotate(0 27.929977416992188 12.5)"><text x="27.929977416992188" y="0" font-family="Virgil, Segoe UI Emoji" font-size="20px" fill="#000000" text-anchor="middle" style="white-space: pre;" direction="ltr" dominant-baseline="text-before-edge">"pera"</text></g><g stroke-linecap="round"><g transform="translate(589.5 119.57142857142844) rotate(0 -0.2018272593710435 -0.058485262059207344)"><path d="M-0.56 -1.03 C-0.59 -1.21, -0.66 -1.18, -0.53 -1.01 M1.35 1.04 C1.14 0.97, -1.46 -0.04, -1.75 0" stroke="#000000" stroke-width="1" fill="none"></path></g><g transform="translate(589.5 119.57142857142844) rotate(0 -0.2018272593710435 -0.058485262059207344)"><path d="M-1.75 0 C-1.75 0, -1.75 0, -1.75 0 M-1.75 0 C-1.75 0, -1.75 0, -1.75 0" stroke="#000000" stroke-width="1" fill="none"></path></g><g transform="translate(589.5 119.57142857142844) rotate(0 -0.2018272593710435 -0.058485262059207344)"><path d="M-1.75 0 C-1.75 0, -1.75 0, -1.75 0 M-1.75 0 C-1.75 0, -1.75 0, -1.75 0" stroke="#000000" stroke-width="1" fill="none"></path></g></g><mask></mask><g stroke-linecap="round" transform="translate(10.5 220.6428571428571) rotate(0 62 23.5)"><path d="M11.75 0 M11.75 0 C40.96 1.14, 70.18 0.6, 112.25 0 M11.75 0 C43.38 -0.04, 74.97 -1.39, 112.25 0 M112.25 0 C121.52 1.87, 125.71 2.51, 124 11.75 M112.25 0 C121.82 1.31, 121.82 3.08, 124 11.75 M124 11.75 C123.97 17.26, 123.33 25.98, 124 35.25 M124 11.75 C123.1 17.23, 123.68 22.53, 124 35.25 M124 35.25 C125.66 44.2, 119.52 46.47, 112.25 47 M124 35.25 C123.97 42.79, 118.05 46.16, 112.25 47 M112.25 47 C73.72 47.53, 32.72 45.82, 11.75 47 M112.25 47 C85.9 45.72, 58.71 47.53, 11.75 47 M11.75 47 C3.94 45.39, -0.01 42.21, 0 35.25 M11.75 47 C2.97 45.19, -1.44 43.8, 0 35.25 M0 35.25 C-1.09 27.8, 1.87 16.75, 0 11.75 M0 35.25 C0.94 26.83, 0.28 20.8, 0 11.75 M0 11.75 C-1.6 3.88, 2.22 -1.98, 11.75 0 M0 11.75 C0.73 1.94, 5.36 -0.43, 11.75 0" stroke="#000000" stroke-width="1" fill="none"></path></g><g transform="translate(25.440048217773438 231.6428571428571) rotate(0 47.05995178222656 12.5)"><text x="47.05995178222656" y="0" font-family="Virgil, Segoe UI Emoji" font-size="20px" fill="#000000" text-anchor="middle" style="white-space: pre;" direction="ltr" dominant-baseline="text-before-edge">resultado</text></g><g stroke-linecap="round"><g transform="translate(134.6899228178985 247.15062905719515) rotate(0 50.08009818087638 14.258039532658927)"><path d="M-1.06 -0.44 C15.81 4.45, 84.43 24.04, 101.22 29.18 M0.58 -1.72 C17.39 3.31, 84.48 24.64, 100.83 30.23" stroke="#000000" stroke-width="1" fill="none"></path></g><g transform="translate(134.6899228178985 247.15062905719515) rotate(0 50.08009818087638 14.258039532658927)"><path d="M70.11 32.96 C78.28 30.41, 89.23 31.8, 99.27 29.44 M71.2 30.39 C78.68 32.08, 86.78 30.02, 100.82 29.8" stroke="#000000" stroke-width="1" fill="none"></path></g><g transform="translate(134.6899228178985 247.15062905719515) rotate(0 50.08009818087638 14.258039532658927)"><path d="M76.5 13.46 C82.74 16.68, 91.77 23.9, 99.27 29.44 M77.59 10.89 C83.48 17.74, 89.89 20.86, 100.82 29.8" stroke="#000000" stroke-width="1" fill="none"></path></g></g><mask></mask><g stroke-linecap="round" transform="translate(225.5 181.07142857142844) rotate(0 95 24.5)"><path d="M125.47 2.16 C138.29 2.65, 151.27 4.33, 160.99 6.54 C170.71 8.75, 178.97 12.17, 183.79 15.41 C188.61 18.66, 191.17 22.28, 189.9 26.02 C188.62 29.76, 183.35 34.73, 176.13 37.86 C168.91 41, 158.22 42.91, 146.58 44.83 C134.95 46.75, 120 48.76, 106.32 49.4 C92.64 50.05, 77.38 49.87, 64.5 48.68 C51.63 47.5, 38.93 45.06, 29.06 42.29 C19.18 39.53, 10 35.52, 5.27 32.09 C0.54 28.65, -0.85 25.06, 0.65 21.69 C2.15 18.31, 7.24 14.83, 14.25 11.85 C21.26 8.88, 31.25 5.69, 42.72 3.83 C54.2 1.96, 68.4 1.12, 83.09 0.67 C97.79 0.23, 122.62 0.79, 130.91 1.16 C139.2 1.52, 133.71 2.44, 132.84 2.86 M51.18 3.23 C62.34 1.17, 80.73 0.23, 94.6 0.16 C108.47 0.09, 122.32 1.51, 134.37 2.8 C146.43 4.08, 158.1 5.44, 166.92 7.85 C175.75 10.25, 183.94 13.59, 187.33 17.24 C190.73 20.89, 190.1 26.16, 187.29 29.74 C184.48 33.33, 178.82 36.19, 170.46 38.73 C162.11 41.28, 149.69 43.37, 137.14 44.99 C124.59 46.61, 108.81 48.31, 95.18 48.46 C81.54 48.61, 67.81 47.25, 55.32 45.9 C42.83 44.55, 28.87 43.11, 20.24 40.37 C11.61 37.64, 6.73 32.8, 3.53 29.51 C0.32 26.23, -1.67 23.93, 1.01 20.65 C3.7 17.36, 10.96 12.8, 19.63 9.79 C28.29 6.79, 47.34 3.84, 53.01 2.6 C58.68 1.37, 53.05 2.22, 53.64 2.38" stroke="#000000" stroke-width="1" fill="none"></path></g><g transform="translate(313.92486189079364 193.24731243235806) rotate(0 6.399993896484375 12.5)"><text x="6.399993896484375" y="0" font-family="Virgil, Segoe UI Emoji" font-size="20px" fill="#000000" text-anchor="middle" style="white-space: pre;" direction="ltr" dominant-baseline="text-before-edge">4</text></g><g stroke-linecap="round" transform="translate(494.5 165.0714285714282) rotate(0 95 24.5)"><path d="M125.47 2.16 C138.29 2.65, 151.27 4.33, 160.99 6.54 C170.71 8.75, 178.97 12.17, 183.79 15.41 C188.61 18.66, 191.17 22.28, 189.9 26.02 C188.62 29.76, 183.35 34.73, 176.13 37.86 C168.91 41, 158.22 42.91, 146.58 44.83 C134.95 46.75, 120 48.76, 106.32 49.4 C92.64 50.05, 77.38 49.87, 64.5 48.68 C51.63 47.5, 38.93 45.06, 29.06 42.29 C19.18 39.53, 10 35.52, 5.27 32.09 C0.54 28.65, -0.85 25.06, 0.65 21.69 C2.15 18.31, 7.24 14.83, 14.25 11.85 C21.26 8.88, 31.25 5.69, 42.72 3.83 C54.2 1.96, 68.4 1.12, 83.09 0.67 C97.79 0.23, 122.62 0.79, 130.91 1.16 C139.2 1.52, 133.71 2.44, 132.84 2.86 M51.18 3.23 C62.34 1.17, 80.73 0.23, 94.6 0.16 C108.47 0.09, 122.32 1.51, 134.37 2.8 C146.43 4.08, 158.1 5.44, 166.92 7.85 C175.75 10.25, 183.94 13.59, 187.33 17.24 C190.73 20.89, 190.1 26.16, 187.29 29.74 C184.48 33.33, 178.82 36.19, 170.46 38.73 C162.11 41.28, 149.69 43.37, 137.14 44.99 C124.59 46.61, 108.81 48.31, 95.18 48.46 C81.54 48.61, 67.81 47.25, 55.32 45.9 C42.83 44.55, 28.87 43.11, 20.24 40.37 C11.61 37.64, 6.73 32.8, 3.53 29.51 C0.32 26.23, -1.67 23.93, 1.01 20.65 C3.7 17.36, 10.96 12.8, 19.63 9.79 C28.29 6.79, 47.34 3.84, 53.01 2.6 C58.68 1.37, 53.05 2.22, 53.64 2.38" stroke="#000000" stroke-width="1" fill="none"></path></g><g transform="translate(544.494892103196 177.24731243235783) rotate(0 44.82996368408203 12.5)"><text x="44.82996368408203" y="0" font-family="Virgil, Segoe UI Emoji" font-size="20px" fill="#000000" text-anchor="middle" style="white-space: pre;" direction="ltr" dominant-baseline="text-before-edge">"durazno"</text></g><g mask="url(#mask-924FEA8YAIp8moNr0f6GW)" stroke-linecap="round"><g transform="translate(325.3235612316133 58.75877868224302) rotate(0 85.88958824343106 58.98349237261823)"><path d="M-0.08 -0.07 C28.37 19.83, 142.62 99.14, 171.11 119.12 M-1.58 -1.15 C27.21 18.4, 144.24 97.38, 173.36 117.24" stroke="#000000" stroke-width="1" fill="none"></path></g><g transform="translate(325.3235612316133 58.75877868224302) rotate(0 85.88958824343106 58.98349237261823)"><path d="M144.15 108.45 C154.71 110.48, 165.5 113.49, 173.87 115.71 M144.45 110.3 C153.63 112.28, 162.53 114.79, 172.73 117.27" stroke="#000000" stroke-width="1" fill="none"></path></g><g transform="translate(325.3235612316133 58.75877868224302) rotate(0 85.88958824343106 58.98349237261823)"><path d="M155.67 91.46 C162.35 99.14, 169.32 107.79, 173.87 115.71 M155.97 93.32 C161.8 100.31, 167.24 107.93, 172.73 117.27" stroke="#000000" stroke-width="1" fill="none"></path></g></g><mask id="mask-924FEA8YAIp8moNr0f6GW"><rect x="0" y="0" fill="#fff" width="597.3182767852484" height="277.41373691427"></rect><rect x="404.2009238912434" y="105.58625779825661" fill="#000" width="14.239990234375" height="25" opacity="1"></rect></mask><g transform="translate(404.2009238912433 105.58625779825661) rotate(0 7.01222558380104 12.156013256604638)"><text x="7.1199951171875" y="0" font-family="Virgil, Segoe UI Emoji" font-size="20px" fill="#000000" text-anchor="middle" style="white-space: pre;" direction="ltr" dominant-baseline="text-before-edge">2</text></g><g mask="url(#mask-DdE58NaBUA2lBxVMLcPch)" stroke-linecap="round"><g transform="translate(306.9781811571621 71.77365710705453) rotate(0 2.108035932435854 55.23571256959144)"><path d="M-0.08 -0.07 C0.44 18.58, 2.99 92.9, 3.55 111.62 M-1.58 -1.15 C-0.72 17.16, 4.6 91.13, 5.8 109.75" stroke="#000000" stroke-width="1" fill="none"></path></g><g transform="translate(306.9781811571621 71.77365710705453) rotate(0 2.108035932435854 55.23571256959144)"><path d="M-6.47 80.85 C-1.6 89.56, 3.56 99.25, 6.31 108.22 M-6.17 82.71 C-1.95 90.59, 1.86 99.14, 5.16 109.78" stroke="#000000" stroke-width="1" fill="none"></path></g><g transform="translate(306.9781811571621 71.77365710705453) rotate(0 2.108035932435854 55.23571256959144)"><path d="M14 79.45 C12.06 88.61, 10.41 98.77, 6.31 108.22 M14.3 81.31 C12.38 89.45, 10.03 98.42, 5.16 109.78" stroke="#000000" stroke-width="1" fill="none"></path></g></g><mask id="mask-DdE58NaBUA2lBxVMLcPch"><rect x="0" y="0" fill="#fff" width="411.40979208880674" height="282.9330557330279"></rect><rect x="280.8240143939805" y="114.85335642004111" fill="#000" width="56.73994445800781" height="25" opacity="1"></rect></mask><g transform="translate(280.8240143939805 114.85335642004111) rotate(0 28.262202695617447 12.156013256604865)"><text x="28.369972229003906" y="0" font-family="Virgil, Segoe UI Emoji" font-size="20px" fill="#000000" text-anchor="middle" style="white-space: pre;" direction="ltr" dominant-baseline="text-before-edge">length</text></g><g stroke-linecap="round" transform="translate(486.3236109646467 253.14651375278618) rotate(0 95 24.5)"><path d="M125.47 2.16 C138.29 2.65, 151.27 4.33, 160.99 6.54 C170.71 8.75, 178.97 12.17, 183.79 15.41 C188.61 18.66, 191.17 22.28, 189.9 26.02 C188.62 29.76, 183.35 34.73, 176.13 37.86 C168.91 41, 158.22 42.91, 146.58 44.83 C134.95 46.75, 120 48.76, 106.32 49.4 C92.64 50.05, 77.38 49.87, 64.5 48.68 C51.63 47.5, 38.93 45.06, 29.06 42.29 C19.18 39.53, 10 35.52, 5.27 32.09 C0.54 28.65, -0.85 25.06, 0.65 21.69 C2.15 18.31, 7.24 14.83, 14.25 11.85 C21.26 8.88, 31.25 5.69, 42.72 3.83 C54.2 1.96, 68.4 1.12, 83.09 0.67 C97.79 0.23, 122.62 0.79, 130.91 1.16 C139.2 1.52, 133.71 2.44, 132.84 2.86 M51.18 3.23 C62.34 1.17, 80.73 0.23, 94.6 0.16 C108.47 0.09, 122.32 1.51, 134.37 2.8 C146.43 4.08, 158.1 5.44, 166.92 7.85 C175.75 10.25, 183.94 13.59, 187.33 17.24 C190.73 20.89, 190.1 26.16, 187.29 29.74 C184.48 33.33, 178.82 36.19, 170.46 38.73 C162.11 41.28, 149.69 43.37, 137.14 44.99 C124.59 46.61, 108.81 48.31, 95.18 48.46 C81.54 48.61, 67.81 47.25, 55.32 45.9 C42.83 44.55, 28.87 43.11, 20.24 40.37 C11.61 37.64, 6.73 32.8, 3.53 29.51 C0.32 26.23, -1.67 23.93, 1.01 20.65 C3.7 17.36, 10.96 12.8, 19.63 9.79 C28.29 6.79, 47.34 3.84, 53.01 2.6 C58.68 1.37, 53.05 2.22, 53.64 2.38" stroke="#000000" stroke-width="1" fill="none"></path></g><g transform="translate(537.8284975746786 265.3223976137158) rotate(0 43.319969177246094 12.5)"><text x="43.319969177246094" y="0" font-family="Virgil, Segoe UI Emoji" font-size="20px" fill="#000000" text-anchor="middle" style="white-space: pre;" direction="ltr" dominant-baseline="text-before-edge">"platano"</text></g><g mask="url(#mask-XqTf_vIg0S9ojGVfT2pBR)" stroke-linecap="round"><g transform="translate(317.33675047756844 67.85567263170833) rotate(0 94.49174634613607 93.64732635316216)"><path d="M-0.08 -0.07 C31.24 31.38, 156.96 156.92, 188.32 188.45 M-1.58 -1.15 C30.08 29.96, 158.58 155.15, 190.57 186.57" stroke="#000000" stroke-width="1" fill="none"></path></g><g transform="translate(317.33675047756844 67.85567263170833) rotate(0 94.49174634613607 93.64732635316216)"><path d="M163.12 172.73 C173.08 176.44, 183.28 181.12, 191.07 185.04 M163.42 174.59 C172.1 178.07, 180.47 182.09, 189.93 186.6" stroke="#000000" stroke-width="1" fill="none"></path></g><g transform="translate(317.33675047756844 67.85567263170833) rotate(0 94.49174634613607 93.64732635316216)"><path d="M177.47 158.06 C182.62 166.64, 188.05 176.2, 191.07 185.04 M177.77 159.91 C182.23 167.69, 186.29 176.13, 189.93 186.6" stroke="#000000" stroke-width="1" fill="none"></path></g></g><mask id="mask-XqTf_vIg0S9ojGVfT2pBR"><rect x="0" y="0" fill="#fff" width="606.5357822366135" height="355.83829882482314"></rect><rect x="405.1262687984972" y="149.34698572826574" fill="#000" width="13.6199951171875" height="25" opacity="1"></rect></mask><g transform="translate(405.1262687984972 149.34698572826574) rotate(0 6.70222802520729 12.156013256604751)"><text x="6.80999755859375" y="0" font-family="Virgil, Segoe UI Emoji" font-size="20px" fill="#000000" text-anchor="middle" style="white-space: pre;" direction="ltr" dominant-baseline="text-before-edge">3</text></g><g stroke-linecap="round" transform="translate(10.091322734497226 93.32659326105568) rotate(0 62 23.5)"><path d="M11.75 0 M11.75 0 C40.96 1.14, 70.18 0.6, 112.25 0 M11.75 0 C43.38 -0.04, 74.97 -1.39, 112.25 0 M112.25 0 C121.52 1.87, 125.71 2.51, 124 11.75 M112.25 0 C121.82 1.31, 121.82 3.08, 124 11.75 M124 11.75 C123.97 17.26, 123.33 25.98, 124 35.25 M124 11.75 C123.1 17.23, 123.68 22.53, 124 35.25 M124 35.25 C125.66 44.2, 119.52 46.47, 112.25 47 M124 35.25 C123.97 42.79, 118.05 46.16, 112.25 47 M112.25 47 C73.72 47.53, 32.72 45.82, 11.75 47 M112.25 47 C85.9 45.72, 58.71 47.53, 11.75 47 M11.75 47 C3.94 45.39, -0.01 42.21, 0 35.25 M11.75 47 C2.97 45.19, -1.44 43.8, 0 35.25 M0 35.25 C-1.09 27.8, 1.87 16.75, 0 11.75 M0 35.25 C0.94 26.83, 0.28 20.8, 0 11.75 M0 11.75 C-1.6 3.88, 2.22 -1.98, 11.75 0 M0 11.75 C0.73 1.94, 5.36 -0.43, 11.75 0" stroke="#000000" stroke-width="1" fill="none"></path></g><g transform="translate(47.741347148559726 104.32659326105568) rotate(0 24.3499755859375 12.5)"><text x="24.3499755859375" y="0" font-family="Virgil, Segoe UI Emoji" font-size="20px" fill="#000000" text-anchor="middle" style="white-space: pre;" direction="ltr" dominant-baseline="text-before-edge">copia</text></g><g stroke-linecap="round"><g transform="translate(135.09132273449723 95.16634481628125) rotate(0 55.9606486019251 -19.113328108263886)"><path d="M-1.06 -0.44 C17.77 -6.71, 94.23 -31.76, 112.98 -37.79 M0.58 -1.72 C19.35 -7.85, 94.28 -31.16, 112.59 -36.73" stroke="#000000" stroke-width="1" fill="none"></path></g><g transform="translate(135.09132273449723 95.16634481628125) rotate(0 55.9606486019251 -19.113328108263886)"><path d="M87.94 -16.86 C94.32 -24.59, 103.45 -28.32, 111.04 -37.52 M89.03 -19.43 C94.8 -22.32, 101.3 -28.93, 112.58 -37.16" stroke="#000000" stroke-width="1" fill="none"></path></g><g transform="translate(135.09132273449723 95.16634481628125) rotate(0 55.9606486019251 -19.113328108263886)"><path d="M81.89 -36.47 C90.05 -38.29, 100.99 -36.15, 111.04 -37.52 M82.98 -39.04 C90.47 -36.69, 98.57 -38.09, 112.58 -37.16" stroke="#000000" stroke-width="1" fill="none"></path></g></g><mask></mask><g stroke-linecap="round" transform="translate(221.5 269.07142857142844) rotate(0 95 24.5)"><path d="M125.47 2.16 C138.29 2.65, 151.27 4.33, 160.99 6.54 C170.71 8.75, 178.97 12.17, 183.79 15.41 C188.61 18.66, 191.17 22.28, 189.9 26.02 C188.62 29.76, 183.35 34.73, 176.13 37.86 C168.91 41, 158.22 42.91, 146.58 44.83 C134.95 46.75, 120 48.76, 106.32 49.4 C92.64 50.05, 77.38 49.87, 64.5 48.68 C51.63 47.5, 38.93 45.06, 29.06 42.29 C19.18 39.53, 10 35.52, 5.27 32.09 C0.54 28.65, -0.85 25.06, 0.65 21.69 C2.15 18.31, 7.24 14.83, 14.25 11.85 C21.26 8.88, 31.25 5.69, 42.72 3.83 C54.2 1.96, 68.4 1.12, 83.09 0.67 C97.79 0.23, 122.62 0.79, 130.91 1.16 C139.2 1.52, 133.71 2.44, 132.84 2.86 M51.18 3.23 C62.34 1.17, 80.73 0.23, 94.6 0.16 C108.47 0.09, 122.32 1.51, 134.37 2.8 C146.43 4.08, 158.1 5.44, 166.92 7.85 C175.75 10.25, 183.94 13.59, 187.33 17.24 C190.73 20.89, 190.1 26.16, 187.29 29.74 C184.48 33.33, 178.82 36.19, 170.46 38.73 C162.11 41.28, 149.69 43.37, 137.14 44.99 C124.59 46.61, 108.81 48.31, 95.18 48.46 C81.54 48.61, 67.81 47.25, 55.32 45.9 C42.83 44.55, 28.87 43.11, 20.24 40.37 C11.61 37.64, 6.73 32.8, 3.53 29.51 C0.32 26.23, -1.67 23.93, 1.01 20.65 C3.7 17.36, 10.96 12.8, 19.63 9.79 C28.29 6.79, 47.34 3.84, 53.01 2.6 C58.68 1.37, 53.05 2.22, 53.64 2.38" stroke="#000000" stroke-width="1" fill="none"></path></g><g transform="translate(309.51485822868426 281.24731243235806) rotate(0 6.80999755859375 12.5)"><text x="6.80999755859375" y="0" font-family="Virgil, Segoe UI Emoji" font-size="20px" fill="#000000" text-anchor="middle" style="white-space: pre;" direction="ltr" dominant-baseline="text-before-edge">3</text></g></svg>