<svg version="1.1" xmlns="http://www.w3.org/2000/svg" viewBox="0 0 701 338" width="701" height="338">
  <!-- svg-source:excalidraw -->
  
  <defs>
    <style class="style-fonts">
      @font-face {
        font-family: "Virgil";
        src: url("https://unpkg.com/@excalidraw/excalidraw@0.15.3/dist/excalidraw-assets/Virgil.woff2");
      }
      @font-face {
        font-family: "Cascadia";
        src: url("https://unpkg.com/@excalidraw/excalidraw@0.15.3/dist/excalidraw-assets/Cascadia.woff2");
      }
    </style>
  </defs>
  <rect x="0" y="0" width="701" height="338" fill="#ffffff"></rect><g stroke-linecap="round" transform="translate(10 10) rotate(0 62 23.5)"><path d="M11.75 0 M11.75 0 C40.96 1.14, 70.18 0.6, 112.25 0 M11.75 0 C43.38 -0.04, 74.97 -1.39, 112.25 0 M112.25 0 C121.52 1.87, 125.71 2.51, 124 11.75 M112.25 0 C121.82 1.31, 121.82 3.08, 124 11.75 M124 11.75 C123.97 17.26, 123.33 25.98, 124 35.25 M124 11.75 C123.1 17.23, 123.68 22.53, 124 35.25 M124 35.25 C125.66 44.2, 119.52 46.47, 112.25 47 M124 35.25 C123.97 42.79, 118.05 46.16, 112.25 47 M112.25 47 C73.72 47.53, 32.72 45.82, 11.75 47 M112.25 47 C85.9 45.72, 58.71 47.53, 11.75 47 M11.75 47 C3.94 45.39, -0.01 42.21, 0 35.25 M11.75 47 C2.97 45.19, -1.44 43.8, 0 35.25 M0 35.25 C-1.09 27.8, 1.87 16.75, 0 11.75 M0 35.25 C0.94 26.83, 0.28 20.8, 0 11.75 M0 11.75 C-1.6 3.88, 2.22 -1.98, 11.75 0 M0 11.75 C0.73 1.94, 5.36 -0.43, 11.75 0" stroke="#000000" stroke-width="1" fill="none"></path></g><g transform="translate(34.630035400390625 21) rotate(0 37.369964599609375 12.5)"><text x="37.369964599609375" y="0" font-family="Virgil, Segoe UI Emoji" font-size="20px" fill="#000000" text-anchor="middle" style="white-space: pre;" direction="ltr" dominant-baseline="text-before-edge">objeto3</text></g><g stroke-linecap="round"><g transform="translate(136 35.540546648673285) rotate(0 51.007300722200334 1.145513486537368)"><path d="M-1.06 -0.44 C16.12 0.08, 85.97 2.19, 103.08 2.95 M0.58 -1.72 C17.7 -1.06, 86.02 2.79, 102.68 4.01" stroke="#000000" stroke-width="1" fill="none"></path></g><g transform="translate(136 35.540546648673285) rotate(0 51.007300722200334 1.145513486537368)"><path d="M73.17 14.23 C80.99 9.42, 91.57 8.58, 101.13 3.22 M74.26 11.66 C81.37 11.36, 89.16 7.3, 102.67 3.57" stroke="#000000" stroke-width="1" fill="none"></path></g><g transform="translate(136 35.540546648673285) rotate(0 51.007300722200334 1.145513486537368)"><path d="M74.46 -6.25 C81.87 -4.95, 92.07 0.33, 101.13 3.22 M75.55 -8.82 C82.44 -3.69, 89.88 -2.3, 102.67 3.57" stroke="#000000" stroke-width="1" fill="none"></path></g></g><mask></mask><g stroke-linecap="round" transform="translate(241 10) rotate(0 40 31.5)"><path d="M25.72 3.02 C32.22 0.64, 42.11 -0.23, 49.52 1.05 C56.94 2.32, 65.1 6.02, 70.22 10.67 C75.34 15.32, 79.6 22.67, 80.26 28.97 C80.92 35.26, 78.54 43.04, 74.19 48.45 C69.84 53.87, 61.65 59.09, 54.17 61.46 C46.69 63.82, 36.82 64.47, 29.32 62.65 C21.82 60.82, 14.01 55.41, 9.16 50.53 C4.32 45.66, 0.89 39.57, 0.28 33.39 C-0.34 27.22, 1.1 18.78, 5.5 13.47 C9.89 8.17, 22.57 3.61, 26.66 1.58 C30.75 -0.45, 29.61 0.67, 30.03 1.29 M42.68 -0.55 C50.02 -1.05, 59.51 1.7, 65.5 5.69 C71.49 9.69, 76.51 17.16, 78.63 23.44 C80.74 29.72, 81.1 37.79, 78.21 43.37 C75.32 48.95, 68.11 53.73, 61.26 56.93 C54.42 60.12, 44.7 62.66, 37.11 62.54 C29.52 62.42, 21.77 60.19, 15.73 56.18 C9.7 52.18, 3.29 44.51, 0.92 38.51 C-1.45 32.52, -1.18 25.8, 1.51 20.21 C4.21 14.62, 10.55 8.5, 17.09 4.99 C23.63 1.47, 36.78 -0.1, 40.75 -0.88 C44.71 -1.67, 40.48 -0.33, 40.87 0.26" stroke="#000000" stroke-width="1" fill="none"></path></g><g transform="translate(265.5257339405264 29.226136392623744) rotate(0 15.689994812011719 12.5)"><text x="15.689994812011719" y="0" font-family="Virgil, Segoe UI Emoji" font-size="20px" fill="#000000" text-anchor="middle" style="white-space: pre;" direction="ltr" dominant-baseline="text-before-edge">{ }</text></g><g mask="url(#mask-2znm5t0f4VklvnCx4AEtB)" stroke-linecap="round"><g transform="translate(324.062390202831 56.580333418118926) rotate(0 100.62016789624957 31.121878038584043)"><path d="M-0.08 -0.07 C33.28 10.54, 167.17 52.71, 200.57 63.4 M-1.58 -1.15 C32.12 9.12, 168.79 50.94, 202.82 61.52" stroke="#000000" stroke-width="1" fill="none"></path></g><g transform="translate(324.062390202831 56.580333418118926) rotate(0 100.62016789624957 31.121878038584043)"><path d="M172.74 61.56 C183.61 60.65, 194.69 60.72, 203.33 59.99 M173.04 63.42 C182.42 62.74, 191.58 62.6, 202.19 61.55" stroke="#000000" stroke-width="1" fill="none"></path></g><g transform="translate(324.062390202831 56.580333418118926) rotate(0 100.62016789624957 31.121878038584043)"><path d="M178.79 41.95 C187.6 47.56, 196.67 54.15, 203.33 59.99 M179.08 43.8 C186.78 48.98, 194.12 54.73, 202.19 61.55" stroke="#000000" stroke-width="1" fill="none"></path></g></g><mask id="mask-2znm5t0f4VklvnCx4AEtB"><rect x="0" y="0" fill="#fff" width="625.518265062103" height="219.5120629820775"></rect><rect x="418.12032946352167" y="75.54619820009816" fill="#000" width="13.339996337890625" height="25" opacity="1"></rect></mask><g transform="translate(418.1203294635217 75.54619820009816) rotate(0 6.56222863555891 12.156013256604808)"><text x="6.6699981689453125" y="0" font-family="Virgil, Segoe UI Emoji" font-size="20px" fill="#000000" text-anchor="middle" style="white-space: pre;" direction="ltr" dominant-baseline="text-before-edge">a</text></g><g stroke-linecap="round" transform="translate(501 279) rotate(0 95 24.5)"><path d="M125.47 2.16 C138.29 2.65, 151.27 4.33, 160.99 6.54 C170.71 8.75, 178.97 12.17, 183.79 15.41 C188.61 18.66, 191.17 22.28, 189.9 26.02 C188.62 29.76, 183.35 34.73, 176.13 37.86 C168.91 41, 158.22 42.91, 146.58 44.83 C134.95 46.75, 120 48.76, 106.32 49.4 C92.64 50.05, 77.38 49.87, 64.5 48.68 C51.63 47.5, 38.93 45.06, 29.06 42.29 C19.18 39.53, 10 35.52, 5.27 32.09 C0.54 28.65, -0.85 25.06, 0.65 21.69 C2.15 18.31, 7.24 14.83, 14.25 11.85 C21.26 8.88, 31.25 5.69, 42.72 3.83 C54.2 1.96, 68.4 1.12, 83.09 0.67 C97.79 0.23, 122.62 0.79, 130.91 1.16 C139.2 1.52, 133.71 2.44, 132.84 2.86 M51.18 3.23 C62.34 1.17, 80.73 0.23, 94.6 0.16 C108.47 0.09, 122.32 1.51, 134.37 2.8 C146.43 4.08, 158.1 5.44, 166.92 7.85 C175.75 10.25, 183.94 13.59, 187.33 17.24 C190.73 20.89, 190.1 26.16, 187.29 29.74 C184.48 33.33, 178.82 36.19, 170.46 38.73 C162.11 41.28, 149.69 43.37, 137.14 44.99 C124.59 46.61, 108.81 48.31, 95.18 48.46 C81.54 48.61, 67.81 47.25, 55.32 45.9 C42.83 44.55, 28.87 43.11, 20.24 40.37 C11.61 37.64, 6.73 32.8, 3.53 29.51 C0.32 26.23, -1.67 23.93, 1.01 20.65 C3.7 17.36, 10.96 12.8, 19.63 9.79 C28.29 6.79, 47.34 3.84, 53.01 2.6 C58.68 1.37, 53.05 2.22, 53.64 2.38" stroke="#000000" stroke-width="1" fill="none"></path></g><g transform="translate(589.6448631114968 291.1758838609296) rotate(0 6.17999267578125 12.5)"><text x="6.17999267578125" y="0" font-family="Virgil, Segoe UI Emoji" font-size="20px" fill="#000000" text-anchor="middle" style="white-space: pre;" direction="ltr" dominant-baseline="text-before-edge">5</text></g><g mask="url(#mask-EpGBUvXRcZD3NCIB3_bJX)" stroke-linecap="round"><g transform="translate(325.729191777118 43.294854946719965) rotate(0 85.45146977827838 -0.5270399384546067)"><path d="M-0.08 -0.07 C28.23 0.05, 141.89 0.23, 170.24 0.42 M-1.58 -1.15 C27.06 -1.38, 143.51 -1.54, 172.49 -1.46" stroke="#000000" stroke-width="1" fill="none"></path></g><g transform="translate(325.729191777118 43.294854946719965) rotate(0 85.45146977827838 -0.5270399384546067)"><path d="M144.18 7.33 C154.47 3.51, 164.97 0.67, 172.99 -2.98 M144.47 9.19 C153.26 5.87, 161.89 3.1, 171.85 -1.43" stroke="#000000" stroke-width="1" fill="none"></path></g><g transform="translate(325.729191777118 43.294854946719965) rotate(0 85.45146977827838 -0.5270399384546067)"><path d="M144.18 -13.19 C154.43 -10.18, 164.92 -6.2, 172.99 -2.98 M144.48 -11.33 C153.4 -8.48, 162.03 -5.09, 171.85 -1.43" stroke="#000000" stroke-width="1" fill="none"></path></g></g><mask id="mask-EpGBUvXRcZD3NCIB3_bJX"><rect x="0" y="0" fill="#fff" width="596.8476704004477" height="143.33682722599372"></rect><rect x="406.20843688712273" y="30.77386880708309" fill="#000" width="10.159988403320312" height="25" opacity="1"></rect></mask><g transform="translate(406.2084368871226 30.77386880708309) rotate(0 4.972224668273697 11.993946201182268)"><text x="5.079994201660156" y="0" font-family="Virgil, Segoe UI Emoji" font-size="20px" fill="#000000" text-anchor="middle" style="white-space: pre;" direction="ltr" dominant-baseline="text-before-edge">b</text></g><g stroke-linecap="round" transform="translate(11.4375 101.9375) rotate(0 62 23.5)"><path d="M11.75 0 M11.75 0 C40.96 1.14, 70.18 0.6, 112.25 0 M11.75 0 C43.38 -0.04, 74.97 -1.39, 112.25 0 M112.25 0 C121.52 1.87, 125.71 2.51, 124 11.75 M112.25 0 C121.82 1.31, 121.82 3.08, 124 11.75 M124 11.75 C123.97 17.26, 123.33 25.98, 124 35.25 M124 11.75 C123.1 17.23, 123.68 22.53, 124 35.25 M124 35.25 C125.66 44.2, 119.52 46.47, 112.25 47 M124 35.25 C123.97 42.79, 118.05 46.16, 112.25 47 M112.25 47 C73.72 47.53, 32.72 45.82, 11.75 47 M112.25 47 C85.9 45.72, 58.71 47.53, 11.75 47 M11.75 47 C3.94 45.39, -0.01 42.21, 0 35.25 M11.75 47 C2.97 45.19, -1.44 43.8, 0 35.25 M0 35.25 C-1.09 27.8, 1.87 16.75, 0 11.75 M0 35.25 C0.94 26.83, 0.28 20.8, 0 11.75 M0 11.75 C-1.6 3.88, 2.22 -1.98, 11.75 0 M0 11.75 C0.73 1.94, 5.36 -0.43, 11.75 0" stroke="#000000" stroke-width="1" fill="none"></path></g><g transform="translate(40.16753387451172 112.9375) rotate(0 33.26996612548828 12.5)"><text x="33.26996612548828" y="0" font-family="Virgil, Segoe UI Emoji" font-size="20px" fill="#000000" text-anchor="middle" style="white-space: pre;" direction="ltr" dominant-baseline="text-before-edge">objeto1</text></g><g stroke-linecap="round"><g transform="translate(137.4375 127.4780466486734) rotate(0 51.007300722200306 1.145513486537311)"><path d="M-1.06 -0.44 C16.12 0.08, 85.97 2.19, 103.08 2.95 M0.58 -1.72 C17.7 -1.06, 86.02 2.79, 102.68 4.01" stroke="#000000" stroke-width="1" fill="none"></path></g><g transform="translate(137.4375 127.4780466486734) rotate(0 51.007300722200306 1.145513486537311)"><path d="M73.17 14.23 C80.99 9.42, 91.57 8.58, 101.13 3.22 M74.26 11.66 C81.37 11.36, 89.16 7.3, 102.67 3.57" stroke="#000000" stroke-width="1" fill="none"></path></g><g transform="translate(137.4375 127.4780466486734) rotate(0 51.007300722200306 1.145513486537311)"><path d="M74.46 -6.25 C81.87 -4.95, 92.07 0.33, 101.13 3.22 M75.55 -8.82 C82.44 -3.69, 89.88 -2.3, 102.67 3.57" stroke="#000000" stroke-width="1" fill="none"></path></g></g><mask></mask><g stroke-linecap="round" transform="translate(242.4375 101.9375) rotate(0 40 31.5)"><path d="M25.72 3.02 C32.22 0.64, 42.11 -0.23, 49.52 1.05 C56.94 2.32, 65.1 6.02, 70.22 10.67 C75.34 15.32, 79.6 22.67, 80.26 28.97 C80.92 35.26, 78.54 43.04, 74.19 48.45 C69.84 53.87, 61.65 59.09, 54.17 61.46 C46.69 63.82, 36.82 64.47, 29.32 62.65 C21.82 60.82, 14.01 55.41, 9.16 50.53 C4.32 45.66, 0.89 39.57, 0.28 33.39 C-0.34 27.22, 1.1 18.78, 5.5 13.47 C9.89 8.17, 22.57 3.61, 26.66 1.58 C30.75 -0.45, 29.61 0.67, 30.03 1.29 M42.68 -0.55 C50.02 -1.05, 59.51 1.7, 65.5 5.69 C71.49 9.69, 76.51 17.16, 78.63 23.44 C80.74 29.72, 81.1 37.79, 78.21 43.37 C75.32 48.95, 68.11 53.73, 61.26 56.93 C54.42 60.12, 44.7 62.66, 37.11 62.54 C29.52 62.42, 21.77 60.19, 15.73 56.18 C9.7 52.18, 3.29 44.51, 0.92 38.51 C-1.45 32.52, -1.18 25.8, 1.51 20.21 C4.21 14.62, 10.55 8.5, 17.09 4.99 C23.63 1.47, 36.78 -0.1, 40.75 -0.88 C44.71 -1.67, 40.48 -0.33, 40.87 0.26" stroke="#000000" stroke-width="1" fill="none"></path></g><g transform="translate(266.9632339405264 121.16363639262374) rotate(0 15.689994812011719 12.5)"><text x="15.689994812011719" y="0" font-family="Virgil, Segoe UI Emoji" font-size="20px" fill="#000000" text-anchor="middle" style="white-space: pre;" direction="ltr" dominant-baseline="text-before-edge">{ }</text></g><g mask="url(#mask-qVHRf11YCbRPef5tY8C6t)" stroke-linecap="round"><g transform="translate(323.1350177193928 128.49697665948156) rotate(0 86.41443433711308 -5.62956108389568)"><path d="M-0.08 -0.07 C12.02 -3.34, 44.28 -21.69, 72.98 -19.91 C101.68 -18.12, 155.54 5.68, 172.12 10.63 M-1.58 -1.15 C10.86 -4.77, 45.9 -23.46, 75.23 -21.79 C104.57 -20.11, 158.24 3.41, 174.41 8.88" stroke="#000000" stroke-width="1" fill="none"></path></g><g transform="translate(323.1350177193928 128.49697665948156) rotate(0 86.41443433711308 -5.62956108389568)"><path d="M144.3 7.02 C155.17 6.75, 166.26 7.45, 174.92 7.36 M144.6 8.88 C154 8.78, 163.17 9.21, 173.78 8.91" stroke="#000000" stroke-width="1" fill="none"></path></g><g transform="translate(323.1350177193928 128.49697665948156) rotate(0 86.41443433711308 -5.62956108389568)"><path d="M151.57 -12.17 C159.98 -6.06, 168.65 1.02, 174.92 7.36 M151.87 -10.31 C159.21 -4.7, 166.2 1.49, 173.78 8.91" stroke="#000000" stroke-width="1" fill="none"></path></g></g><mask id="mask-qVHRf11YCbRPef5tY8C6t"><rect x="0" y="0" fill="#fff" width="596.3866301792797" height="258.3658293473204"></rect><rect x="390.33000183105474" y="95.625" fill="#000" width="13.339996337890625" height="25" opacity="1"></rect></mask><g transform="translate(390.3300018310547 95.625) rotate(0 19.219450225451197 27.24241557558588)"><text x="6.6699981689453125" y="0" font-family="Virgil, Segoe UI Emoji" font-size="20px" fill="#000000" text-anchor="middle" style="white-space: pre;" direction="ltr" dominant-baseline="text-before-edge">a</text></g><g mask="url(#mask-H6uekqD-xGhBZA1832hbS)" stroke-linecap="round"><g transform="translate(322.9883514158994 142.80038539574525) rotate(0 87.7165401121452 15.343227645849936)"><path d="M-0.08 -0.07 C11.37 5.27, 40 30.57, 69.13 31.79 C98.26 33.01, 157.06 11.48, 174.72 7.25 M-1.58 -1.15 C10.21 3.85, 41.61 28.8, 71.38 29.91 C101.15 31.02, 159.77 9.2, 177.02 5.5" stroke="#000000" stroke-width="1" fill="none"></path></g><g transform="translate(322.9883514158994 142.80038539574525) rotate(0 87.7165401121452 15.343227645849936)"><path d="M152.63 21.67 C161.64 15.39, 170.83 10.09, 177.52 3.97 M152.93 23.53 C160.49 17.96, 167.94 12.97, 176.38 5.53" stroke="#000000" stroke-width="1" fill="none"></path></g><g transform="translate(322.9883514158994 142.80038539574525) rotate(0 87.7165401121452 15.343227645849936)"><path d="M146.97 1.94 C157.82 2.23, 168.89 3.5, 177.52 3.97 M147.27 3.8 C156.66 4.21, 165.81 5.15, 176.38 5.53" stroke="#000000" stroke-width="1" fill="none"></path></g></g><mask id="mask-H6uekqD-xGhBZA1832hbS"><rect x="0" y="0" fill="#fff" width="598.8441754258505" height="274.125"></rect><rect x="387.92000579833984" y="161.625" fill="#000" width="10.159988403320312" height="25" opacity="1"></rect></mask><g transform="translate(387.92000579833984 161.625) rotate(0 22.78488572970474 -3.481386958404812)"><text x="5.079994201660156" y="0" font-family="Virgil, Segoe UI Emoji" font-size="20px" fill="#000000" text-anchor="middle" style="white-space: pre;" direction="ltr" dominant-baseline="text-before-edge">b</text></g><g stroke-linecap="round" transform="translate(11.4375 193.9375) rotate(0 62 23.5)"><path d="M11.75 0 M11.75 0 C40.96 1.14, 70.18 0.6, 112.25 0 M11.75 0 C43.38 -0.04, 74.97 -1.39, 112.25 0 M112.25 0 C121.52 1.87, 125.71 2.51, 124 11.75 M112.25 0 C121.82 1.31, 121.82 3.08, 124 11.75 M124 11.75 C123.97 17.26, 123.33 25.98, 124 35.25 M124 11.75 C123.1 17.23, 123.68 22.53, 124 35.25 M124 35.25 C125.66 44.2, 119.52 46.47, 112.25 47 M124 35.25 C123.97 42.79, 118.05 46.16, 112.25 47 M112.25 47 C73.72 47.53, 32.72 45.82, 11.75 47 M112.25 47 C85.9 45.72, 58.71 47.53, 11.75 47 M11.75 47 C3.94 45.39, -0.01 42.21, 0 35.25 M11.75 47 C2.97 45.19, -1.44 43.8, 0 35.25 M0 35.25 C-1.09 27.8, 1.87 16.75, 0 11.75 M0 35.25 C0.94 26.83, 0.28 20.8, 0 11.75 M0 11.75 C-1.6 3.88, 2.22 -1.98, 11.75 0 M0 11.75 C0.73 1.94, 5.36 -0.43, 11.75 0" stroke="#000000" stroke-width="1" fill="none"></path></g><g transform="translate(35.757537841796875 204.9375) rotate(0 37.679962158203125 12.5)"><text x="37.679962158203125" y="0" font-family="Virgil, Segoe UI Emoji" font-size="20px" fill="#000000" text-anchor="middle" style="white-space: pre;" direction="ltr" dominant-baseline="text-before-edge">objeto2</text></g><g stroke-linecap="round"><g transform="translate(137.4375 219.7679487415444) rotate(0 51.515114573323984 1.4019035489077396)"><path d="M-1.06 -0.44 C16.29 0.16, 86.82 2.61, 104.09 3.46 M0.58 -1.72 C17.87 -0.98, 86.87 3.21, 103.7 4.52" stroke="#000000" stroke-width="1" fill="none"></path></g><g transform="translate(137.4375 219.7679487415444) rotate(0 51.515114573323984 1.4019035489077396)"><path d="M74.15 14.62 C81.98 9.85, 92.57 9.04, 102.14 3.73 M75.24 12.04 C82.36 11.78, 90.16 7.76, 103.69 4.09" stroke="#000000" stroke-width="1" fill="none"></path></g><g transform="translate(137.4375 219.7679487415444) rotate(0 51.515114573323984 1.4019035489077396)"><path d="M75.53 -5.86 C82.92 -4.52, 93.1 0.8, 102.14 3.73 M76.62 -8.43 C83.49 -3.26, 90.92 -1.84, 103.69 4.09" stroke="#000000" stroke-width="1" fill="none"></path></g></g><mask></mask><g stroke-linecap="round" transform="translate(243.4375 194.9375) rotate(0 40 31.5)"><path d="M25.72 3.02 C32.22 0.64, 42.11 -0.23, 49.52 1.05 C56.94 2.32, 65.1 6.02, 70.22 10.67 C75.34 15.32, 79.6 22.67, 80.26 28.97 C80.92 35.26, 78.54 43.04, 74.19 48.45 C69.84 53.87, 61.65 59.09, 54.17 61.46 C46.69 63.82, 36.82 64.47, 29.32 62.65 C21.82 60.82, 14.01 55.41, 9.16 50.53 C4.32 45.66, 0.89 39.57, 0.28 33.39 C-0.34 27.22, 1.1 18.78, 5.5 13.47 C9.89 8.17, 22.57 3.61, 26.66 1.58 C30.75 -0.45, 29.61 0.67, 30.03 1.29 M42.68 -0.55 C50.02 -1.05, 59.51 1.7, 65.5 5.69 C71.49 9.69, 76.51 17.16, 78.63 23.44 C80.74 29.72, 81.1 37.79, 78.21 43.37 C75.32 48.95, 68.11 53.73, 61.26 56.93 C54.42 60.12, 44.7 62.66, 37.11 62.54 C29.52 62.42, 21.77 60.19, 15.73 56.18 C9.7 52.18, 3.29 44.51, 0.92 38.51 C-1.45 32.52, -1.18 25.8, 1.51 20.21 C4.21 14.62, 10.55 8.5, 17.09 4.99 C23.63 1.47, 36.78 -0.1, 40.75 -0.88 C44.71 -1.67, 40.48 -0.33, 40.87 0.26" stroke="#000000" stroke-width="1" fill="none"></path></g><g transform="translate(267.9632339405264 214.16363639262374) rotate(0 15.689994812011719 12.5)"><text x="15.689994812011719" y="0" font-family="Virgil, Segoe UI Emoji" font-size="20px" fill="#000000" text-anchor="middle" style="white-space: pre;" direction="ltr" dominant-baseline="text-before-edge">{ }</text></g><g mask="url(#mask-HFKkhLTE1hZpAk7gsfq9V)" stroke-linecap="round"><g transform="translate(324.26689306556517 223.47572195855992) rotate(0 85.66419472993448 2.499533521753051)"><path d="M-0.08 -0.07 C28.3 1, 142.25 5, 170.66 6.15 M-1.58 -1.15 C27.14 -0.42, 143.86 3.24, 172.91 4.27" stroke="#000000" stroke-width="1" fill="none"></path></g><g transform="translate(324.26689306556517 223.47572195855992) rotate(0 85.66419472993448 2.499533521753051)"><path d="M144.28 12.13 C154.68 8.62, 165.28 6.09, 173.42 2.75 M144.58 13.99 C153.47 10.95, 162.19 8.46, 172.28 4.3" stroke="#000000" stroke-width="1" fill="none"></path></g><g transform="translate(324.26689306556517 223.47572195855992) rotate(0 85.66419472993448 2.499533521753051)"><path d="M144.96 -8.38 C155.09 -5.07, 165.46 -0.78, 173.42 2.75 M145.26 -6.52 C154.08 -3.4, 162.6 0.27, 172.28 4.3" stroke="#000000" stroke-width="1" fill="none"></path></g></g><mask id="mask-HFKkhLTE1hZpAk7gsfq9V"><rect x="0" y="0" fill="#fff" width="595.810821592207" height="329.1627624888565"></rect><rect x="403.36885915994077" y="213.81924222370822" fill="#000" width="13.339996337890625" height="25" opacity="1"></rect></mask><g transform="translate(403.36885915994077 213.81924222370822) rotate(0 6.562228635558824 12.156013256604751)"><text x="6.6699981689453125" y="0" font-family="Virgil, Segoe UI Emoji" font-size="20px" fill="#000000" text-anchor="middle" style="white-space: pre;" direction="ltr" dominant-baseline="text-before-edge">a</text></g><g mask="url(#mask-it99Fh6y8c3dsyEYZJZeU)" stroke-linecap="round"><g transform="translate(323.3318793311111 233.93405535751867) rotate(0 92.85951919006021 27.18843629584535)"><path d="M-0.08 -0.07 C30.7 9.23, 154.24 46.15, 185.05 55.53 M-1.58 -1.15 C29.53 7.81, 155.86 44.38, 187.3 53.65" stroke="#000000" stroke-width="1" fill="none"></path></g><g transform="translate(323.3318793311111 233.93405535751867) rotate(0 92.85951919006021 27.18843629584535)"><path d="M157.25 54.14 C168.11 53.08, 179.18 53, 187.81 52.12 M157.55 56 C166.91 55.19, 176.07 54.91, 186.67 53.68" stroke="#000000" stroke-width="1" fill="none"></path></g><g transform="translate(323.3318793311111 233.93405535751867) rotate(0 92.85951919006021 27.18843629584535)"><path d="M163 34.44 C171.9 39.93, 181.06 46.41, 187.81 52.12 M163.3 36.3 C171.07 41.37, 178.49 47.01, 186.67 53.68" stroke="#000000" stroke-width="1" fill="none"></path></g></g><mask id="mask-it99Fh6y8c3dsyEYZJZeU"><rect x="0" y="0" fill="#fff" width="609.2664567780043" height="388.99890143599987"></rect><rect x="411.21917385289754" y="248.96647839675938" fill="#000" width="10.159988403320312" height="25" opacity="1"></rect></mask><g transform="translate(411.21917385289754 248.96647839675927) rotate(0 4.972224668273725 12.156013256604751)"><text x="5.079994201660156" y="0" font-family="Virgil, Segoe UI Emoji" font-size="20px" fill="#000000" text-anchor="middle" style="white-space: pre;" direction="ltr" dominant-baseline="text-before-edge">b</text></g><g stroke-linecap="round" transform="translate(501 118.625) rotate(0 95 24.5)"><path d="M125.47 2.16 C138.29 2.65, 151.27 4.33, 160.99 6.54 C170.71 8.75, 178.97 12.17, 183.79 15.41 C188.61 18.66, 191.17 22.28, 189.9 26.02 C188.62 29.76, 183.35 34.73, 176.13 37.86 C168.91 41, 158.22 42.91, 146.58 44.83 C134.95 46.75, 120 48.76, 106.32 49.4 C92.64 50.05, 77.38 49.87, 64.5 48.68 C51.63 47.5, 38.93 45.06, 29.06 42.29 C19.18 39.53, 10 35.52, 5.27 32.09 C0.54 28.65, -0.85 25.06, 0.65 21.69 C2.15 18.31, 7.24 14.83, 14.25 11.85 C21.26 8.88, 31.25 5.69, 42.72 3.83 C54.2 1.96, 68.4 1.12, 83.09 0.67 C97.79 0.23, 122.62 0.79, 130.91 1.16 C139.2 1.52, 133.71 2.44, 132.84 2.86 M51.18 3.23 C62.34 1.17, 80.73 0.23, 94.6 0.16 C108.47 0.09, 122.32 1.51, 134.37 2.8 C146.43 4.08, 158.1 5.44, 166.92 7.85 C175.75 10.25, 183.94 13.59, 187.33 17.24 C190.73 20.89, 190.1 26.16, 187.29 29.74 C184.48 33.33, 178.82 36.19, 170.46 38.73 C162.11 41.28, 149.69 43.37, 137.14 44.99 C124.59 46.61, 108.81 48.31, 95.18 48.46 C81.54 48.61, 67.81 47.25, 55.32 45.9 C42.83 44.55, 28.87 43.11, 20.24 40.37 C11.61 37.64, 6.73 32.8, 3.53 29.51 C0.32 26.23, -1.67 23.93, 1.01 20.65 C3.7 17.36, 10.96 12.8, 19.63 9.79 C28.29 6.79, 47.34 3.84, 53.01 2.6 C58.68 1.37, 53.05 2.22, 53.64 2.38" stroke="#000000" stroke-width="1" fill="none"></path></g><g transform="translate(586.2348594493874 130.80088386092962) rotate(0 9.589996337890625 12.5)"><text x="9.589996337890625" y="0" font-family="Virgil, Segoe UI Emoji" font-size="20px" fill="#000000" text-anchor="middle" style="white-space: pre;" direction="ltr" dominant-baseline="text-before-edge">10</text></g><g stroke-linecap="round" transform="translate(501 203.625) rotate(0 95 24.5)"><path d="M125.47 2.16 C138.29 2.65, 151.27 4.33, 160.99 6.54 C170.71 8.75, 178.97 12.17, 183.79 15.41 C188.61 18.66, 191.17 22.28, 189.9 26.02 C188.62 29.76, 183.35 34.73, 176.13 37.86 C168.91 41, 158.22 42.91, 146.58 44.83 C134.95 46.75, 120 48.76, 106.32 49.4 C92.64 50.05, 77.38 49.87, 64.5 48.68 C51.63 47.5, 38.93 45.06, 29.06 42.29 C19.18 39.53, 10 35.52, 5.27 32.09 C0.54 28.65, -0.85 25.06, 0.65 21.69 C2.15 18.31, 7.24 14.83, 14.25 11.85 C21.26 8.88, 31.25 5.69, 42.72 3.83 C54.2 1.96, 68.4 1.12, 83.09 0.67 C97.79 0.23, 122.62 0.79, 130.91 1.16 C139.2 1.52, 133.71 2.44, 132.84 2.86 M51.18 3.23 C62.34 1.17, 80.73 0.23, 94.6 0.16 C108.47 0.09, 122.32 1.51, 134.37 2.8 C146.43 4.08, 158.1 5.44, 166.92 7.85 C175.75 10.25, 183.94 13.59, 187.33 17.24 C190.73 20.89, 190.1 26.16, 187.29 29.74 C184.48 33.33, 178.82 36.19, 170.46 38.73 C162.11 41.28, 149.69 43.37, 137.14 44.99 C124.59 46.61, 108.81 48.31, 95.18 48.46 C81.54 48.61, 67.81 47.25, 55.32 45.9 C42.83 44.55, 28.87 43.11, 20.24 40.37 C11.61 37.64, 6.73 32.8, 3.53 29.51 C0.32 26.23, -1.67 23.93, 1.01 20.65 C3.7 17.36, 10.96 12.8, 19.63 9.79 C28.29 6.79, 47.34 3.84, 53.01 2.6 C58.68 1.37, 53.05 2.22, 53.64 2.38" stroke="#000000" stroke-width="1" fill="none"></path></g><g transform="translate(586.9348640270241 215.80088386092962) rotate(0 8.889991760253906 12.5)"><text x="8.889991760253906" y="0" font-family="Virgil, Segoe UI Emoji" font-size="20px" fill="#000000" text-anchor="middle" style="white-space: pre;" direction="ltr" dominant-baseline="text-before-edge">15</text></g><g stroke-linecap="round" transform="translate(499 20.625) rotate(0 95 24.5)"><path d="M125.47 2.16 C138.29 2.65, 151.27 4.33, 160.99 6.54 C170.71 8.75, 178.97 12.17, 183.79 15.41 C188.61 18.66, 191.17 22.28, 189.9 26.02 C188.62 29.76, 183.35 34.73, 176.13 37.86 C168.91 41, 158.22 42.91, 146.58 44.83 C134.95 46.75, 120 48.76, 106.32 49.4 C92.64 50.05, 77.38 49.87, 64.5 48.68 C51.63 47.5, 38.93 45.06, 29.06 42.29 C19.18 39.53, 10 35.52, 5.27 32.09 C0.54 28.65, -0.85 25.06, 0.65 21.69 C2.15 18.31, 7.24 14.83, 14.25 11.85 C21.26 8.88, 31.25 5.69, 42.72 3.83 C54.2 1.96, 68.4 1.12, 83.09 0.67 C97.79 0.23, 122.62 0.79, 130.91 1.16 C139.2 1.52, 133.71 2.44, 132.84 2.86 M51.18 3.23 C62.34 1.17, 80.73 0.23, 94.6 0.16 C108.47 0.09, 122.32 1.51, 134.37 2.8 C146.43 4.08, 158.1 5.44, 166.92 7.85 C175.75 10.25, 183.94 13.59, 187.33 17.24 C190.73 20.89, 190.1 26.16, 187.29 29.74 C184.48 33.33, 178.82 36.19, 170.46 38.73 C162.11 41.28, 149.69 43.37, 137.14 44.99 C124.59 46.61, 108.81 48.31, 95.18 48.46 C81.54 48.61, 67.81 47.25, 55.32 45.9 C42.83 44.55, 28.87 43.11, 20.24 40.37 C11.61 37.64, 6.73 32.8, 3.53 29.51 C0.32 26.23, -1.67 23.93, 1.01 20.65 C3.7 17.36, 10.96 12.8, 19.63 9.79 C28.29 6.79, 47.34 3.84, 53.01 2.6 C58.68 1.37, 53.05 2.22, 53.64 2.38" stroke="#000000" stroke-width="1" fill="none"></path></g><g transform="translate(549.4349021739968 32.800883860929616) rotate(0 44.38995361328125 12.5)"><text x="44.38995361328125" y="0" font-family="Virgil, Segoe UI Emoji" font-size="20px" fill="#000000" text-anchor="middle" style="white-space: pre;" direction="ltr" dominant-baseline="text-before-edge">undefined</text></g></svg>