<svg version="1.1" xmlns="http://www.w3.org/2000/svg" viewBox="0 0 1395.0863753930958 740.8530514417025" width="1395.0863753930958" height="740.8530514417025">
  <!-- svg-source:excalidraw -->
  
  <defs>
    <style class="style-fonts">
      @font-face {
        font-family: "Virgil";
        src: url("https://unpkg.com/@excalidraw/excalidraw@0.15.3/dist/excalidraw-assets/Virgil.woff2");
      }
      @font-face {
        font-family: "Cascadia";
        src: url("https://unpkg.com/@excalidraw/excalidraw@0.15.3/dist/excalidraw-assets/Cascadia.woff2");
      }
    </style>
  </defs>
  <rect x="0" y="0" width="1395.0863753930958" height="740.8530514417025" fill="#ffffff"></rect><g stroke-linecap="round" transform="translate(1074.43186520318 50.31966468672522) rotate(0 62 23.5)"><path d="M11.75 0 M11.75 0 C40.96 1.14, 70.18 0.6, 112.25 0 M11.75 0 C43.38 -0.04, 74.97 -1.39, 112.25 0 M112.25 0 C121.52 1.87, 125.71 2.51, 124 11.75 M112.25 0 C121.82 1.31, 121.82 3.08, 124 11.75 M124 11.75 C123.97 17.26, 123.33 25.98, 124 35.25 M124 11.75 C123.1 17.23, 123.68 22.53, 124 35.25 M124 35.25 C125.66 44.2, 119.52 46.47, 112.25 47 M124 35.25 C123.97 42.79, 118.05 46.16, 112.25 47 M112.25 47 C73.72 47.53, 32.72 45.82, 11.75 47 M112.25 47 C85.9 45.72, 58.71 47.53, 11.75 47 M11.75 47 C3.94 45.39, -0.01 42.21, 0 35.25 M11.75 47 C2.97 45.19, -1.44 43.8, 0 35.25 M0 35.25 C-1.09 27.8, 1.87 16.75, 0 11.75 M0 35.25 C0.94 26.83, 0.28 20.8, 0 11.75 M0 11.75 C-1.6 3.88, 2.22 -1.98, 11.75 0 M0 11.75 C0.73 1.94, 5.36 -0.43, 11.75 0" stroke="#000000" stroke-width="1" fill="none"></path></g><g transform="translate(1101.1719012139222 61.31966468672522) rotate(0 35.25996398925781 12.5)"><text x="35.25996398925781" y="0" font-family="Virgil, Segoe UI Emoji" font-size="20px" fill="#000000" text-anchor="middle" style="white-space: pre;" direction="ltr" dominant-baseline="text-before-edge">petunia</text></g><g stroke-linecap="round"><g transform="translate(1133.183914730057 99.31966468672522) rotate(0 -0.24475947214841653 31.87243671012891)"><path d="M-1.06 -0.44 C-1.17 10.32, -0.47 53.4, -0.66 64.4 M0.58 -1.72 C0.41 9.18, -0.43 54, -1.05 65.46" stroke="#000000" stroke-width="1" fill="none"></path></g><g transform="translate(1133.183914730057 99.31966468672522) rotate(0 -0.24475947214841653 31.87243671012891)"><path d="M-11.08 38.69 C-9.13 44.77, -4.37 54.98, -2.61 64.67 M-9.99 36.12 C-7.85 45.56, -5.24 51.34, -1.06 65.03" stroke="#000000" stroke-width="1" fill="none"></path></g><g transform="translate(1133.183914730057 99.31966468672522) rotate(0 -0.24475947214841653 31.87243671012891)"><path d="M9.43 39.4 C5.25 45.08, 3.88 55.09, -2.61 64.67 M10.52 36.82 C7.21 45.98, 4.37 51.57, -1.06 65.03" stroke="#000000" stroke-width="1" fill="none"></path></g></g><mask></mask><g stroke-linecap="round" transform="translate(1087.43186520318 167.74823611529678) rotate(0 40 31.5)"><path d="M25.72 3.02 C32.22 0.64, 42.11 -0.23, 49.52 1.05 C56.94 2.32, 65.1 6.02, 70.22 10.67 C75.34 15.32, 79.6 22.67, 80.26 28.97 C80.92 35.26, 78.54 43.04, 74.19 48.45 C69.84 53.87, 61.65 59.09, 54.17 61.46 C46.69 63.82, 36.82 64.47, 29.32 62.65 C21.82 60.82, 14.01 55.41, 9.16 50.53 C4.32 45.66, 0.89 39.57, 0.28 33.39 C-0.34 27.22, 1.1 18.78, 5.5 13.47 C9.89 8.17, 22.57 3.61, 26.66 1.58 C30.75 -0.45, 29.61 0.67, 30.03 1.29 M42.68 -0.55 C50.02 -1.05, 59.51 1.7, 65.5 5.69 C71.49 9.69, 76.51 17.16, 78.63 23.44 C80.74 29.72, 81.1 37.79, 78.21 43.37 C75.32 48.95, 68.11 53.73, 61.26 56.93 C54.42 60.12, 44.7 62.66, 37.11 62.54 C29.52 62.42, 21.77 60.19, 15.73 56.18 C9.7 52.18, 3.29 44.51, 0.92 38.51 C-1.45 32.52, -1.18 25.8, 1.51 20.21 C4.21 14.62, 10.55 8.5, 17.09 4.99 C23.63 1.47, 36.78 -0.1, 40.75 -0.88 C44.71 -1.67, 40.48 -0.33, 40.87 0.26" stroke="#000000" stroke-width="1" fill="none"></path></g><g transform="translate(1111.9575991437064 186.97437250792063) rotate(0 15.689994812011719 12.5)"><text x="15.689994812011719" y="0" font-family="Virgil, Segoe UI Emoji" font-size="20px" fill="#000000" text-anchor="middle" style="white-space: pre;" direction="ltr" dominant-baseline="text-before-edge">{ }</text></g><g stroke-linecap="round" transform="translate(1087.208760103509 324.8032420002471) rotate(0 95 24.5)"><path d="M125.47 2.16 C138.29 2.65, 151.27 4.33, 160.99 6.54 C170.71 8.75, 178.97 12.17, 183.79 15.41 C188.61 18.66, 191.17 22.28, 189.9 26.02 C188.62 29.76, 183.35 34.73, 176.13 37.86 C168.91 41, 158.22 42.91, 146.58 44.83 C134.95 46.75, 120 48.76, 106.32 49.4 C92.64 50.05, 77.38 49.87, 64.5 48.68 C51.63 47.5, 38.93 45.06, 29.06 42.29 C19.18 39.53, 10 35.52, 5.27 32.09 C0.54 28.65, -0.85 25.06, 0.65 21.69 C2.15 18.31, 7.24 14.83, 14.25 11.85 C21.26 8.88, 31.25 5.69, 42.72 3.83 C54.2 1.96, 68.4 1.12, 83.09 0.67 C97.79 0.23, 122.62 0.79, 130.91 1.16 C139.2 1.52, 133.71 2.44, 132.84 2.86 M51.18 3.23 C62.34 1.17, 80.73 0.23, 94.6 0.16 C108.47 0.09, 122.32 1.51, 134.37 2.8 C146.43 4.08, 158.1 5.44, 166.92 7.85 C175.75 10.25, 183.94 13.59, 187.33 17.24 C190.73 20.89, 190.1 26.16, 187.29 29.74 C184.48 33.33, 178.82 36.19, 170.46 38.73 C162.11 41.28, 149.69 43.37, 137.14 44.99 C124.59 46.61, 108.81 48.31, 95.18 48.46 C81.54 48.61, 67.81 47.25, 55.32 45.9 C42.83 44.55, 28.87 43.11, 20.24 40.37 C11.61 37.64, 6.73 32.8, 3.53 29.51 C0.32 26.23, -1.67 23.93, 1.01 20.65 C3.7 17.36, 10.96 12.8, 19.63 9.79 C28.29 6.79, 47.34 3.84, 53.01 2.6 C58.68 1.37, 53.05 2.22, 53.64 2.38" stroke="#000000" stroke-width="1" fill="none"></path></g><g transform="translate(1138.5336540377596 336.9791258611767) rotate(0 43.499961853027344 12.5)"><text x="43.499961853027344" y="0" font-family="Virgil, Segoe UI Emoji" font-size="20px" fill="#000000" text-anchor="middle" style="white-space: pre;" direction="ltr" dominant-baseline="text-before-edge">"Petunia"</text></g><g mask="url(#mask-MDIUYxcOWtDRG71XeCnPM)" stroke-linecap="round"><g transform="translate(561.8112676811802 59.37619487709935) rotate(0 71.77861857603884 0.5505562808162949)"><path d="M-0.08 -0.07 C23.67 0.35, 119.11 1.76, 142.89 2.25 M-1.58 -1.15 C22.51 -1.07, 120.72 -0.01, 145.14 0.38" stroke="#000000" stroke-width="1" fill="none"></path></g><g transform="translate(561.8112676811802 59.37619487709935) rotate(0 71.77861857603884 0.5505562808162949)"><path d="M116.7 8.81 C127.04 5.11, 137.58 2.38, 145.65 -1.15 M117 10.66 C125.83 7.46, 134.5 4.79, 144.51 0.41" stroke="#000000" stroke-width="1" fill="none"></path></g><g transform="translate(561.8112676811802 59.37619487709935) rotate(0 71.77861857603884 0.5505562808162949)"><path d="M116.97 -11.71 C127.17 -8.59, 137.62 -4.48, 145.65 -1.15 M117.27 -9.86 C126.15 -6.9, 134.74 -3.4, 144.51 0.41" stroke="#000000" stroke-width="1" fill="none"></path></g></g><mask id="mask-MDIUYxcOWtDRG71XeCnPM"><rect x="0" y="0" fill="#fff" width="805.5840439000308" height="161.16528092552244"></rect><rect x="602.3076869185352" y="47.770737901310895" fill="#000" width="62.779937744140625" height="25" opacity="1"></rect></mask><g transform="translate(602.3076869185352 47.770737901310895) rotate(0 31.282199338683853 12.156013256604751)"><text x="31.389968872070312" y="0" font-family="Virgil, Segoe UI Emoji" font-size="20px" fill="#000000" text-anchor="middle" style="white-space: pre;" direction="ltr" dominant-baseline="text-before-edge">nombre</text></g><g mask="url(#mask-NmfDqnJFaLHIOzdG5vSjv)" stroke-linecap="round"><g transform="translate(1140.5486985874709 230.76892204733645) rotate(0 7.679313902978151 44.82402478566928)"><path d="M-0.08 -0.07 C2.3 15.11, 12.27 75.54, 14.69 90.8 M-1.58 -1.15 C1.14 13.68, 13.89 73.78, 16.94 88.92" stroke="#000000" stroke-width="1" fill="none"></path></g><g transform="translate(1140.5486985874709 230.76892204733645) rotate(0 7.679313902978151 44.82402478566928)"><path d="M1.06 61.93 C7.14 70.01, 13.5 79.07, 17.45 87.39 M1.36 63.79 C6.65 71.13, 11.55 79.11, 16.31 88.95" stroke="#000000" stroke-width="1" fill="none"></path></g><g transform="translate(1140.5486985874709 230.76892204733645) rotate(0 7.679313902978151 44.82402478566928)"><path d="M21.15 57.77 C20.54 67.22, 20.21 77.66, 17.45 87.39 M21.45 59.63 C20.73 68.06, 19.59 77.29, 16.31 88.95" stroke="#000000" stroke-width="1" fill="none"></path></g></g><mask id="mask-NmfDqnJFaLHIOzdG5vSjv"><rect x="0" y="0" fill="#fff" width="1256.1228654602" height="421.1049451054655"></rect><rect x="1116.9458131517652" y="263.43693357640063" fill="#000" width="62.779937744140625" height="25" opacity="1"></rect></mask><g transform="translate(1116.9458131517652 263.43693357640086) rotate(0 31.28219933868388 12.156013256604865)"><text x="31.389968872070312" y="0" font-family="Virgil, Segoe UI Emoji" font-size="20px" fill="#000000" text-anchor="middle" style="white-space: pre;" direction="ltr" dominant-baseline="text-before-edge">nombre</text></g><g stroke-linecap="round" transform="translate(706.6373315320802 38.99967057167555) rotate(0 95 24.5)"><path d="M125.47 2.16 C138.29 2.65, 151.27 4.33, 160.99 6.54 C170.71 8.75, 178.97 12.17, 183.79 15.41 C188.61 18.66, 191.17 22.28, 189.9 26.02 C188.62 29.76, 183.35 34.73, 176.13 37.86 C168.91 41, 158.22 42.91, 146.58 44.83 C134.95 46.75, 120 48.76, 106.32 49.4 C92.64 50.05, 77.38 49.87, 64.5 48.68 C51.63 47.5, 38.93 45.06, 29.06 42.29 C19.18 39.53, 10 35.52, 5.27 32.09 C0.54 28.65, -0.85 25.06, 0.65 21.69 C2.15 18.31, 7.24 14.83, 14.25 11.85 C21.26 8.88, 31.25 5.69, 42.72 3.83 C54.2 1.96, 68.4 1.12, 83.09 0.67 C97.79 0.23, 122.62 0.79, 130.91 1.16 C139.2 1.52, 133.71 2.44, 132.84 2.86 M51.18 3.23 C62.34 1.17, 80.73 0.23, 94.6 0.16 C108.47 0.09, 122.32 1.51, 134.37 2.8 C146.43 4.08, 158.1 5.44, 166.92 7.85 C175.75 10.25, 183.94 13.59, 187.33 17.24 C190.73 20.89, 190.1 26.16, 187.29 29.74 C184.48 33.33, 178.82 36.19, 170.46 38.73 C162.11 41.28, 149.69 43.37, 137.14 44.99 C124.59 46.61, 108.81 48.31, 95.18 48.46 C81.54 48.61, 67.81 47.25, 55.32 45.9 C42.83 44.55, 28.87 43.11, 20.24 40.37 C11.61 37.64, 6.73 32.8, 3.53 29.51 C0.32 26.23, -1.67 23.93, 1.01 20.65 C3.7 17.36, 10.96 12.8, 19.63 9.79 C28.29 6.79, 47.34 3.84, 53.01 2.6 C58.68 1.37, 53.05 2.22, 53.64 2.38" stroke="#000000" stroke-width="1" fill="none"></path></g><g transform="translate(749.1222443872293 51.17555443260517) rotate(0 52.339942932128906 12.5)"><text x="52.339942932128906" y="0" font-family="Virgil, Segoe UI Emoji" font-size="20px" fill="#000000" text-anchor="middle" style="white-space: pre;" direction="ltr" dominant-baseline="text-before-edge">this.nombre</text></g><g stroke-linecap="round" transform="translate(193.5531181456554 26.007936507935938) rotate(0 70.5 24)"><path d="M12 0 M12 0 C46.02 1.3, 80.06 0.76, 129 0 M12 0 C48.9 -0.14, 85.76 -1.49, 129 0 M129 0 C138.44 1.87, 142.71 2.59, 141 12 M129 0 C138.74 1.31, 138.82 3.16, 141 12 M141 12 C140.97 17.66, 140.33 26.52, 141 36 M141 12 C140.09 17.6, 140.67 23.02, 141 36 M141 36 C142.66 45.12, 136.44 47.47, 129 48 M141 36 C140.97 43.71, 134.97 47.16, 129 48 M129 48 C84.07 48.46, 36.67 46.76, 12 48 M129 48 C98.27 46.64, 66.69 48.46, 12 48 M12 48 C4.02 46.39, -0.01 43.13, 0 36 M12 48 C3.05 46.19, -1.44 44.72, 0 36 M0 36 C-1.09 28.35, 1.87 17.11, 0 12 M0 36 C0.94 27.41, 0.29 21.23, 0 12 M0 12 C-1.6 3.96, 2.31 -1.98, 12 0 M0 12 C0.73 2.02, 5.44 -0.43, 12 0" stroke="#000000" stroke-width="1" fill="none"></path></g><g transform="translate(225.3631538512218 37.50793650793594) rotate(0 38.689964294433594 12.5)"><text x="38.689964294433594" y="0" font-family="Virgil, Segoe UI Emoji" font-size="20px" fill="#000000" text-anchor="middle" style="white-space: pre;" direction="ltr" dominant-baseline="text-before-edge">Persona</text></g><g stroke-linecap="round" transform="translate(404.79788840964227 193.00793650793662) rotate(0 40 31.5)"><path d="M25.72 3.02 C32.22 0.64, 42.11 -0.23, 49.52 1.05 C56.94 2.32, 65.1 6.02, 70.22 10.67 C75.34 15.32, 79.6 22.67, 80.26 28.97 C80.92 35.26, 78.54 43.04, 74.19 48.45 C69.84 53.87, 61.65 59.09, 54.17 61.46 C46.69 63.82, 36.82 64.47, 29.32 62.65 C21.82 60.82, 14.01 55.41, 9.16 50.53 C4.32 45.66, 0.89 39.57, 0.28 33.39 C-0.34 27.22, 1.1 18.78, 5.5 13.47 C9.89 8.17, 22.57 3.61, 26.66 1.58 C30.75 -0.45, 29.61 0.67, 30.03 1.29 M42.68 -0.55 C50.02 -1.05, 59.51 1.7, 65.5 5.69 C71.49 9.69, 76.51 17.16, 78.63 23.44 C80.74 29.72, 81.1 37.79, 78.21 43.37 C75.32 48.95, 68.11 53.73, 61.26 56.93 C54.42 60.12, 44.7 62.66, 37.11 62.54 C29.52 62.42, 21.77 60.19, 15.73 56.18 C9.7 52.18, 3.29 44.51, 0.92 38.51 C-1.45 32.52, -1.18 25.8, 1.51 20.21 C4.21 14.62, 10.55 8.5, 17.09 4.99 C23.63 1.47, 36.78 -0.1, 40.75 -0.88 C44.71 -1.67, 40.48 -0.33, 40.87 0.26" stroke="#000000" stroke-width="1" fill="none"></path></g><g transform="translate(429.32362235016865 212.23407290056048) rotate(0 15.689994812011719 12.5)"><text x="15.689994812011719" y="0" font-family="Virgil, Segoe UI Emoji" font-size="20px" fill="#000000" text-anchor="middle" style="white-space: pre;" direction="ltr" dominant-baseline="text-before-edge">{ }</text></g><g stroke-linecap="round"><g transform="translate(335.5531181456554 51.55530765801677) rotate(0 41.16138384016218 0.7293231368620354)"><path d="M-1.06 -0.44 C12.84 -0.06, 69.56 1.49, 83.38 2.12 M0.58 -1.72 C14.42 -1.2, 69.61 2.09, 82.99 3.17" stroke="#000000" stroke-width="1" fill="none"></path></g><g transform="translate(335.5531181456554 51.55530765801677) rotate(0 41.16138384016218 0.7293231368620354)"><path d="M53.43 13.26 C61.27 8.49, 71.86 7.69, 81.44 2.38 M54.52 10.68 C61.65 10.42, 69.45 6.4, 82.98 2.74" stroke="#000000" stroke-width="1" fill="none"></path></g><g transform="translate(335.5531181456554 51.55530765801677) rotate(0 41.16138384016218 0.7293231368620354)"><path d="M54.83 -7.22 C62.22 -5.88, 72.4 -0.56, 81.44 2.38 M55.92 -9.79 C62.79 -4.62, 70.22 -3.19, 82.98 2.74" stroke="#000000" stroke-width="1" fill="none"></path></g></g><mask></mask><g stroke-linecap="round" transform="translate(650.9531672228889 137.0032236804086) rotate(0 60.5 24.5)"><path d="M80.01 2.16 C90.09 2.94, 100.7 5.58, 107.4 8.76 C114.1 11.94, 118.96 16.93, 120.21 21.24 C121.47 25.55, 119.73 30.45, 114.91 34.61 C110.09 38.77, 100.75 43.84, 91.29 46.2 C81.84 48.55, 69.19 48.91, 58.19 48.74 C47.2 48.58, 34.31 47.52, 25.32 45.19 C16.33 42.87, 8.24 38.93, 4.24 34.78 C0.23 30.64, -0.62 24.98, 1.3 20.34 C3.23 15.7, 8.39 10.29, 15.81 6.96 C23.23 3.63, 34.48 1.19, 45.83 0.35 C57.19 -0.48, 77.2 1.54, 83.91 1.96 C90.62 2.37, 86.54 2.43, 86.09 2.87 M89.66 1.81 C99.23 3.51, 107.81 7, 113.07 11.32 C118.34 15.63, 122.1 22.93, 121.23 27.67 C120.36 32.41, 114.22 36.44, 107.84 39.76 C101.47 43.08, 93.04 46.06, 82.96 47.6 C72.88 49.13, 58.45 50.13, 47.37 49 C36.29 47.86, 24.12 44.24, 16.47 40.8 C8.82 37.36, 3.72 32.45, 1.49 28.35 C-0.73 24.25, -0.71 20.21, 3.1 16.18 C6.91 12.16, 15.6 7.12, 24.34 4.2 C33.08 1.28, 44.94 -1.04, 55.54 -1.33 C66.14 -1.63, 82.4 1.79, 87.96 2.43 C93.51 3.08, 89.38 2.06, 88.89 2.55" stroke="#000000" stroke-width="1" fill="none"></path></g><g transform="translate(708.9632078766301 149.17910754133823) rotate(0 2.7099990844726562 12.5)"><text x="2.7099990844726562" y="0" font-family="Virgil, Segoe UI Emoji" font-size="20px" fill="#000000" text-anchor="middle" style="white-space: pre;" direction="ltr" dominant-baseline="text-before-edge">1</text></g><g mask="url(#mask-DoEB1GfzKd8pKPxqfJTnD)" stroke-linecap="round"><g transform="translate(556.2352885407319 76.0718938187465) rotate(0 53.50251934489316 36.82565002800459)"><path d="M-0.08 -0.07 C17.58 12.44, 88.65 62.21, 106.34 74.8 M-1.58 -1.15 C16.41 11.02, 90.26 60.45, 108.59 72.93" stroke="#000000" stroke-width="1" fill="none"></path></g><g transform="translate(556.2352885407319 76.0718938187465) rotate(0 53.50251934489316 36.82565002800459)"><path d="M79.36 64.2 C89.92 66.21, 100.72 69.19, 109.1 71.4 M79.66 66.06 C88.84 68.02, 97.75 70.51, 107.95 72.96" stroke="#000000" stroke-width="1" fill="none"></path></g><g transform="translate(556.2352885407319 76.0718938187465) rotate(0 53.50251934489316 36.82565002800459)"><path d="M90.84 47.19 C97.54 54.85, 104.52 63.49, 109.1 71.4 M91.13 49.05 C96.98 56.03, 102.44 63.63, 107.95 72.96" stroke="#000000" stroke-width="1" fill="none"></path></g></g><mask id="mask-DoEB1GfzKd8pKPxqfJTnD"><rect x="0" y="0" fill="#fff" width="763.4558662972911" height="250.41116736154618"></rect><rect x="581.4756051900075" y="100.74153059014634" fill="#000" width="56.73994445800781" height="25" opacity="1"></rect></mask><g transform="translate(581.4756051900076 100.74153059014634) rotate(0 28.262202695617447 12.156013256604751)"><text x="28.369972229003906" y="0" font-family="Virgil, Segoe UI Emoji" font-size="20px" fill="#000000" text-anchor="middle" style="white-space: pre;" direction="ltr" dominant-baseline="text-before-edge">length</text></g><g stroke-linecap="round" transform="translate(420.69994354248047 10) rotate(0 68 44.5)"><path d="M53.37 0.98 C63.04 -0.95, 76.08 -0.63, 86.16 1.3 C96.24 3.23, 106.16 7.92, 113.85 12.57 C121.53 17.21, 128.59 22.86, 132.27 29.19 C135.94 35.52, 137.32 43.42, 135.88 50.54 C134.44 57.65, 129.93 66.37, 123.61 71.89 C117.29 77.4, 107.69 80.88, 97.96 83.63 C88.23 86.37, 75.69 88.35, 65.24 88.35 C54.79 88.36, 44.38 86.97, 35.25 83.63 C26.13 80.29, 16.46 74.2, 10.51 68.3 C4.56 62.4, 0.52 55.01, -0.46 48.22 C-1.45 41.43, 0.51 33.97, 4.6 27.58 C8.68 21.2, 14.87 14.45, 24.04 9.9 C33.22 5.36, 52.69 1.76, 59.65 0.32 C66.61 -1.12, 65.71 0.69, 65.79 1.29 M82.41 -0.18 C92.32 0.17, 102.5 4.74, 110.33 9.27 C118.16 13.81, 125.29 20.71, 129.39 27.01 C133.49 33.31, 135.65 40.39, 134.93 47.08 C134.22 53.77, 130.73 61.33, 125.11 67.15 C119.5 72.96, 110.37 78.34, 101.26 81.98 C92.14 85.62, 80.92 88.58, 70.45 88.96 C59.97 89.33, 47.82 87.31, 38.39 84.23 C28.97 81.15, 20.08 75.83, 13.89 70.45 C7.69 65.08, 3.21 58.79, 1.22 51.98 C-0.78 45.17, -1.24 36.11, 1.93 29.58 C5.11 23.06, 12.54 17.36, 20.26 12.82 C27.99 8.28, 38.01 4.09, 48.3 2.34 C58.59 0.58, 76.57 2.49, 82.02 2.31 C87.48 2.12, 81.25 0.93, 81.04 1.23" stroke="#000000" stroke-width="1" fill="none"></path></g><g transform="translate(449.6967223998226 42.03374823719855) rotate(0 38.919960021972656 12.5)"><text x="38.919960021972656" y="0" font-family="Virgil, Segoe UI Emoji" font-size="20px" fill="#000000" text-anchor="middle" style="white-space: pre;" direction="ltr" dominant-baseline="text-before-edge">(nombre)</text></g><g mask="url(#mask-k3BPQzcp0cqFRyxbW54yQ)" stroke-linecap="round"><g transform="translate(475.24703932781983 99.23091165582719) rotate(0 -14.600161612092137 45.689859184974466)"><path d="M0.46 -0.83 C-4.25 14.63, -23.6 76.68, -28.48 92.21 M-0.76 1.35 C-5.65 16.53, -25.39 75.67, -29.66 90.53" stroke="#000000" stroke-width="1" fill="none"></path></g><g transform="translate(475.24703932781983 99.23091165582719) rotate(0 -14.600161612092137 45.689859184974466)"><path d="M-32.39 59.83 C-29.36 67.71, -28.77 78.61, -31.36 91.67 M-31.26 61.27 C-31.19 68.99, -29.26 77.29, -30.42 90.85" stroke="#000000" stroke-width="1" fill="none"></path></g><g transform="translate(475.24703932781983 99.23091165582719) rotate(0 -14.600161612092137 45.689859184974466)"><path d="M-12.81 65.98 C-15.31 72.19, -20.28 81.34, -31.36 91.67 M-11.68 67.42 C-17 73.28, -20.47 79.89, -30.42 90.85" stroke="#000000" stroke-width="1" fill="none"></path></g></g><mask id="mask-k3BPQzcp0cqFRyxbW54yQ"><rect x="0" y="0" fill="#fff" width="603.2929604663776" height="290.59494468650405"></rect><rect x="414.5241352160605" y="132.41292817116573" fill="#000" width="93.39988708496094" height="25" opacity="1"></rect></mask><g transform="translate(414.5241352160605 132.41292817116573) rotate(0 46.122742499667226 12.50784266963592)"><text x="46.69994354248047" y="0" font-family="Virgil, Segoe UI Emoji" font-size="20px" fill="#000000" text-anchor="middle" style="white-space: pre;" direction="ltr" dominant-baseline="text-before-edge">prototype</text></g><g mask="url(#mask-VbAbeTzibYKfdOxztF05X)" stroke-linecap="round"><g transform="translate(404.8100989177635 214.26435941563454) rotate(0 -25.713018626812882 -66.73923946217656)"><path d="M-0.56 -0.3 C-13.49 -10.25, -81.51 -37.45, -77.1 -59.59 C-72.69 -81.74, 8.62 -120.97, 25.88 -133.18 M1.35 -1.5 C-11.26 -11.26, -78.87 -36.3, -74.91 -58.03 C-70.95 -79.77, 8.12 -119.67, 25.11 -131.93" stroke="#000000" stroke-width="1" fill="none"></path></g><g transform="translate(404.8100989177635 214.26435941563454) rotate(0 -25.713018626812882 -66.73923946217656)"><path d="M5.87 -110.15 C12.8 -116.43, 18.91 -123.46, 25.45 -132.14 M6.6 -108 C11.73 -114.88, 17.33 -121.92, 25.99 -131.5" stroke="#000000" stroke-width="1" fill="none"></path></g><g transform="translate(404.8100989177635 214.26435941563454) rotate(0 -25.713018626812882 -66.73923946217656)"><path d="M-4.8 -127.68 C5.79 -127.93, 15.54 -128.98, 25.45 -132.14 M-4.07 -125.53 C3.86 -127.55, 12.38 -129.78, 25.99 -131.5" stroke="#000000" stroke-width="1" fill="none"></path></g></g><mask id="mask-VbAbeTzibYKfdOxztF05X"><rect x="0" y="0" fill="#fff" width="606.8100989177635" height="447.3133543019328"></rect><rect x="271.9000015258789" y="142.12977858202498" fill="#000" width="113.59988403320312" height="25" opacity="1"></rect></mask><g transform="translate(271.9000015258789 142.12977858202498) rotate(0 107.19707876507174 5.395341371433005)"><text x="56.79994201660156" y="0" font-family="Virgil, Segoe UI Emoji" font-size="20px" fill="#000000" text-anchor="middle" style="white-space: pre;" direction="ltr" dominant-baseline="text-before-edge">constructor</text></g><g mask="url(#mask-d0Y9xFm-TwUTNTgZXA2bW)" stroke-linecap="round"><g transform="translate(434.80423975138973 351.63353815439496) rotate(0 2.834572273559491 -44.870747254669254)"><path d="M-0.08 -0.07 C0.69 -14.66, 4.2 -73.28, 5 -87.79 M-1.58 -1.15 C-0.47 -16.08, 5.81 -75.05, 7.25 -89.67" stroke="#000000" stroke-width="1" fill="none"></path></g><g transform="translate(434.80423975138973 351.63353815439496) rotate(0 2.834572273559491 -44.870747254669254)"><path d="M14.47 -62.05 C12.99 -72.16, 11.66 -81.26, 7.76 -91.2 M14.76 -60.19 C12.74 -69.45, 10.69 -77.89, 6.62 -89.64" stroke="#000000" stroke-width="1" fill="none"></path></g><g transform="translate(434.80423975138973 351.63353815439496) rotate(0 2.834572273559491 -44.870747254669254)"><path d="M-5.95 -64.14 C-0.64 -73.54, 4.83 -81.95, 7.76 -91.2 M-5.65 -62.28 C-1.52 -70.75, 2.57 -78.56, 6.62 -89.64" stroke="#000000" stroke-width="1" fill="none"></path></g></g><mask id="mask-d0Y9xFm-TwUTNTgZXA2bW"><rect x="0" y="0" fill="#fff" width="540.6889233652817" height="539.8913936270092"></rect><rect x="406.35661268626535" y="295.00461041808785" fill="#000" width="62.779937744140625" height="25" opacity="1"></rect></mask><g transform="translate(406.3566126862654 295.00461041808785) rotate(0 31.282199338683856 11.75818048163785)"><text x="31.389968872070312" y="0" font-family="Virgil, Segoe UI Emoji" font-size="20px" fill="#000000" text-anchor="middle" style="white-space: pre;" direction="ltr" dominant-baseline="text-before-edge">nombre</text></g><g stroke-linecap="round" transform="translate(693.8196908895181 373.3422500852271) rotate(0 95 24.5)"><path d="M125.47 2.16 C138.29 2.65, 151.27 4.33, 160.99 6.54 C170.71 8.75, 178.97 12.17, 183.79 15.41 C188.61 18.66, 191.17 22.28, 189.9 26.02 C188.62 29.76, 183.35 34.73, 176.13 37.86 C168.91 41, 158.22 42.91, 146.58 44.83 C134.95 46.75, 120 48.76, 106.32 49.4 C92.64 50.05, 77.38 49.87, 64.5 48.68 C51.63 47.5, 38.93 45.06, 29.06 42.29 C19.18 39.53, 10 35.52, 5.27 32.09 C0.54 28.65, -0.85 25.06, 0.65 21.69 C2.15 18.31, 7.24 14.83, 14.25 11.85 C21.26 8.88, 31.25 5.69, 42.72 3.83 C54.2 1.96, 68.4 1.12, 83.09 0.67 C97.79 0.23, 122.62 0.79, 130.91 1.16 C139.2 1.52, 133.71 2.44, 132.84 2.86 M51.18 3.23 C62.34 1.17, 80.73 0.23, 94.6 0.16 C108.47 0.09, 122.32 1.51, 134.37 2.8 C146.43 4.08, 158.1 5.44, 166.92 7.85 C175.75 10.25, 183.94 13.59, 187.33 17.24 C190.73 20.89, 190.1 26.16, 187.29 29.74 C184.48 33.33, 178.82 36.19, 170.46 38.73 C162.11 41.28, 149.69 43.37, 137.14 44.99 C124.59 46.61, 108.81 48.31, 95.18 48.46 C81.54 48.61, 67.81 47.25, 55.32 45.9 C42.83 44.55, 28.87 43.11, 20.24 40.37 C11.61 37.64, 6.73 32.8, 3.53 29.51 C0.32 26.23, -1.67 23.93, 1.01 20.65 C3.7 17.36, 10.96 12.8, 19.63 9.79 C28.29 6.79, 47.34 3.84, 53.01 2.6 C58.68 1.37, 53.05 2.22, 53.64 2.38" stroke="#000000" stroke-width="1" fill="none"></path></g><g transform="translate(743.9045869599993 385.51813394615647) rotate(0 44.739959716796875 12.5)"><text x="44.739959716796875" y="0" font-family="Virgil, Segoe UI Emoji" font-size="20px" fill="#000000" text-anchor="middle" style="white-space: pre;" direction="ltr" dominant-baseline="text-before-edge">this.casa</text></g><g stroke-linecap="round" transform="translate(109.7354775030933 368.3505160214877) rotate(0 70.5 24)"><path d="M12 0 M12 0 C46.02 1.3, 80.06 0.76, 129 0 M12 0 C48.9 -0.14, 85.76 -1.49, 129 0 M129 0 C138.44 1.87, 142.71 2.59, 141 12 M129 0 C138.74 1.31, 138.82 3.16, 141 12 M141 12 C140.97 17.66, 140.33 26.52, 141 36 M141 12 C140.09 17.6, 140.67 23.02, 141 36 M141 36 C142.66 45.12, 136.44 47.47, 129 48 M141 36 C140.97 43.71, 134.97 47.16, 129 48 M129 48 C84.07 48.46, 36.67 46.76, 12 48 M129 48 C98.27 46.64, 66.69 48.46, 12 48 M12 48 C4.02 46.39, -0.01 43.13, 0 36 M12 48 C3.05 46.19, -1.44 44.72, 0 36 M0 36 C-1.09 28.35, 1.87 17.11, 0 12 M0 36 C0.94 27.41, 0.29 21.23, 0 12 M0 12 C-1.6 3.96, 2.31 -1.98, 12 0 M0 12 C0.73 2.02, 5.44 -0.43, 12 0" stroke="#000000" stroke-width="1" fill="none"></path></g><g transform="translate(155.3554955084644 379.8505160214877) rotate(0 24.879981994628906 12.5)"><text x="24.879981994628906" y="0" font-family="Virgil, Segoe UI Emoji" font-size="20px" fill="#000000" text-anchor="middle" style="white-space: pre;" direction="ltr" dominant-baseline="text-before-edge">Mago</text></g><g stroke-linecap="round" transform="translate(324.9802477670802 517.3505160214886) rotate(0 40 31.5)"><path d="M25.72 3.02 C32.22 0.64, 42.11 -0.23, 49.52 1.05 C56.94 2.32, 65.1 6.02, 70.22 10.67 C75.34 15.32, 79.6 22.67, 80.26 28.97 C80.92 35.26, 78.54 43.04, 74.19 48.45 C69.84 53.87, 61.65 59.09, 54.17 61.46 C46.69 63.82, 36.82 64.47, 29.32 62.65 C21.82 60.82, 14.01 55.41, 9.16 50.53 C4.32 45.66, 0.89 39.57, 0.28 33.39 C-0.34 27.22, 1.1 18.78, 5.5 13.47 C9.89 8.17, 22.57 3.61, 26.66 1.58 C30.75 -0.45, 29.61 0.67, 30.03 1.29 M42.68 -0.55 C50.02 -1.05, 59.51 1.7, 65.5 5.69 C71.49 9.69, 76.51 17.16, 78.63 23.44 C80.74 29.72, 81.1 37.79, 78.21 43.37 C75.32 48.95, 68.11 53.73, 61.26 56.93 C54.42 60.12, 44.7 62.66, 37.11 62.54 C29.52 62.42, 21.77 60.19, 15.73 56.18 C9.7 52.18, 3.29 44.51, 0.92 38.51 C-1.45 32.52, -1.18 25.8, 1.51 20.21 C4.21 14.62, 10.55 8.5, 17.09 4.99 C23.63 1.47, 36.78 -0.1, 40.75 -0.88 C44.71 -1.67, 40.48 -0.33, 40.87 0.26" stroke="#000000" stroke-width="1" fill="none"></path></g><g transform="translate(349.5059817076067 536.5766524141122) rotate(0 15.689994812011719 12.5)"><text x="15.689994812011719" y="0" font-family="Virgil, Segoe UI Emoji" font-size="20px" fill="#000000" text-anchor="middle" style="white-space: pre;" direction="ltr" dominant-baseline="text-before-edge">{ }</text></g><g stroke-linecap="round"><g transform="translate(251.7354775030933 393.73238345952564) rotate(0 24.687625893825164 0.057045224857915855)"><path d="M-1.06 -0.44 C7.35 -0.29, 42.11 0.37, 50.44 0.77 M0.58 -1.72 C8.93 -1.42, 42.15 0.97, 50.04 1.83" stroke="#000000" stroke-width="1" fill="none"></path></g><g transform="translate(251.7354775030933 393.73238345952564) rotate(0 24.687625893825164 0.057045224857915855)"><path d="M25.45 10.01 C31.8 5.77, 40.91 5.54, 48.49 1.04 M26.54 7.43 C32.36 7.65, 38.84 4.14, 50.04 1.4" stroke="#000000" stroke-width="1" fill="none"></path></g><g transform="translate(251.7354775030933 393.73238345952564) rotate(0 24.687625893825164 0.057045224857915855)"><path d="M26.91 -6.83 C32.8 -6.05, 41.48 -1.25, 48.49 1.04 M28 -9.4 C33.52 -4.72, 39.62 -3.75, 50.04 1.4" stroke="#000000" stroke-width="1" fill="none"></path></g></g><mask></mask><g stroke-linecap="round" transform="translate(597.1355265803268 490.34580319396036) rotate(0 67 24.5)"><path d="M88.58 2.16 C98.93 2.83, 109.64 5.07, 116.91 7.87 C124.18 10.66, 129.88 15.02, 132.21 18.94 C134.54 22.86, 134.36 27.3, 130.89 31.39 C127.42 35.47, 119.83 40.65, 111.4 43.46 C102.97 46.27, 91.35 47.46, 80.3 48.27 C69.26 49.08, 55.78 49.43, 45.14 48.33 C34.5 47.23, 23.73 44.8, 16.48 41.68 C9.24 38.56, 3.91 33.91, 1.66 29.61 C-0.59 25.32, -0.55 19.88, 2.98 15.91 C6.5 11.93, 14.3 8.3, 22.81 5.75 C31.31 3.2, 42.57 1.27, 54.02 0.6 C65.48 -0.08, 84.62 1.24, 91.52 1.69 C98.42 2.15, 95.54 3.03, 95.4 3.33 M36.22 1.25 C45.26 -0.38, 59.96 0.96, 70.99 1.51 C82.02 2.07, 92.93 2.59, 102.42 4.6 C111.91 6.61, 122.77 9.94, 127.95 13.57 C133.13 17.2, 134.53 22.49, 133.5 26.37 C132.48 30.24, 127.8 33.72, 121.79 36.82 C115.77 39.91, 107.25 42.88, 97.4 44.94 C87.55 47, 73.84 49.26, 62.71 49.16 C51.58 49.05, 39.95 46.8, 30.62 44.31 C21.29 41.81, 12.06 37.8, 6.74 34.18 C1.42 30.57, -2.03 26.62, -1.33 22.64 C-0.62 18.65, 4.87 13.56, 10.96 10.27 C17.04 6.99, 30.67 4.27, 35.19 2.93 C39.7 1.59, 37.48 1.73, 38.07 2.25" stroke="#000000" stroke-width="1" fill="none"></path></g><g transform="translate(657.1393771236405 502.52168705488975) rotate(0 7.1199951171875 12.5)"><text x="7.1199951171875" y="0" font-family="Virgil, Segoe UI Emoji" font-size="20px" fill="#000000" text-anchor="middle" style="white-space: pre;" direction="ltr" dominant-baseline="text-before-edge">2</text></g><g mask="url(#mask-4IZ0khvomh_6VH5-Pr80r)" stroke-linecap="round"><g transform="translate(533.1148078528554 424.1933760649126) rotate(0 34.87163866184321 35.68108823678017)"><path d="M-0.08 -0.07 C11.37 12.06, 57.59 60.31, 69.08 72.52 M-1.58 -1.15 C10.2 10.64, 59.21 58.54, 71.33 70.64" stroke="#000000" stroke-width="1" fill="none"></path></g><g transform="translate(533.1148078528554 424.1933760649126) rotate(0 34.87163866184321 35.68108823678017)"><path d="M43.94 56.67 C53.87 60.42, 64.06 65.15, 71.83 69.11 M44.24 58.53 C52.9 62.05, 61.25 66.11, 70.69 70.67" stroke="#000000" stroke-width="1" fill="none"></path></g><g transform="translate(533.1148078528554 424.1933760649126) rotate(0 34.87163866184321 35.68108823678017)"><path d="M58.35 42.06 C63.46 50.66, 68.85 60.25, 71.83 69.11 M58.65 43.92 C63.08 51.72, 67.1 60.17, 70.69 70.67" stroke="#000000" stroke-width="1" fill="none"></path></g></g><mask id="mask-4IZ0khvomh_6VH5-Pr80r"><rect x="0" y="0" fill="#fff" width="703.0736242433147" height="596.2435260252632"></rect><rect x="539.724243819081" y="447.71845104508793" fill="#000" width="56.73994445800781" height="25" opacity="1"></rect></mask><g transform="translate(539.724243819081 447.71845104508793) rotate(0 28.262202695617447 12.156013256604865)"><text x="28.369972229003906" y="0" font-family="Virgil, Segoe UI Emoji" font-size="20px" fill="#000000" text-anchor="middle" style="white-space: pre;" direction="ltr" dominant-baseline="text-before-edge">length</text></g><g stroke-linecap="round" transform="translate(304.8823028999184 349.34257951355175) rotate(0 123 44)"><path d="M97 0.97 C111.27 -0.73, 129.88 -0.71, 145.25 0.38 C160.61 1.47, 176 4.53, 189.19 7.5 C202.37 10.47, 215.22 13.76, 224.36 18.19 C233.5 22.63, 240.61 28.31, 244.03 34.1 C247.45 39.9, 247.81 47.47, 244.88 52.97 C241.96 58.46, 235.27 62.61, 226.46 67.06 C217.66 71.51, 204.93 76.26, 192.06 79.67 C179.2 83.07, 164.6 86.27, 149.28 87.49 C133.97 88.71, 115.86 88.14, 100.18 87.01 C84.49 85.88, 68.39 83.69, 55.17 80.71 C41.96 77.73, 29.74 73.78, 20.89 69.12 C12.04 64.47, 5.27 58.3, 2.07 52.78 C-1.13 47.25, -1.21 41.35, 1.68 35.95 C4.57 30.55, 10.93 25.22, 19.43 20.38 C27.94 15.55, 38.14 10.21, 52.72 6.94 C67.3 3.67, 96.3 1.57, 106.92 0.74 C117.55 -0.09, 116.35 1.3, 116.45 1.95 M102.96 -0.01 C117.42 -1.69, 135.91 -0.79, 151.09 0.47 C166.26 1.74, 181.39 4.17, 194.04 7.6 C206.68 11.03, 218.71 16.24, 226.94 21.06 C235.17 25.87, 240.84 31.14, 243.42 36.49 C245.99 41.84, 245.86 47.61, 242.4 53.16 C238.95 58.71, 232.1 65.27, 222.67 69.78 C213.24 74.3, 199.27 77.32, 185.83 80.28 C172.39 83.24, 157.3 86.4, 142.01 87.56 C126.71 88.72, 109.12 88.31, 94.07 87.23 C79.02 86.14, 64.33 84.53, 51.72 81.07 C39.12 77.62, 26.63 71.72, 18.45 66.51 C10.27 61.29, 4.89 55.01, 2.63 49.78 C0.36 44.54, 1.35 40.62, 4.85 35.1 C8.35 29.57, 14.69 21.39, 23.65 16.65 C32.61 11.91, 45.06 9.37, 58.61 6.64 C72.17 3.92, 97.42 1.21, 104.97 0.31 C112.52 -0.6, 103.58 0.25, 103.92 1.24" stroke="#000000" stroke-width="1" fill="none"></path></g><g transform="translate(352.62822344043786 380.72988114134364) rotate(0 75.27994537353516 12.500000000000114)"><text x="75.27994537353516" y="0" font-family="Virgil, Segoe UI Emoji" font-size="20px" fill="#000000" text-anchor="middle" style="white-space: pre;" direction="ltr" dominant-baseline="text-before-edge">(nombre , casa)</text></g><g mask="url(#mask-G0SF4y_-nnZB37p9AtGZL)" stroke-linecap="round"><g transform="translate(406.8574610637639 437.8377926385324) rotate(0 -18.083186668697767 38.768879789597804)"><path d="M0.46 -0.83 C-5.42 12.33, -29.4 65.15, -35.45 78.37 M-0.76 1.35 C-6.81 14.22, -31.19 64.14, -36.63 76.69" stroke="#000000" stroke-width="1" fill="none"></path></g><g transform="translate(406.8574610637639 437.8377926385324) rotate(0 -18.083186668697767 38.768879789597804)"><path d="M-35.44 46.07 C-33.52 53.94, -34.04 64.82, -38.33 77.83 M-34.31 47.51 C-35.32 55.17, -34.47 63.45, -37.38 77.01" stroke="#000000" stroke-width="1" fill="none"></path></g><g transform="translate(406.8574610637639 437.8377926385324) rotate(0 -18.083186668697767 38.768879789597804)"><path d="M-16.83 54.71 C-20.15 60.2, -25.96 68.62, -38.33 77.83 M-15.7 56.15 C-21.83 61.29, -26.11 67.19, -37.38 77.01" stroke="#000000" stroke-width="1" fill="none"></path></g></g><mask id="mask-G0SF4y_-nnZB37p9AtGZL"><rect x="0" y="0" fill="#fff" width="541.8694323155329" height="615.3598668784562"></rect><rect x="342.6515318953989" y="464.0988297584945" fill="#000" width="93.39988708496094" height="25" opacity="1"></rect></mask><g transform="translate(342.6515318953989 464.0988297584945) rotate(0 46.12274249966722 12.507842669635693)"><text x="46.69994354248047" y="0" font-family="Virgil, Segoe UI Emoji" font-size="20px" fill="#000000" text-anchor="middle" style="white-space: pre;" direction="ltr" dominant-baseline="text-before-edge">prototype</text></g><g mask="url(#mask-ehAMRamSJXYGq7VocmobV)" stroke-linecap="round"><g transform="translate(324.5115899145603 540.4632283870942) rotate(0 -36.09623780503635 -57.11184157226876)"><path d="M-0.56 -0.3 C-14.75 -10.67, -86.79 -43.14, -84.62 -62.08 C-82.45 -81.02, -3.8 -105.34, 12.47 -113.93 M1.35 -1.5 C-12.52 -11.68, -84.15 -41.99, -82.43 -60.52 C-80.7 -79.05, -4.3 -104.04, 11.7 -112.68" stroke="#000000" stroke-width="1" fill="none"></path></g><g transform="translate(324.5115899145603 540.4632283870942) rotate(0 -36.09623780503635 -57.11184157226876)"><path d="M-10.68 -93.81 C-2.67 -99.08, 4.51 -105.12, 12.05 -112.89 M-9.95 -91.66 C-3.97 -97.72, 2.49 -103.96, 12.59 -112.25" stroke="#000000" stroke-width="1" fill="none"></path></g><g transform="translate(324.5115899145603 540.4632283870942) rotate(0 -36.09623780503635 -57.11184157226876)"><path d="M-18.75 -112.67 C-7.96 -111.47, 1.97 -111.07, 12.05 -112.89 M-18.02 -110.52 C-9.97 -111.37, -1.3 -112.45, 12.59 -112.25" stroke="#000000" stroke-width="1" fill="none"></path></g></g><mask id="mask-ehAMRamSJXYGq7VocmobV"><rect x="0" y="0" fill="#fff" width="520.6267025282141" height="754.2574274935769"></rect><rect x="184.08236088331688" y="465.84257951355175" fill="#000" width="113.59988403320312" height="25" opacity="1"></rect></mask><g transform="translate(184.08236088331688 465.84257951355175) rotate(0 104.33299122620708 17.50880730127369)"><text x="56.79994201660156" y="0" font-family="Virgil, Segoe UI Emoji" font-size="20px" fill="#000000" text-anchor="middle" style="white-space: pre;" direction="ltr" dominant-baseline="text-before-edge">constructor</text></g><g mask="url(#mask-yD3uVggEUbmy4MEFZb73j)" stroke-linecap="round"><g transform="translate(485.8204092743621 234.71630615459776) rotate(0 96.23379805237089 18.713489351354156)"><path d="M-0.08 -0.07 C31.82 6.41, 159.86 32.03, 191.8 38.58 M-1.58 -1.15 C30.66 4.98, 161.48 30.26, 194.05 36.7" stroke="#000000" stroke-width="1" fill="none"></path></g><g transform="translate(485.8204092743621 234.71630615459776) rotate(0 96.23379805237089 18.713489351354156)"><path d="M164.3 39.91 C175.06 37.95, 186.04 36.96, 194.56 35.17 M164.6 41.76 C173.85 40.14, 182.92 39.04, 193.42 36.73" stroke="#000000" stroke-width="1" fill="none"></path></g><g transform="translate(485.8204092743621 234.71630615459776) rotate(0 96.23379805237089 18.713489351354156)"><path d="M168.23 19.76 C177.64 24.5, 187.31 30.22, 194.56 35.17 M168.53 21.62 C176.74 26.02, 184.62 30.98, 193.42 36.73" stroke="#000000" stroke-width="1" fill="none"></path></g></g><mask id="mask-yD3uVggEUbmy4MEFZb73j"><rect x="0" y="0" fill="#fff" width="778.5035444458767" height="372.83125834409657"></rect><rect x="524.3720369797483" y="241.2737822493475" fill="#000" width="115.57987976074219" height="25" opacity="1"></rect></mask><g transform="translate(524.3720369797484 241.27378224934728) rotate(0 57.68217034698462 12.156013256604638)"><text x="57.789939880371094" y="0" font-family="Virgil, Segoe UI Emoji" font-size="20px" fill="#000000" text-anchor="middle" style="white-space: pre;" direction="ltr" dominant-baseline="text-before-edge">presentarse</text></g><g stroke-linecap="round" transform="translate(656.767287965225 265.5126215130126) rotate(0 95 24.5)"><path d="M125.47 2.16 C138.29 2.65, 151.27 4.33, 160.99 6.54 C170.71 8.75, 178.97 12.17, 183.79 15.41 C188.61 18.66, 191.17 22.28, 189.9 26.02 C188.62 29.76, 183.35 34.73, 176.13 37.86 C168.91 41, 158.22 42.91, 146.58 44.83 C134.95 46.75, 120 48.76, 106.32 49.4 C92.64 50.05, 77.38 49.87, 64.5 48.68 C51.63 47.5, 38.93 45.06, 29.06 42.29 C19.18 39.53, 10 35.52, 5.27 32.09 C0.54 28.65, -0.85 25.06, 0.65 21.69 C2.15 18.31, 7.24 14.83, 14.25 11.85 C21.26 8.88, 31.25 5.69, 42.72 3.83 C54.2 1.96, 68.4 1.12, 83.09 0.67 C97.79 0.23, 122.62 0.79, 130.91 1.16 C139.2 1.52, 133.71 2.44, 132.84 2.86 M51.18 3.23 C62.34 1.17, 80.73 0.23, 94.6 0.16 C108.47 0.09, 122.32 1.51, 134.37 2.8 C146.43 4.08, 158.1 5.44, 166.92 7.85 C175.75 10.25, 183.94 13.59, 187.33 17.24 C190.73 20.89, 190.1 26.16, 187.29 29.74 C184.48 33.33, 178.82 36.19, 170.46 38.73 C162.11 41.28, 149.69 43.37, 137.14 44.99 C124.59 46.61, 108.81 48.31, 95.18 48.46 C81.54 48.61, 67.81 47.25, 55.32 45.9 C42.83 44.55, 28.87 43.11, 20.24 40.37 C11.61 37.64, 6.73 32.8, 3.53 29.51 C0.32 26.23, -1.67 23.93, 1.01 20.65 C3.7 17.36, 10.96 12.8, 19.63 9.79 C28.29 6.79, 47.34 3.84, 53.01 2.6 C58.68 1.37, 53.05 2.22, 53.64 2.38" stroke="#000000" stroke-width="1" fill="none"></path></g><g transform="translate(739.0621526026006 277.68850537394223) rotate(0 12.529991149902344 12.5)"><text x="12.529991149902344" y="0" font-family="Virgil, Segoe UI Emoji" font-size="20px" fill="#000000" text-anchor="middle" style="white-space: pre;" direction="ltr" dominant-baseline="text-before-edge">( )</text></g><g mask="url(#mask-0oxQWEyJspYeCy3sDgFNp)" stroke-linecap="round"><g transform="translate(549.941224114325 396.6358824428944) rotate(0 71.77861857603887 0.5505562808162949)"><path d="M-0.08 -0.07 C23.67 0.35, 119.11 1.76, 142.89 2.25 M-1.58 -1.15 C22.51 -1.07, 120.72 -0.01, 145.14 0.38" stroke="#000000" stroke-width="1" fill="none"></path></g><g transform="translate(549.941224114325 396.6358824428944) rotate(0 71.77861857603887 0.5505562808162949)"><path d="M116.7 8.81 C127.04 5.11, 137.58 2.38, 145.65 -1.15 M117 10.66 C125.83 7.46, 134.5 4.79, 144.51 0.41" stroke="#000000" stroke-width="1" fill="none"></path></g><g transform="translate(549.941224114325 396.6358824428944) rotate(0 71.77861857603887 0.5505562808162949)"><path d="M116.97 -11.71 C127.17 -8.59, 137.62 -4.48, 145.65 -1.15 M117.27 -9.86 C126.15 -6.9, 134.74 -3.4, 144.51 0.41" stroke="#000000" stroke-width="1" fill="none"></path></g></g><mask id="mask-0oxQWEyJspYeCy3sDgFNp"><rect x="0" y="0" fill="#fff" width="793.7140003331756" height="498.4249684913175"></rect><rect x="598.037626567012" y="385.03042546710594" fill="#000" width="47.57997131347656" height="25" opacity="1"></rect></mask><g transform="translate(598.037626567012 385.03042546710594) rotate(0 23.68221612335185 12.156013256604751)"><text x="23.78998565673828" y="0" font-family="Virgil, Segoe UI Emoji" font-size="20px" fill="#000000" text-anchor="middle" style="white-space: pre;" direction="ltr" dominant-baseline="text-before-edge">casa</text></g><g mask="url(#mask-gP4Iua0o_IAATk7ZZIBCv)" stroke-linecap="round"><g transform="translate(325.69994354248047 551) rotate(0 -96.65115210617455 -161.7695856668056)"><path d="M0.28 -0.44 C-44.53 -26.37, -282.31 -101.31, -269.4 -155.08 C-256.48 -208.86, 19.89 -295.14, 77.76 -323.1 M-1.04 -1.72 C-45.99 -27.58, -283.54 -100.67, -270.55 -154.11 C-257.57 -207.55, 18.78 -294.34, 76.87 -322.36" stroke="#000000" stroke-width="1" fill="none"></path></g><g transform="translate(325.69994354248047 551) rotate(0 -96.65115210617455 -161.7695856668056)"><path d="M53.66 -303.16 C58.23 -307.99, 63.92 -312.89, 75.45 -321.31 M53.64 -301.53 C60.62 -307.93, 67.59 -313.75, 76.93 -322.63" stroke="#000000" stroke-width="1" fill="none"></path></g><g transform="translate(325.69994354248047 551) rotate(0 -96.65115210617455 -161.7695856668056)"><path d="M46.15 -322.26 C52.71 -322.25, 60.31 -322.29, 75.45 -321.31 M46.13 -320.63 C55.13 -321.76, 64.17 -322.33, 76.93 -322.63" stroke="#000000" stroke-width="1" fill="none"></path></g></g><mask id="mask-gP4Iua0o_IAATk7ZZIBCv"><rect x="0" y="0" fill="#fff" width="772.6999435424805" height="973"></rect><rect x="10" y="384.5" fill="#000" width="93.39988708496094" height="25" opacity="1"></rect></mask><g transform="translate(10 384.5) rotate(0 219.04879143630592 4.730414333194403)"><text x="46.69994354248047" y="0" font-family="Virgil, Segoe UI Emoji" font-size="20px" fill="#000000" text-anchor="middle" style="white-space: pre;" direction="ltr" dominant-baseline="text-before-edge">prototype</text></g><g mask="url(#mask-DFUKnQVcesxsC7Zp672V8)" stroke-linecap="round"><g transform="translate(402.9364577396934 565.9185172717225) rotate(0 129.84149023702972 22.295090374552956)"><path d="M-0.08 -0.07 C43.02 7.6, 215.88 38, 259.02 45.74 M-1.58 -1.15 C41.86 6.18, 217.49 36.23, 261.27 43.87" stroke="#000000" stroke-width="1" fill="none"></path></g><g transform="translate(402.9364577396934 565.9185172717225) rotate(0 129.84149023702972 22.295090374552956)"><path d="M231.62 47.72 C242.35 45.54, 253.29 44.34, 261.77 42.34 M231.92 49.57 C241.14 47.75, 250.17 46.46, 260.63 43.89" stroke="#000000" stroke-width="1" fill="none"></path></g><g transform="translate(402.9364577396934 565.9185172717225) rotate(0 129.84149023702972 22.295090374552956)"><path d="M235.11 27.49 C244.63 32.04, 254.41 37.57, 261.77 42.34 M235.41 29.35 C243.72 33.58, 251.7 38.37, 260.63 43.89" stroke="#000000" stroke-width="1" fill="none"></path></g></g><mask id="mask-DFUKnQVcesxsC7Zp672V8"><rect x="0" y="0" fill="#fff" width="762.8349772805258" height="711.1966715076187"></rect><rect x="464.87578403842986" y="576.0575943896706" fill="#000" width="136.01986694335938" height="25" opacity="1"></rect></mask><g transform="translate(464.8757840384299 576.0575943896706) rotate(0 67.90216393829326 12.156013256604865)"><text x="68.00993347167969" y="0" font-family="Virgil, Segoe UI Emoji" font-size="20px" fill="#000000" text-anchor="middle" style="white-space: pre;" direction="ltr" dominant-baseline="text-before-edge">invocarHechizo</text></g><g stroke-linecap="round" transform="translate(644.2552998660977 603.585017032121) rotate(0 94.99999999999999 24.5)"><path d="M125.47 2.16 C138.29 2.65, 151.27 4.33, 160.99 6.54 C170.71 8.75, 178.97 12.17, 183.79 15.41 C188.61 18.66, 191.17 22.28, 189.9 26.02 C188.62 29.76, 183.35 34.73, 176.13 37.86 C168.91 41, 158.22 42.91, 146.58 44.83 C134.95 46.75, 120 48.76, 106.32 49.4 C92.64 50.05, 77.38 49.87, 64.5 48.68 C51.63 47.5, 38.93 45.06, 29.06 42.29 C19.18 39.53, 10 35.52, 5.27 32.09 C0.54 28.65, -0.85 25.06, 0.65 21.69 C2.15 18.31, 7.24 14.83, 14.25 11.85 C21.26 8.88, 31.25 5.69, 42.72 3.83 C54.2 1.96, 68.4 1.12, 83.09 0.67 C97.79 0.23, 122.62 0.79, 130.91 1.16 C139.2 1.52, 133.71 2.44, 132.84 2.86 M51.18 3.23 C62.34 1.17, 80.73 0.23, 94.6 0.16 C108.47 0.09, 122.32 1.51, 134.37 2.8 C146.43 4.08, 158.1 5.44, 166.92 7.85 C175.75 10.25, 183.94 13.59, 187.33 17.24 C190.73 20.89, 190.1 26.16, 187.29 29.74 C184.48 33.33, 178.82 36.19, 170.46 38.73 C162.11 41.28, 149.69 43.37, 137.14 44.99 C124.59 46.61, 108.81 48.31, 95.18 48.46 C81.54 48.61, 67.81 47.25, 55.32 45.9 C42.83 44.55, 28.87 43.11, 20.24 40.37 C11.61 37.64, 6.73 32.8, 3.53 29.51 C0.32 26.23, -1.67 23.93, 1.01 20.65 C3.7 17.36, 10.96 12.8, 19.63 9.79 C28.29 6.79, 47.34 3.84, 53.01 2.6 C58.68 1.37, 53.05 2.22, 53.64 2.38" stroke="#000000" stroke-width="1" fill="none"></path></g><g transform="translate(726.5501645034734 615.7609008930503) rotate(0 12.529991149902344 12.5)"><text x="12.529991149902344" y="0" font-family="Virgil, Segoe UI Emoji" font-size="20px" fill="#000000" text-anchor="middle" style="white-space: pre;" direction="ltr" dominant-baseline="text-before-edge">( )</text></g><g stroke-linecap="round"><g transform="translate(537.6999435424805 217) rotate(0 8.850620987266296 0.1422055309950565)"><path d="M-0.99 0.76 C2.28 0.84, 15.47 -0.54, 18.7 -0.51 M0.68 0.12 C3.95 0.44, 15.27 0.93, 18.11 0.76" stroke="#000000" stroke-width="1" fill="none"></path></g></g><mask></mask><g transform="translate(693.6999435424805 198) rotate(0 86.51993560791016 12.5)"><text x="0" y="0" font-family="Virgil, Segoe UI Emoji" font-size="20px" fill="#000000" text-anchor="start" style="white-space: pre;" direction="ltr" dominant-baseline="text-before-edge">[ [ prototype ] ]</text></g><g stroke-linecap="round"><g transform="translate(571.6999435424805 216) rotate(0 9.823585303379218 -1.0853458225338954)"><path d="M0.37 0.07 C3.28 0.14, 14.96 -0.14, 18.23 -0.43 M-0.89 -0.94 C2.33 -1.15, 17.09 -2.29, 20.54 -2.25" stroke="#000000" stroke-width="1" fill="none"></path></g></g><mask></mask><g stroke-linecap="round"><g transform="translate(610.6999435424805 214) rotate(0 9.790429244190449 -0.04428911598222385)"><path d="M-0.4 -0.79 C2.85 -0.58, 16.6 0.23, 19.99 0.41 M1.58 1.41 C4.64 1.33, 16.11 -1.56, 19.03 -1.49" stroke="#000000" stroke-width="1" fill="none"></path></g></g><mask></mask><g stroke-linecap="round"><g transform="translate(650.6999435424805 213) rotate(0 11.81715000803581 0.742126665958267)"><path d="M0.67 0.54 C4.46 0.65, 18.09 1.67, 21.92 1.71 M-0.44 -0.23 C3.78 0.06, 20.12 -0.41, 24.07 -0.04" stroke="#000000" stroke-width="1" fill="none"></path></g></g><mask></mask><g stroke-linecap="round"><g transform="translate(887.6999435424805 207) rotate(0 12.997319141542533 0.15228139990006184)"><path d="M0.91 0.31 C4.92 0.28, 20.02 -0.34, 23.92 -0.43 M-0.08 -0.58 C4.31 -0.42, 22.18 0.63, 26.07 0.88" stroke="#000000" stroke-width="1" fill="none"></path></g></g><mask></mask><g stroke-linecap="round"><g transform="translate(931.6999435424805 206) rotate(0 12.411707960790977 0.4581600178938743)"><path d="M-0.29 0.58 C3.54 0.75, 18.85 1.2, 22.95 1.41 M1.76 -0.15 C5.94 -0.4, 21.46 -0.51, 25.11 -0.49" stroke="#000000" stroke-width="1" fill="none"></path></g></g><mask></mask><g stroke-linecap="round"><g transform="translate(977.6999435424805 206) rotate(0 11.58015858096536 -1.19547784104941)"><path d="M-0.82 -0.41 C2.82 -0.84, 17.78 -1.96, 21.87 -1.98 M0.94 -1.67 C4.94 -2.03, 20.26 -0.79, 23.98 -0.96" stroke="#000000" stroke-width="1" fill="none"></path></g></g><mask></mask><g stroke-linecap="round"><g transform="translate(1021.6999435424805 203) rotate(0 12.46592718345579 -0.09966905673502424)"><path d="M-0.37 0.08 C3.56 0.29, 19.19 0.7, 23.07 0.76 M1.64 -0.92 C5.98 -1.01, 21.36 -0.84, 25.3 -0.96" stroke="#000000" stroke-width="1" fill="none"></path></g></g><mask></mask><g stroke-linecap="round"><g transform="translate(521.6999435424805 218) rotate(0 -19.246082316976974 0.3914067117543709)"><path d="M0.53 -0.31 C-5.82 0.17, -31.92 1.74, -38.39 2.29 M-0.65 -1.51 C-7.08 -1.36, -32.68 -0.13, -39.02 0.33" stroke="#000000" stroke-width="1" fill="none"></path></g><g transform="translate(521.6999435424805 218) rotate(0 -19.246082316976974 0.3914067117543709)"><path d="M-21.59 -6.41 C-25.57 -4.09, -29.26 -3.48, -39.58 1.91 M-21.36 -7.83 C-24.3 -6.29, -29.47 -4.17, -39.07 0.11" stroke="#000000" stroke-width="1" fill="none"></path></g><g transform="translate(521.6999435424805 218) rotate(0 -19.246082316976974 0.3914067117543709)"><path d="M-20.81 6.92 C-24.94 5.59, -28.85 2.54, -39.58 1.91 M-20.59 5.51 C-23.79 4.13, -29.12 3.33, -39.07 0.11" stroke="#000000" stroke-width="1" fill="none"></path></g></g><mask></mask><g stroke-linecap="round"><g transform="translate(1064.6999435424805 201) rotate(0 11.116709472984098 0.3258188563637532)"><path d="M-0.34 0.88 C3.53 1.16, 18.69 1.14, 22.57 1.08 M1.69 0.3 C5.41 0.32, 17.98 -0.16, 21.4 -0.47" stroke="#000000" stroke-width="1" fill="none"></path></g></g><mask></mask><g stroke-linecap="round" transform="translate(1264.0863753930958 274.84580319396036) rotate(0 60.5 24.5)"><path d="M80.01 2.16 C90.09 2.94, 100.7 5.58, 107.4 8.76 C114.1 11.94, 118.96 16.93, 120.21 21.24 C121.47 25.55, 119.73 30.45, 114.91 34.61 C110.09 38.77, 100.75 43.84, 91.29 46.2 C81.84 48.55, 69.19 48.91, 58.19 48.74 C47.2 48.58, 34.31 47.52, 25.32 45.19 C16.33 42.87, 8.24 38.93, 4.24 34.78 C0.23 30.64, -0.62 24.98, 1.3 20.34 C3.23 15.7, 8.39 10.29, 15.81 6.96 C23.23 3.63, 34.48 1.19, 45.83 0.35 C57.19 -0.48, 77.2 1.54, 83.91 1.96 C90.62 2.37, 86.54 2.43, 86.09 2.87 M89.66 1.81 C99.23 3.51, 107.81 7, 113.07 11.32 C118.34 15.63, 122.1 22.93, 121.23 27.67 C120.36 32.41, 114.22 36.44, 107.84 39.76 C101.47 43.08, 93.04 46.06, 82.96 47.6 C72.88 49.13, 58.45 50.13, 47.37 49 C36.29 47.86, 24.12 44.24, 16.47 40.8 C8.82 37.36, 3.72 32.45, 1.49 28.35 C-0.73 24.25, -0.71 20.21, 3.1 16.18 C6.91 12.16, 15.6 7.12, 24.34 4.2 C33.08 1.28, 44.94 -1.04, 55.54 -1.33 C66.14 -1.63, 82.4 1.79, 87.96 2.43 C93.51 3.08, 89.38 2.06, 88.89 2.55" stroke="#000000" stroke-width="1" fill="none"></path></g><g transform="translate(1322.096416046837 287.02168705488975) rotate(0 2.7099990844726562 12.5)"><text x="2.7099990844726562" y="0" font-family="Virgil, Segoe UI Emoji" font-size="20px" fill="#000000" text-anchor="middle" style="white-space: pre;" direction="ltr" dominant-baseline="text-before-edge">1</text></g><g mask="url(#mask-tzI3L8LZ4Yd7XYCT9G9i6)" stroke-linecap="round"><g transform="translate(1169.3684967109389 213.91447333229826) rotate(0 53.50251934489313 36.82565002800459)"><path d="M-0.08 -0.07 C17.58 12.44, 88.65 62.21, 106.34 74.8 M-1.58 -1.15 C16.41 11.02, 90.26 60.45, 108.59 72.93" stroke="#000000" stroke-width="1" fill="none"></path></g><g transform="translate(1169.3684967109389 213.91447333229826) rotate(0 53.50251934489313 36.82565002800459)"><path d="M79.36 64.2 C89.92 66.21, 100.72 69.19, 109.1 71.4 M79.66 66.06 C88.84 68.02, 97.75 70.51, 107.95 72.96" stroke="#000000" stroke-width="1" fill="none"></path></g><g transform="translate(1169.3684967109389 213.91447333229826) rotate(0 53.50251934489313 36.82565002800459)"><path d="M90.84 47.19 C97.54 54.85, 104.52 63.49, 109.1 71.4 M91.13 49.05 C96.98 56.03, 102.44 63.63, 107.95 72.96" stroke="#000000" stroke-width="1" fill="none"></path></g></g><mask id="mask-tzI3L8LZ4Yd7XYCT9G9i6"><rect x="0" y="0" fill="#fff" width="1376.589074467498" height="388.25374687509793"></rect><rect x="1194.6088133602145" y="238.5841101036981" fill="#000" width="56.73994445800781" height="25" opacity="1"></rect></mask><g transform="translate(1194.6088133602145 238.5841101036981) rotate(0 28.262202695617475 12.156013256604751)"><text x="28.369972229003906" y="0" font-family="Virgil, Segoe UI Emoji" font-size="20px" fill="#000000" text-anchor="middle" style="white-space: pre;" direction="ltr" dominant-baseline="text-before-edge">length</text></g><g stroke-linecap="round" transform="translate(1045.6681584629216 683.8530514417025) rotate(0 62 23.5)"><path d="M11.75 0 M11.75 0 C40.96 1.14, 70.18 0.6, 112.25 0 M11.75 0 C43.38 -0.04, 74.97 -1.39, 112.25 0 M112.25 0 C121.52 1.87, 125.71 2.51, 124 11.75 M112.25 0 C121.82 1.31, 121.82 3.08, 124 11.75 M124 11.75 C123.97 17.26, 123.33 25.98, 124 35.25 M124 11.75 C123.1 17.23, 123.68 22.53, 124 35.25 M124 35.25 C125.66 44.2, 119.52 46.47, 112.25 47 M124 35.25 C123.97 42.79, 118.05 46.16, 112.25 47 M112.25 47 C73.72 47.53, 32.72 45.82, 11.75 47 M112.25 47 C85.9 45.72, 58.71 47.53, 11.75 47 M11.75 47 C3.94 45.39, -0.01 42.21, 0 35.25 M11.75 47 C2.97 45.19, -1.44 43.8, 0 35.25 M0 35.25 C-1.09 27.8, 1.87 16.75, 0 11.75 M0 35.25 C0.94 26.83, 0.28 20.8, 0 11.75 M0 11.75 C-1.6 3.88, 2.22 -1.98, 11.75 0 M0 11.75 C0.73 1.94, 5.36 -0.43, 11.75 0" stroke="#000000" stroke-width="1" fill="none"></path></g><g transform="translate(1082.7681798252263 694.8530514417025) rotate(0 24.899978637695312 12.5)"><text x="24.899978637695312" y="0" font-family="Virgil, Segoe UI Emoji" font-size="20px" fill="#000000" text-anchor="middle" style="white-space: pre;" direction="ltr" dominant-baseline="text-before-edge">harry</text></g><g stroke-linecap="round"><g transform="translate(1109.584353341633 681.8530514417025) rotate(0 -0.23914118709205923 -23.856860619538793)"><path d="M-1.06 -0.44 C-1.08 -8.29, -0.02 -39.67, -0.11 -47.27 M0.58 -1.72 C0.5 -9.43, 0.03 -39.07, -0.51 -46.22" stroke="#000000" stroke-width="1" fill="none"></path></g><g transform="translate(1109.584353341633 681.8530514417025) rotate(0 -0.23914118709205923 -23.856860619538793)"><path d="M7.56 -23.01 C4.17 -32.03, 3.52 -36.75, -2.06 -47.01 M8.65 -25.58 C5.71 -29.51, 3.51 -37.01, -0.51 -46.65" stroke="#000000" stroke-width="1" fill="none"></path></g><g transform="translate(1109.584353341633 681.8530514417025) rotate(0 -0.23914118709205923 -23.856860619538793)"><path d="M-8.28 -22.37 C-6.94 -31.44, -2.86 -36.36, -2.06 -47.01 M-7.2 -24.94 C-5.93 -28.96, -3.92 -36.64, -0.51 -46.65" stroke="#000000" stroke-width="1" fill="none"></path></g></g><mask></mask><g stroke-linecap="round" transform="translate(1070.6681584629216 569.2816228702741) rotate(0 40 31.5)"><path d="M25.72 3.02 C32.22 0.64, 42.11 -0.23, 49.52 1.05 C56.94 2.32, 65.1 6.02, 70.22 10.67 C75.34 15.32, 79.6 22.67, 80.26 28.97 C80.92 35.26, 78.54 43.04, 74.19 48.45 C69.84 53.87, 61.65 59.09, 54.17 61.46 C46.69 63.82, 36.82 64.47, 29.32 62.65 C21.82 60.82, 14.01 55.41, 9.16 50.53 C4.32 45.66, 0.89 39.57, 0.28 33.39 C-0.34 27.22, 1.1 18.78, 5.5 13.47 C9.89 8.17, 22.57 3.61, 26.66 1.58 C30.75 -0.45, 29.61 0.67, 30.03 1.29 M42.68 -0.55 C50.02 -1.05, 59.51 1.7, 65.5 5.69 C71.49 9.69, 76.51 17.16, 78.63 23.44 C80.74 29.72, 81.1 37.79, 78.21 43.37 C75.32 48.95, 68.11 53.73, 61.26 56.93 C54.42 60.12, 44.7 62.66, 37.11 62.54 C29.52 62.42, 21.77 60.19, 15.73 56.18 C9.7 52.18, 3.29 44.51, 0.92 38.51 C-1.45 32.52, -1.18 25.8, 1.51 20.21 C4.21 14.62, 10.55 8.5, 17.09 4.99 C23.63 1.47, 36.78 -0.1, 40.75 -0.88 C44.71 -1.67, 40.48 -0.33, 40.87 0.26" stroke="#000000" stroke-width="1" fill="none"></path></g><g transform="translate(1095.193892403448 588.5077592628977) rotate(0 15.689994812011719 12.5)"><text x="15.689994812011719" y="0" font-family="Virgil, Segoe UI Emoji" font-size="20px" fill="#000000" text-anchor="middle" style="white-space: pre;" direction="ltr" dominant-baseline="text-before-edge">{ }</text></g><g stroke-linecap="round" transform="translate(1054.4450533632505 416.3366287552244) rotate(0 95 24.5)"><path d="M125.47 2.16 C138.29 2.65, 151.27 4.33, 160.99 6.54 C170.71 8.75, 178.97 12.17, 183.79 15.41 C188.61 18.66, 191.17 22.28, 189.9 26.02 C188.62 29.76, 183.35 34.73, 176.13 37.86 C168.91 41, 158.22 42.91, 146.58 44.83 C134.95 46.75, 120 48.76, 106.32 49.4 C92.64 50.05, 77.38 49.87, 64.5 48.68 C51.63 47.5, 38.93 45.06, 29.06 42.29 C19.18 39.53, 10 35.52, 5.27 32.09 C0.54 28.65, -0.85 25.06, 0.65 21.69 C2.15 18.31, 7.24 14.83, 14.25 11.85 C21.26 8.88, 31.25 5.69, 42.72 3.83 C54.2 1.96, 68.4 1.12, 83.09 0.67 C97.79 0.23, 122.62 0.79, 130.91 1.16 C139.2 1.52, 133.71 2.44, 132.84 2.86 M51.18 3.23 C62.34 1.17, 80.73 0.23, 94.6 0.16 C108.47 0.09, 122.32 1.51, 134.37 2.8 C146.43 4.08, 158.1 5.44, 166.92 7.85 C175.75 10.25, 183.94 13.59, 187.33 17.24 C190.73 20.89, 190.1 26.16, 187.29 29.74 C184.48 33.33, 178.82 36.19, 170.46 38.73 C162.11 41.28, 149.69 43.37, 137.14 44.99 C124.59 46.61, 108.81 48.31, 95.18 48.46 C81.54 48.61, 67.81 47.25, 55.32 45.9 C42.83 44.55, 28.87 43.11, 20.24 40.37 C11.61 37.64, 6.73 32.8, 3.53 29.51 C0.32 26.23, -1.67 23.93, 1.01 20.65 C3.7 17.36, 10.96 12.8, 19.63 9.79 C28.29 6.79, 47.34 3.84, 53.01 2.6 C58.68 1.37, 53.05 2.22, 53.64 2.38" stroke="#000000" stroke-width="1" fill="none"></path></g><g transform="translate(1117.2399332594152 428.5125126161538) rotate(0 32.02997589111328 12.5)"><text x="32.02997589111328" y="0" font-family="Virgil, Segoe UI Emoji" font-size="20px" fill="#000000" text-anchor="middle" style="white-space: pre;" direction="ltr" dominant-baseline="text-before-edge">"Harry"</text></g><g mask="url(#mask-TnonBmEJCY4JGN9nKWtB9)" stroke-linecap="round"><g transform="translate(1116.8456696764515 567.9456506462211) rotate(0 13.703233972217276 -51.792341647624426)"><path d="M-0.08 -0.07 C4.31 -16.96, 22.31 -84.82, 26.74 -101.64 M-1.58 -1.15 C3.15 -18.39, 23.93 -86.59, 28.99 -103.51" stroke="#000000" stroke-width="1" fill="none"></path></g><g transform="translate(1116.8456696764515 567.9456506462211) rotate(0 13.703233972217276 -51.792341647624426)"><path d="M30.55 -75.03 C30.95 -85.42, 31.51 -94.82, 29.5 -105.04 M30.85 -73.17 C30.52 -82.65, 30.17 -91.34, 28.35 -103.48" stroke="#000000" stroke-width="1" fill="none"></path></g><g transform="translate(1116.8456696764515 567.9456506462211) rotate(0 13.703233972217276 -51.792341647624426)"><path d="M10.91 -80.96 C17.83 -89.36, 24.92 -96.79, 29.5 -105.04 M11.2 -79.1 C16.82 -86.64, 22.38 -93.55, 28.35 -103.48" stroke="#000000" stroke-width="1" fill="none"></path></g></g><mask id="mask-TnonBmEJCY4JGN9nKWtB9"><rect x="0" y="0" fill="#fff" width="1244.4676766876592" height="770.0466949047459"></rect><rect x="1099.266704309985" y="504.3951285169587" fill="#000" width="62.779937744140625" height="25" opacity="1"></rect></mask><g transform="translate(1099.266704309985 504.3951285169587) rotate(0 31.28219933868388 11.758180481637964)"><text x="31.389968872070312" y="0" font-family="Virgil, Segoe UI Emoji" font-size="20px" fill="#000000" text-anchor="middle" style="white-space: pre;" direction="ltr" dominant-baseline="text-before-edge">nombre</text></g><g stroke-linecap="round"><g transform="translate(913.9510660858148 584.6997066234658) rotate(5.215909448135333 12.46592718345579 -0.09966905673491055)"><path d="M-0.37 0.08 C3.56 0.29, 19.19 0.7, 23.07 0.76 M1.64 -0.92 C5.98 -1.01, 21.36 -0.84, 25.3 -0.96" stroke="#000000" stroke-width="1" fill="none"></path></g></g><mask></mask><g stroke-linecap="round"><g transform="translate(956.9217357660424 586.492661761426) rotate(5.215909448135333 11.116709472984098 0.3258188563636395)"><path d="M-0.34 0.88 C3.53 1.16, 18.69 1.14, 22.57 1.08 M1.69 0.3 C5.41 0.32, 17.98 -0.16, 21.4 -0.47" stroke="#000000" stroke-width="1" fill="none"></path></g></g><mask></mask><g stroke-linecap="round" transform="translate(1242.3226686528374 663.3791899489374) rotate(0 60.5 24.5)"><path d="M80.01 2.16 C90.09 2.94, 100.7 5.58, 107.4 8.76 C114.1 11.94, 118.96 16.93, 120.21 21.24 C121.47 25.55, 119.73 30.45, 114.91 34.61 C110.09 38.77, 100.75 43.84, 91.29 46.2 C81.84 48.55, 69.19 48.91, 58.19 48.74 C47.2 48.58, 34.31 47.52, 25.32 45.19 C16.33 42.87, 8.24 38.93, 4.24 34.78 C0.23 30.64, -0.62 24.98, 1.3 20.34 C3.23 15.7, 8.39 10.29, 15.81 6.96 C23.23 3.63, 34.48 1.19, 45.83 0.35 C57.19 -0.48, 77.2 1.54, 83.91 1.96 C90.62 2.37, 86.54 2.43, 86.09 2.87 M89.66 1.81 C99.23 3.51, 107.81 7, 113.07 11.32 C118.34 15.63, 122.1 22.93, 121.23 27.67 C120.36 32.41, 114.22 36.44, 107.84 39.76 C101.47 43.08, 93.04 46.06, 82.96 47.6 C72.88 49.13, 58.45 50.13, 47.37 49 C36.29 47.86, 24.12 44.24, 16.47 40.8 C8.82 37.36, 3.72 32.45, 1.49 28.35 C-0.73 24.25, -0.71 20.21, 3.1 16.18 C6.91 12.16, 15.6 7.12, 24.34 4.2 C33.08 1.28, 44.94 -1.04, 55.54 -1.33 C66.14 -1.63, 82.4 1.79, 87.96 2.43 C93.51 3.08, 89.38 2.06, 88.89 2.55" stroke="#000000" stroke-width="1" fill="none"></path></g><g transform="translate(1295.9227132738638 675.5550738098668) rotate(0 7.1199951171875 12.5)"><text x="7.1199951171875" y="0" font-family="Virgil, Segoe UI Emoji" font-size="20px" fill="#000000" text-anchor="middle" style="white-space: pre;" direction="ltr" dominant-baseline="text-before-edge">2</text></g><g mask="url(#mask-nGWVCdRK4hMSjziE5BIbe)" stroke-linecap="round"><g transform="translate(1150.5645961972325 621.1160191327958) rotate(0 52.06813135748604 22.9472817889382)"><path d="M-0.08 -0.07 C17.1 7.82, 86.25 39.08, 103.47 47.05 M-1.58 -1.15 C15.94 6.39, 87.87 37.32, 105.72 45.17" stroke="#000000" stroke-width="1" fill="none"></path></g><g transform="translate(1150.5645961972325 621.1160191327958) rotate(0 52.06813135748604 22.9472817889382)"><path d="M75.66 41.89 C86.51 42.08, 97.59 43.26, 106.23 43.64 M75.96 43.74 C85.35 44.07, 94.51 44.92, 105.08 45.2" stroke="#000000" stroke-width="1" fill="none"></path></g><g transform="translate(1150.5645961972325 621.1160191327958) rotate(0 52.06813135748604 22.9472817889382)"><path d="M83.83 23.06 C91.92 29.52, 100.28 36.95, 106.23 43.64 M84.13 24.92 C91.19 30.84, 97.89 37.35, 105.08 45.2" stroke="#000000" stroke-width="1" fill="none"></path></g></g><mask id="mask-nGWVCdRK4hMSjziE5BIbe"><rect x="0" y="0" fill="#fff" width="1354.9163979789776" height="767.6985561974625"></rect><rect x="1174.3705248591011" y="631.9072876651289" fill="#000" width="56.73994445800781" height="25" opacity="1"></rect></mask><g transform="translate(1174.3705248591011 631.9072876651289) rotate(0 28.262202695617418 12.156013256605092)"><text x="28.369972229003906" y="0" font-family="Virgil, Segoe UI Emoji" font-size="20px" fill="#000000" text-anchor="middle" style="white-space: pre;" direction="ltr" dominant-baseline="text-before-edge">length</text></g><g mask="url(#mask-QqbOVPg_Ff4jfvfqZZFEQ)" stroke-linecap="round"><g transform="translate(1096.302945385934 569.8819953671673) rotate(0 -50.27074468431891 -30.519523934580093)"><path d="M-0.08 -0.07 C-16.89 -9.87, -83.69 -49.37, -100.46 -59.09 M-1.58 -1.15 C-18.05 -11.3, -82.07 -51.13, -98.21 -60.97" stroke="#000000" stroke-width="1" fill="none"></path></g><g transform="translate(1096.302945385934 569.8819953671673) rotate(0 -50.27074468431891 -30.519523934580093)"><path d="M-68.95 -56.37 C-77.81 -58.84, -86.47 -60.28, -97.7 -62.5 M-68.65 -54.52 C-77.14 -57.03, -85.82 -58.55, -98.85 -60.94" stroke="#000000" stroke-width="1" fill="none"></path></g><g transform="translate(1096.302945385934 569.8819953671673) rotate(0 -50.27074468431891 -30.519523934580093)"><path d="M-79.72 -38.91 C-84.96 -47.17, -90.04 -54.43, -97.7 -62.5 M-79.42 -37.05 C-84.79 -44.73, -90.23 -51.49, -98.85 -60.94" stroke="#000000" stroke-width="1" fill="none"></path></g></g><mask id="mask-QqbOVPg_Ff4jfvfqZZFEQ"><rect x="0" y="0" fill="#fff" width="1295.8815790996168" height="729.4374041996034"></rect><rect x="1022.7236428723543" y="527.6042909509492" fill="#000" width="47.57997131347656" height="25" opacity="1"></rect></mask><g transform="translate(1022.7236428723543 527.6042909509492) rotate(0 23.308557829260792 11.758180481637964)"><text x="23.78998565673828" y="0" font-family="Virgil, Segoe UI Emoji" font-size="20px" fill="#000000" text-anchor="middle" style="white-space: pre;" direction="ltr" dominant-baseline="text-before-edge">casa</text></g><g stroke-linecap="round" transform="translate(832.6999435424805 461.5) rotate(0 122.5 24.5)"><path d="M161.7 2.16 C177.25 2.58, 192.89 4.06, 205 6.04 C217.12 8.02, 227.68 11.09, 234.4 14.05 C241.13 17.02, 245.43 20.29, 245.35 23.83 C245.28 27.36, 240.93 32.14, 233.98 35.27 C227.02 38.4, 216.15 40.42, 203.61 42.62 C191.07 44.81, 174.61 47.27, 158.72 48.46 C142.83 49.66, 124.62 50.23, 108.27 49.79 C91.92 49.36, 74.95 47.82, 60.62 45.84 C46.28 43.86, 31.92 40.72, 22.26 37.91 C12.6 35.1, 5.8 32.08, 2.64 28.98 C-0.53 25.88, -0.19 22.49, 3.27 19.3 C6.73 16.1, 13.57 12.42, 23.39 9.82 C33.21 7.21, 47.47 5.36, 62.21 3.65 C76.94 1.94, 94.46 -0.15, 111.79 -0.45 C129.12 -0.74, 156.32 1.41, 166.18 1.87 C176.04 2.33, 171.69 1.9, 170.95 2.29 M181.57 3.07 C196.49 4.21, 209.13 7.6, 218.89 10.03 C228.64 12.45, 236.07 14.69, 240.12 17.59 C244.16 20.49, 245.98 23.95, 243.15 27.43 C240.32 30.9, 232.47 35.6, 223.16 38.46 C213.84 41.32, 201.36 43.12, 187.27 44.6 C173.18 46.09, 155.36 46.89, 138.63 47.37 C121.9 47.85, 102.76 48.32, 86.92 47.49 C71.07 46.66, 56.23 44.37, 43.53 42.37 C30.83 40.36, 17.84 38.43, 10.72 35.44 C3.6 32.46, 1.28 27.6, 0.84 24.43 C0.39 21.27, 1.92 19.34, 8.05 16.44 C14.17 13.55, 25.32 9.56, 37.59 7.06 C49.85 4.56, 65.94 2.72, 81.65 1.44 C97.37 0.16, 115.45 -0.64, 131.89 -0.6 C148.34 -0.56, 172.24 0.89, 180.31 1.66 C188.39 2.43, 181.17 3.3, 180.36 4.02" stroke="#000000" stroke-width="1" fill="none"></path></g><g transform="translate(899.5294132011322 473.6758838609294) rotate(0 55.549949645996065 12.5)"><text x="55.549949645996094" y="0" font-family="Virgil, Segoe UI Emoji" font-size="20px" fill="#000000" text-anchor="middle" style="white-space: pre;" direction="ltr" dominant-baseline="text-before-edge">"Gryffindor"</text></g><g stroke-linecap="round"><g transform="translate(826.1629299773681 578.9887586992486) rotate(5.215909448135333 12.46592718345579 -0.09966905673491055)"><path d="M-0.37 0.08 C3.56 0.29, 19.19 0.7, 23.07 0.76 M1.64 -0.92 C5.98 -1.01, 21.36 -0.84, 25.3 -0.96" stroke="#000000" stroke-width="1" fill="none"></path></g></g><mask></mask><g stroke-linecap="round"><g transform="translate(869.1335996575958 581.7817138372088) rotate(5.215909448135333 11.11670947298407 0.3258188563636395)"><path d="M-0.34 0.88 C3.53 1.16, 18.69 1.14, 22.57 1.08 M1.69 0.3 C5.41 0.32, 17.98 -0.16, 21.4 -0.47" stroke="#000000" stroke-width="1" fill="none"></path></g></g><mask></mask><g stroke-linecap="round"><g transform="translate(564.1629299773681 561.9887586992486) rotate(5.215909448135333 12.465927183455776 -0.09966905673491055)"><path d="M-0.37 0.08 C3.56 0.29, 19.19 0.7, 23.07 0.76 M1.64 -0.92 C5.98 -1.01, 21.36 -0.84, 25.3 -0.96" stroke="#000000" stroke-width="1" fill="none"></path></g></g><mask></mask><g stroke-linecap="round"><g transform="translate(607.1335996575958 563.7817138372088) rotate(5.215909448135333 11.11670947298407 0.3258188563636395)"><path d="M-0.34 0.88 C3.53 1.16, 18.69 1.14, 22.57 1.08 M1.69 0.3 C5.41 0.32, 17.98 -0.16, 21.4 -0.47" stroke="#000000" stroke-width="1" fill="none"></path></g></g><mask></mask><g stroke-linecap="round"><g transform="translate(478.1629299773681 557.9887586992486) rotate(5.215909448135333 12.46592718345579 -0.09966905673491055)"><path d="M-0.37 0.08 C3.56 0.29, 19.19 0.7, 23.07 0.76 M1.64 -0.92 C5.98 -1.01, 21.36 -0.84, 25.3 -0.96" stroke="#000000" stroke-width="1" fill="none"></path></g></g><mask></mask><g stroke-linecap="round"><g transform="translate(521.1335996575958 559.7817138372088) rotate(5.215909448135333 11.11670947298407 0.3258188563636395)"><path d="M-0.34 0.88 C3.53 1.16, 18.69 1.14, 22.57 1.08 M1.69 0.3 C5.41 0.32, 17.98 -0.16, 21.4 -0.47" stroke="#000000" stroke-width="1" fill="none"></path></g></g><mask></mask><g stroke-linecap="round"><g transform="translate(998.1629299773681 589.9887586992486) rotate(5.215909448135333 12.46592718345579 -0.09966905673491055)"><path d="M-0.37 0.08 C3.56 0.29, 19.19 0.7, 23.07 0.76 M1.64 -0.92 C5.98 -1.01, 21.36 -0.84, 25.3 -0.96" stroke="#000000" stroke-width="1" fill="none"></path></g></g><mask></mask><g stroke-linecap="round"><g transform="translate(1041.1335996575958 591.7817138372088) rotate(5.215909448135333 11.116709472984098 0.3258188563636395)"><path d="M-0.34 0.88 C3.53 1.16, 18.69 1.14, 22.57 1.08 M1.69 0.3 C5.41 0.32, 17.98 -0.16, 21.4 -0.47" stroke="#000000" stroke-width="1" fill="none"></path></g></g><mask></mask><g stroke-linecap="round"><g transform="translate(453.69994354248047 555) rotate(0 -22.33081621655263 -2.9766964775649285)"><path d="M-0.55 0.04 C-8.29 -0.69, -37.91 -3.32, -45.39 -4.26 M1.36 -0.99 C-6.58 -2.07, -38.15 -5.39, -46.03 -5.99" stroke="#000000" stroke-width="1" fill="none"></path></g><g transform="translate(453.69994354248047 555) rotate(0 -22.33081621655263 -2.9766964775649285)"><path d="M-23.58 -10.84 C-31.09 -8.75, -42.03 -6.47, -46.61 -4.33 M-23.65 -11.98 C-29.66 -9.26, -36.44 -8.16, -46.57 -6.83" stroke="#000000" stroke-width="1" fill="none"></path></g><g transform="translate(453.69994354248047 555) rotate(0 -22.33081621655263 -2.9766964775649285)"><path d="M-25.05 4.92 C-32.01 0.9, -42.38 -2.95, -46.61 -4.33 M-25.12 3.77 C-30.74 2.05, -37.09 -1.32, -46.57 -6.83" stroke="#000000" stroke-width="1" fill="none"></path></g></g><mask></mask><g transform="translate(638.1800079345703 560.5) rotate(0 86.51993560791016 12.5)"><text x="0" y="0" font-family="Virgil, Segoe UI Emoji" font-size="20px" fill="#000000" text-anchor="start" style="white-space: pre;" direction="ltr" dominant-baseline="text-before-edge">[ [ prototype ] ]</text></g></svg>